<svg id="Layer_1" data-name="Layer 1" xmlns="http://www.w3.org/2000/svg" viewBox="0 0 48.91 52.81"><defs><style>.cls-1{font-size:4.86px;font-family:FuturaPT-Bold, Futura PT;}.cls-1,.cls-2,.cls-3,.cls-4{fill:#231f20;}.cls-1,.cls-2,.cls-3{font-weight:700;}.cls-2{font-size:9.47px;letter-spacing:-0.03em;}.cls-2,.cls-3{font-family:FuturaPTCond-Bold, Futura PT Cond;}.cls-3{font-size:7.22px;}</style></defs><text class="cls-1" transform="translate(21.14 26.47)">CUT</text><text class="cls-2" transform="translate(19.52 34.57)">360</text><text class="cls-3" transform="translate(31.11 31.1) scale(0.58)">°</text><path class="cls-4" d="M24.46,42.38c-12.22,0-22.13-4-22.13-8.89,0-3,3.76-5.69,9.5-7.3l.13,1c-3.19,1.28-5.17,3.06-5.17,5,0,3.91,7.91,7.09,17.67,7.09Zm6.28-3.5c6.65-1,11.38-3.6,11.38-6.63,0-1.95-2-3.72-5.12-5l-.17-1.13c5.88,1.6,9.75,4.31,9.75,7.37,0,4-6.68,7.44-15.84,8.53Z"/><polygon class="cls-4" points="23.37 36.82 23.37 44.96 29.72 40.89 23.37 36.82"/><path class="cls-4" d="M19.09,38.58l-.66.06c-5.12-1.9-6-8.69-6.08-9.22A12.31,12.31,0,0,0,9.6,24.16,11,11,0,0,1,8.24,22.1a.83.83,0,0,1-.07-.38,3.09,3.09,0,0,1,2.75-2.54,5.3,5.3,0,0,1,5,2.12l0-10.65a3.42,3.42,0,0,1,5.34-2.84,3.4,3.4,0,0,1,6.6.76A3.41,3.41,0,0,1,33,11.5v1.16a3.11,3.11,0,0,1,1.28-.3c1.38,0,3,1.12,3,2.56V29.47a21.58,21.58,0,0,1-1.74,8.67,15,15,0,0,0-.84,2.6v5.7a.86.86,0,1,1-1.71,0l0-1.25V40.43a15.59,15.59,0,0,1,.93-2.91,19.92,19.92,0,0,0,1.62-8.05V14.92c0-.34-.67-.85-1.28-.85s-1.28.51-1.28.85v6a.86.86,0,1,1-1.71,0V11.5a1.72,1.72,0,0,0-3.43,0v8.56a.85.85,0,0,1-.85.85.86.86,0,0,1-.86-.85V8.93a1.71,1.71,0,1,0-3.42,0V20.06a.86.86,0,0,1-1.71,0V10.65a1.71,1.71,0,1,0-3.42,0l0,15.39a3.52,3.52,0,0,1-1.11,2.32.82.82,0,0,1-.6.25.85.85,0,0,1-.61-.25.86.86,0,0,1,0-1.21A1.83,1.83,0,0,0,15.9,26V24.59c-1.72-3.91-4-3.85-4.69-3.73a1.8,1.8,0,0,0-1.29.79,14.6,14.6,0,0,0,1,1.47,14,14,0,0,1,3.08,6v0c0,.07.75,5.27,4.42,7.75.32.22.63.41.63.8v.84"/><path class="cls-4" d="M18.24,47.3a.85.85,0,0,1-.84-.84V38a.85.85,0,0,1,1.69,0v8.44A.85.85,0,0,1,18.24,47.3Z"/></svg>