<svg id="Layer_1" data-name="Layer 1" xmlns="http://www.w3.org/2000/svg" viewBox="0 0 48.45 62.6"><defs><style>.cls-1{fill:#010101;}.cls-2,.cls-4,.cls-5{fill:#231f20;}.cls-3{fill:#fff;}.cls-4{font-size:6.44px;font-family:HelveticaNeueLTStd-BlkCn, Helvetica Neue LT Std;}.cls-5{font-size:4.92px;font-family:HelveticaNeueLTStd-LtCn, Helvetica Neue LT Std;}.cls-6{font-family:HelveticaNeueLTStd-MdCn, Helvetica Neue LT Std;font-weight:500;}</style></defs><path class="cls-1" d="M24.08,24.49c-2.63,4-5.11,6.89.3,12.46-2.3-4.3,0-7.3,2-10,2.46-3.24,4.79-6.32,1.21-12.25.71,4.09-.66,5.48-3.51,9.77"/><path class="cls-1" d="M19,21.55c-2.33,2.64-4.08,5.78-3.49,8.58.44,2.15,2.37,4.43,5.86,6.83-4.9-6.11-1.87-10.23.84-13.87s5.12-6.89,1.06-12.49C24.07,15,23,17,19,21.55"/><path class="cls-1" d="M27.06,37c-.84-1.93,1.59-4.36,3-5.9,2.67-3,4.45-5.28,1.54-10.56.33,3.32-1.7,5.72-3.32,7.85-2.24,2.95-3.79,5-1.19,8.61"/><path class="cls-2" d="M8.65,46.7V43.85A5.31,5.31,0,0,1,14,38.54H34.49a5.31,5.31,0,0,1,5.31,5.31V46.7A5.3,5.3,0,0,1,34.49,52H14a5.3,5.3,0,0,1-5.3-5.3"/><path class="cls-3" d="M34.57,51.32H13.88a4.57,4.57,0,0,1-4.55-4.55v-3a4.56,4.56,0,0,1,4.55-4.54H34.57a4.56,4.56,0,0,1,4.55,4.54v3a4.57,4.57,0,0,1-4.55,4.55"/><text class="cls-4" transform="translate(15.77 45.09)">600 °F</text><text class="cls-5" transform="translate(12.68 50.34)">for <tspan class="cls-6" x="5.83" y="0">3.25</tspan><tspan x="14.11" y="0" xml:space="preserve"> secs</tspan></text><text class="cls-5" transform="translate(17.93 50.34)"> </text></svg>