<svg id="Layer_1" data-name="Layer 1" xmlns="http://www.w3.org/2000/svg" viewBox="0 0 48.91 52.81">
  <defs>
    <style>
      .cls-1 {
        font-size: 19.46px;
      }

      .cls-1, .cls-2, .cls-3 {
        fill: #231f20;
      }

      .cls-1, .cls-3 {
        font-family: FuturaPT-Bold, Futura PT;
        font-weight: 700;
      }

      .cls-3 {
        font-size: 6.62px;
      }
    </style>
  </defs>
  <g>
    <text class="cls-1" transform="translate(31.36 23.53)">0</text>
    <g>
      <path class="cls-2" d="M38.06,35.08,24,10.79a1.24,1.24,0,0,0-2.34,0l-14,24.29c-.65,1.12-.12,2,1.17,2H36.89C38.18,37.11,38.7,36.2,38.06,35.08Zm-27.87,0,12.67-22,12.67,22Z"/>
      <polygon class="cls-2" points="19.24 34.08 18.13 34.08 15.76 28.97 18.01 30.78 16.98 26.1 19.24 28.85 19.2 20.91 22.02 28.18 22.51 25.55 23.37 28.06 25.71 21.73 24.85 28.97 26.36 27.32 25.87 29.56 29.97 26.37 26.12 33.02 28.62 32.58 26.57 34.08 24.64 34.08 25.83 31.25 23.66 32.55 23.7 30.15 22.84 31.6 22.72 30.46 22.02 32.19 20.79 29.56 20.34 32.58 19.03 31.17 19.24 34.08"/>
      <text class="cls-3" transform="translate(5.88 43.77)">ARC FLASH</text>
    </g>
  </g>
</svg>
