<svg id="Layer_1" data-name="Layer 1" xmlns="http://www.w3.org/2000/svg" viewBox="0 0 48.45 62.6"><defs><style>.cls-1{fill:#3bb54a;}.cls-2{font-size:4.22px;fill:#fff;font-family:HelveticaNeueLTStd-Bd, Helvetica Neue LT Std;}</style></defs><path class="cls-1" d="M24.22,16.62A14.68,14.68,0,1,1,9.54,31.3,14.7,14.7,0,0,1,24.22,16.62m0-6.64A21.32,21.32,0,1,0,45.54,31.3,21.31,21.31,0,0,0,24.22,10Z"/><path class="cls-1" d="M24.22,46.47A15.15,15.15,0,1,1,39.38,31.32,15.17,15.17,0,0,1,24.22,46.47Zm0-29.31A14.16,14.16,0,1,0,38.39,31.32,14.18,14.18,0,0,0,24.22,17.16Z"/><path class="cls-1" d="M31.87,34.3c0-3.21-4.41-12.91-6.3-16.93a1.48,1.48,0,0,0-1.34-.85h0a1.48,1.48,0,0,0-1.34.85c-1.89,4-6.3,13.72-6.3,16.93a7.66,7.66,0,0,0,7,7.62V45.4a.69.69,0,0,0,1.37,0V41.92A7.66,7.66,0,0,0,31.87,34.3Zm-7-4.25,2.78-2.78c.33.83.62,1.61.89,2.35L24.91,33.3Zm0-1V25.84l1.54-1.55c.33.78.65,1.55,1,2.3ZM23.54,29l-2.48-2.49c.3-.74.62-1.51,1-2.29l1.52,1.53Zm0,1v3.25l-3.66-3.66c.27-.74.57-1.53.9-2.35Zm0,4.22v3.25l-4.68-4.68c.18-.71.44-1.55.76-2.49Zm1.37,0,3.93-3.93c.33,1,.58,1.79.75,2.49l-4.68,4.69Zm1.25-10.64-1.25,1.25V20.81Zm-2.62-2.81v4l-1.23-1.24C22.71,22.67,23.12,21.74,23.54,20.81ZM18.62,34.3a4.37,4.37,0,0,1,.08-.72l4.84,4.85v1.43A5.61,5.61,0,0,1,18.62,34.3Zm6.29,5.56V38.48l4.85-4.86a4.89,4.89,0,0,1,.07.68A5.61,5.61,0,0,1,24.91,39.86Z"/><text class="cls-2" transform="translate(7.33 41.03) rotate(55.7)">B</text><text class="cls-2" transform="matrix(0.66, 0.75, -0.75, 0.66, 9.18, 43.63)">I</text><text class="cls-2" transform="translate(10.15 44.81) rotate(41.42)">O</text><text class="cls-2" transform="matrix(0.86, 0.51, -0.51, 0.86, 12.93, 47.21)">D</text><text class="cls-2" transform="translate(15.96 48.96) rotate(21.08)">E</text><text class="cls-2" transform="matrix(0.98, 0.19, -0.19, 0.98, 18.86, 50.06)">G</text><text class="cls-2" transform="translate(22.39 50.72) rotate(0.93)">R</text><text class="cls-2" transform="translate(25.78 50.74) rotate(-8.78)">A</text><text class="cls-2" transform="translate(29 50.22) rotate(-18.78)">D</text><text class="cls-2" transform="matrix(0.88, -0.48, 0.48, 0.88, 32.29, 49.06)">A</text><text class="cls-2" transform="matrix(0.78, -0.62, 0.62, 0.78, 35.12, 47.47)">B</text><text class="cls-2" transform="matrix(0.68, -0.74, 0.74, 0.68, 37.68, 45.39)">L</text><text class="cls-2" transform="translate(39.57 43.32) rotate(-55.96)">E</text></svg>