<svg id="Layer_1" data-name="Layer 1" xmlns="http://www.w3.org/2000/svg" viewBox="0 0 48.45 62.6"><defs><style>.cls-1,.cls-2{fill:#231f20;}.cls-2{font-size:6.9px;font-family:FuturaPT-Bold, Futura PT;font-weight:700;}.cls-3{letter-spacing:-0.08em;}</style></defs><path class="cls-1" d="M39.32,17.05a8.93,8.93,0,0,1,1.27.09V12.75a15.16,15.16,0,0,0-1.52-.08,12.83,12.83,0,0,0,0,25.66,12.66,12.66,0,0,0,1.52-.09v-4a8.93,8.93,0,0,1-1.27.09A8.62,8.62,0,0,1,31,27.8H37.7V23.56H31a8.63,8.63,0,0,1,8.36-6.51"/><path class="cls-1" d="M18.6,34.3a8.63,8.63,0,1,1,0-17.25,9,9,0,0,1,1.27.09V12.75c-.5-.05-1-.08-1.52-.08a12.83,12.83,0,1,0,1.52,25.57v-4a9,9,0,0,1-1.27.09"/><text class="cls-2" transform="translate(1.45 46.67)">FOR MINIMAL<tspan x="5.18" y="7">RISK ON</tspan><tspan class="cls-3" x="33.21" y="7">L</tspan><tspan x="35.93" y="7">Y</tspan></text></svg>