<svg id="Layer_1" data-name="Layer 1" xmlns="http://www.w3.org/2000/svg" xmlns:xlink="http://www.w3.org/1999/xlink" viewBox="0 0 48.45 62.6"><defs><style>.cls-1{fill:none;}.cls-2{fill:#231f20;}.cls-3{clip-path:url(#clip-path);}</style><clipPath id="clip-path"><rect class="cls-1" x="10.7" y="11.97" width="26.8" height="40.64"/></clipPath></defs><path class="cls-2" d="M12.2,37.5a11.35,11.35,0,0,0,.2,1.16h0a16.16,16.16,0,0,0,1.42,3.87h0c1.56,3,4.52,6.52,10.33,8.76h0c10.19-3.93,11.75-11.89,12-13.8h0c0-.22,0-.34,0-.38h0V23.33h-24V37.11h0s0,.16,0,.39ZM24.19,52v0Zm0,.65H24l-.11,0c-6.24-2.34-9.53-6.19-11.22-9.45h0a15.6,15.6,0,0,1-1.81-6h0v0h0V22.68h0V22H37.5v15.1h0a15.53,15.53,0,0,1-1.84,6h0c-1.7,3.26-5,7.11-11.24,9.45h0l-.11,0Z"/><path class="cls-2" d="M27,26a1.1,1.1,0,0,1-.74-.27l-1.08-.52c-1-.92-1.55-.51-1.57-.5l0,0c-.06,0-1.26.69-1.52.81a1.71,1.71,0,0,1-1.86.19c-.33-.14-1.22-.61-1.25-.63-.9-.65-1.38-.41-1.59-.31s-1.43.8-1.86,1.06l-.2-.32c.16-.1,1.59-.95,1.91-1.08a1.71,1.71,0,0,1,1.94.34h0s.91.48,1.21.6l0,0a1.4,1.4,0,0,0,1.48-.19c.26-.13,1.37-.74,1.51-.82s.84-.54,2,.5l1.09.53s.47.44,1.2-.08c.33-.2,1.72-.92,1.78-1a1.57,1.57,0,0,1,1.45.21c.2.15,1.36.76,1.79,1l-.17.33c-.16-.08-1.59-.83-1.84-1a1.2,1.2,0,0,0-1.08-.16h0s-1.42.74-1.72.92A1.59,1.59,0,0,1,27,26Z"/><polygon class="cls-2" points="33.37 39.09 14.94 39.09 14.94 38.03 33.37 38.03 33.37 39.09 33.37 39.09"/><path class="cls-2" d="M21.11,44.52h0a.73.73,0,0,1-.55-.38c-.06-.06-1.87-2.23-2.11-2.55a.63.63,0,0,0-.44-.24h0a.38.38,0,0,0-.28.13L15.58,44.1l-.29-.23,2.13-2.64A.86.86,0,0,1,18,41a1,1,0,0,1,.72.38l2.14,2.58c0,.07.15.21.25.22a.52.52,0,0,0,.32-.27c.13-.19,1.88-2.34,2.08-2.58a.77.77,0,0,1,.57-.26h0a1,1,0,0,1,.71.37c.2.26,2.06,2.56,2.08,2.58a.26.26,0,0,0,.18.12c.12,0,.26-.08.41-.25s2-2.44,2-2.44a1.05,1.05,0,0,1,.73-.27.79.79,0,0,1,.57.34c.2.3,1.47,1.76,2.12,2.49l-.28.25c-.08-.08-1.89-2.14-2.15-2.52a.45.45,0,0,0-.3-.19.64.64,0,0,0-.42.16l-2,2.42a.93.93,0,0,1-.74.39.68.68,0,0,1-.45-.28c-.06-.08-1.87-2.31-2.06-2.56a.56.56,0,0,0-.43-.24.43.43,0,0,0-.28.13c-.77,1-2,2.42-2.05,2.55a.79.79,0,0,1-.63.43Z"/><path class="cls-2" d="M31.59,34.94a1.87,1.87,0,0,0,.17-.31,6.63,6.63,0,0,0,.57-2.82c0-1.83-.6-3.37-1.42-3.84a3.1,3.1,0,0,0-1.69-.59H20.63a.84.84,0,0,0,0,1.68h4a1.55,1.55,0,0,0-.05.23H17.1a.84.84,0,0,0,0,1.68h5.55c0,.1-.09.2-.13.31H16.7a.78.78,0,0,0,0,1.55h5.57a1.85,1.85,0,0,1,0,.23H17.07a.73.73,0,0,0-.66.72.72.72,0,0,0,.66.71h5.57c.06.13.12.26.19.38H18.65a.69.69,0,0,0,0,1.37H29.08A3,3,0,0,0,31,35.6a2,2,0,0,0,.6-.66Z"/><polygon class="cls-2" points="10.88 16.87 12.93 16.87 12.93 17.4 11.54 17.4 11.54 18.18 12.84 18.18 12.84 18.71 11.54 18.71 11.54 19.59 12.98 19.59 12.98 20.13 10.88 20.13 10.88 16.87 10.88 16.87"/><polygon class="cls-2" points="13.46 16.87 14.41 16.87 15.55 19.44 15.55 16.87 16.16 16.87 16.16 20.13 15.26 20.13 14.08 17.43 14.08 20.13 13.46 20.13 13.46 16.87 13.46 16.87"/><polygon class="cls-2" points="17.88 16.86 18.53 16.86 18.53 20.13 17.88 20.13 17.88 16.86 17.88 16.86"/><path class="cls-2" d="M19.62,19.09a.52.52,0,0,0,.55.62c.36,0,.58-.18.58-.46s-.19-.34-.58-.44c-.73-.19-1.13-.42-1.13-1s.36-1,1.22-1a1.1,1.1,0,0,1,.92.38,1,1,0,0,1,.17.6h-.63a.47.47,0,0,0-.49-.49c-.31,0-.51.17-.51.44s.23.36.67.47,1.05.29,1.05.93-.46,1.06-1.31,1.06c-1.17,0-1.18-.8-1.18-1.12Z"/><path class="cls-2" d="M22.72,19.44a.7.7,0,0,0,1.12,0,1.7,1.7,0,0,0,.21-.94,1.79,1.79,0,0,0-.08-.58.71.71,0,0,0-.7-.58.67.67,0,0,0-.56.28,1.62,1.62,0,0,0-.22,1,1.53,1.53,0,0,0,.23.91Zm.55-2.64a1.37,1.37,0,0,1,1.08.44,2,2,0,0,1,.39,1.23,2.1,2.1,0,0,1-.39,1.28,1.53,1.53,0,0,1-2.17,0,1.85,1.85,0,0,1-.38-1.22c0-.87.37-1.75,1.47-1.75Z"/><path class="cls-2" d="M26.49,17.46a4.27,4.27,0,0,0,.79-.48h.54v3.15h-.64V17.68a2.9,2.9,0,0,1-.69.4v-.62Z"/><path class="cls-2" d="M29.71,17.83c0-.09-.09-.37-.32-.37s-.27.18-.3.27a3.89,3.89,0,0,0-.09.88c0,.54.07,1,.39,1s.39-.61.39-1a4,4,0,0,0-.07-.77Zm-.33-.89a.89.89,0,0,1,.77.41,2,2,0,0,1,.27,1.14c0,.73-.16,1.69-1.05,1.69s-1-.77-1-1.61c0-.42.08-1.63,1-1.63Z"/><path class="cls-2" d="M32.13,17.82a.37.37,0,0,0-.39-.39.4.4,0,1,0,.39.39Zm0,1.4a.42.42,0,0,0-.42-.45.43.43,0,0,0-.42.46.42.42,0,1,0,.84,0Zm-1.43-1.41a.93.93,0,0,1,1-.88.9.9,0,0,1,1,.85.69.69,0,0,1-.58.69.78.78,0,0,1,.47.33.83.83,0,0,1,.14.47,1,1,0,0,1-1.09.91.94.94,0,0,1-1-.91.77.77,0,0,1,.21-.55,1,1,0,0,1,.39-.24.69.69,0,0,1-.56-.67Z"/><path class="cls-2" d="M33.3,17.46a3.89,3.89,0,0,0,.78-.48h.55v3.15H34V17.68a3.13,3.13,0,0,1-.69.4v-.62Z"/><g class="cls-3"><path class="cls-2" d="M36.7,17.94c0-.28-.13-.48-.39-.48s-.41.25-.41.49,0,.5.4.5.4-.29.4-.51ZM36,19.36a.3.3,0,0,0,.31.31c.44,0,.47-.49.46-.92a.72.72,0,0,1-.54.22.91.91,0,0,1-.91-1,1,1,0,0,1,1-1c1,0,1,1,1,1.53,0,1.33-.42,1.71-1.14,1.71a.8.8,0,0,1-.91-.83Z"/><path class="cls-2" d="M12.55,13.11c0-.12-.05-.58-.49-.58s-.68.54-.68,1.22c0,.19,0,1.12.63,1.12.27,0,.53-.19.54-.62h.69A1.18,1.18,0,0,1,13,15a1.12,1.12,0,0,1-.88.37c-1,0-1.38-.83-1.38-1.64,0-1,.54-1.72,1.39-1.72a1.05,1.05,0,0,1,1.12,1.09Z"/></g><polygon class="cls-2" points="13.66 12.04 15.68 12.04 15.68 12.57 14.3 12.57 14.3 13.35 15.59 13.35 15.59 13.88 14.3 13.88 14.3 14.76 15.72 14.76 15.72 15.3 13.66 15.3 13.66 12.04 13.66 12.04"/><path class="cls-2" d="M16.79,13.47h.52a.5.5,0,0,0,.33-.09.46.46,0,0,0,.17-.38.43.43,0,0,0-.16-.37.73.73,0,0,0-.43-.07h-.43v.91ZM16.15,12h1.16a1.29,1.29,0,0,1,.91.22.86.86,0,0,1,.26.63.79.79,0,0,1-.63.8c.46,0,.49.32.55.75a5.63,5.63,0,0,0,.09.63.59.59,0,0,0,.09.23h-.71c0-.18-.13-1-.17-1.13a.29.29,0,0,0-.32-.18h-.57V15.3h-.66V12Z"/><polygon class="cls-2" points="19.56 12.58 18.66 12.58 18.66 12.04 21.11 12.04 21.11 12.58 20.21 12.58 20.21 15.3 19.56 15.3 19.56 12.58 19.56 12.58"/><polygon class="cls-2" points="21.4 12.03 22.05 12.03 22.05 15.3 21.4 15.3 21.4 12.03 21.4 12.03"/><polygon class="cls-2" points="22.6 12.05 24.55 12.05 24.55 12.57 23.25 12.57 23.25 13.37 24.46 13.37 24.46 13.91 23.25 13.91 23.25 15.3 22.6 15.3 22.6 12.05 22.6 12.05"/><polygon class="cls-2" points="24.88 12.03 25.53 12.03 25.53 15.3 24.88 15.3 24.88 12.03 24.88 12.03"/><polygon class="cls-2" points="26.1 12.04 28.12 12.04 28.12 12.57 26.75 12.57 26.75 13.35 28.04 13.35 28.04 13.88 26.75 13.88 26.75 14.76 28.17 14.76 28.17 15.3 26.1 15.3 26.1 12.04 26.1 12.04"/><path class="cls-2" d="M29.27,14.77h.26a.88.88,0,0,0,.7-.23,1.5,1.5,0,0,0,.27-.92,1,1,0,0,0-.55-1,2,2,0,0,0-.68,0v2.19Zm-.65-2.72h1a1.69,1.69,0,0,1,1,.29,1.62,1.62,0,0,1,.52,1.28,1.49,1.49,0,0,1-1.07,1.64,3,3,0,0,1-.54,0h-.94V12.05Z"/><g class="cls-3"><polygon class="cls-2" points="32.85 12.58 31.95 12.58 31.95 12.04 34.4 12.04 34.4 12.58 33.5 12.58 33.5 15.3 32.85 15.3 32.85 12.58 32.85 12.58"/><path class="cls-2" d="M35.35,14.61a.63.63,0,0,0,.55.26.61.61,0,0,0,.57-.3,1.7,1.7,0,0,0,.2-.94,2.12,2.12,0,0,0-.07-.58.72.72,0,0,0-.69-.58.66.66,0,0,0-.56.28,1.64,1.64,0,0,0-.22.95,1.66,1.66,0,0,0,.22.91ZM35.9,12a1.35,1.35,0,0,1,1.06.45,1.9,1.9,0,0,1,.39,1.22A2.16,2.16,0,0,1,37,14.92a1.38,1.38,0,0,1-1.08.46,1.42,1.42,0,0,1-1.07-.44,1.89,1.89,0,0,1-.37-1.22c0-.87.37-1.75,1.45-1.75Z"/></g></svg>