<svg id="Layer_1" data-name="Layer 1" xmlns="http://www.w3.org/2000/svg" viewBox="0 0 99.66 52.81"><defs><style>.cls-1{fill:#231f20;}.cls-2{fill:#ec2429;}</style></defs><path class="cls-1" d="M45.2,23.86a3,3,0,0,0-3.27-2.55c-1.48,0-3.66,1-3.66,5.16,0,2.65,1,5,3.66,5a3.15,3.15,0,0,0,3.27-2.77h3.08c-.62,3.2-2.71,5.44-6.41,5.44-3.92,0-6.74-2.65-6.74-7.74s3-7.79,6.78-7.79c4.42,0,6.2,3,6.37,5.22Z"/><polygon class="cls-1" points="50.21 19.03 50.21 33.78 53.29 33.78 53.29 27.58 59.78 27.58 59.78 24.97 53.29 24.97 53.29 21.64 60.7 21.64 60.7 19.03 50.21 19.03"/><rect class="cls-1" x="62.1" y="19.03" width="3.08" height="14.75"/><path class="cls-1" d="M73.48,22.36h0l1.83,5.83H71.59ZM71.75,19,66.49,33.78h3.25l1-3h5.44l.94,3H80.5L75.3,19Z"/><path class="cls-2" d="M25.88,33.8h-.24l.14-3.57-3.85.55s.17-.34.42-.76c.4-.67.06-.76.06-.76S21,28.11,19.16,26.52c1-.14.73-.66.73-.66l-.59-2a8,8,0,0,0,1.21.28c1.07.2,1-.11,1-.11l.35-.9s1.17,1.28,1.62,1.73.42,0,.42,0l-.76-3.91,1.35.73,1.44-2.57,1.42,2.57,1.35-.73-.76,3.91s0,.45.42,0S30,23.09,30,23.09l.35.9s-.1.31,1,.11a8,8,0,0,0,1.21-.28l-.59,2s-.24.52.73.66c-1.87,1.59-3.25,2.74-3.25,2.74s-.35,0,.06.76c.25.42.43.74.43.74L26,30.23l.13,3.57Z"/></svg>