<svg id="Layer_1" data-name="Layer 1" xmlns="http://www.w3.org/2000/svg" viewBox="0 0 48.45 62.6"><defs><style>.cls-1{fill:#010101;}</style></defs><path class="cls-1" d="M25,33.92l-.57.49a7.14,7.14,0,0,1-.76.54,4.88,4.88,0,0,1-1,.47,3.5,3.5,0,0,1-1.21.21,3.55,3.55,0,0,1-1.23-.22,3,3,0,0,1-1.11-.69,3.64,3.64,0,0,1-.83-1.31,5.57,5.57,0,0,1-.32-2,5.83,5.83,0,0,1,.3-2,3.83,3.83,0,0,1,.79-1.32l.05-.05L17.05,26a5.17,5.17,0,0,0-.65.59,6.81,6.81,0,0,0-1.7,4.85,6.73,6.73,0,0,0,1.7,4.9A6.07,6.07,0,0,0,21,38a7.79,7.79,0,0,0,1.44-.1,9.62,9.62,0,0,0,1.13-.27,8.41,8.41,0,0,0,.95-.36l.82-.37V34.21L25,33.92Z"/><polygon class="cls-1" points="27.03 37.78 28.88 37.78 27.03 35.92 27.03 37.78"/><path class="cls-1" d="M22.61,27.32a5.66,5.66,0,0,1,1,.47,7.46,7.46,0,0,1,.8.56c.23.2.43.36.58.5h.33V25.8q-.31-.16-.84-.39a7,7,0,0,0-.95-.35,7.13,7.13,0,0,0-1.17-.24A9.45,9.45,0,0,0,21,24.73a8.08,8.08,0,0,0-1.42.12l2.3,2.3A3.14,3.14,0,0,1,22.61,27.32Z"/><path class="cls-1" d="M30,31.32a8,8,0,0,1,1-.33,3.87,3.87,0,0,1,1-.14q.39,0,.72,0a2.26,2.26,0,0,1,.5.09h.25V28.13a3.11,3.11,0,0,0-.33,0h-.33a2.82,2.82,0,0,0-.82.14,4.13,4.13,0,0,0-.76.34,6.22,6.22,0,0,0-.66.46c-.25.2-.44.35-.57.48V28.13H27v4.19l3,3Z"/><path class="cls-1" d="M26.17,48.17c0-.52-.54-.52-.81-.5l-.19,0,.1,1.16h.18C25.6,48.83,26.23,48.75,26.17,48.17Z"/><path class="cls-1" d="M30.5,46.38A1.39,1.39,0,0,0,31.57,49a1.39,1.39,0,0,0-1.07-2.57Z"/><path class="cls-1" d="M25.67,15.05a1.32,1.32,0,0,0,1.48-1.25,1.35,1.35,0,1,0-2.69-.26A1.31,1.31,0,0,0,25.67,15.05Z"/><path class="cls-1" d="M24.22,9.86A21.44,21.44,0,1,0,45.66,31.3,21.46,21.46,0,0,0,24.22,9.86Zm12.54,6.63-.33.42L35.27,16l-.57.73,1.12.88-.33.42-1.12-.88-.72.91L34.8,19l-.32.41-1.6-1.25,2.28-2.9Zm-6.2-4,.06,3.13,2.3-2.12L32,17.44l-.53-.22L32,15l-1.92,1.78,0-2.62-1.23,1.89-.52-.22Zm-6.66,1a1.91,1.91,0,1,1,1.72,2.09A1.86,1.86,0,0,1,23.9,13.48Zm-3.19-1.43a1.65,1.65,0,0,1,1,.06A1.06,1.06,0,0,1,21.63,14L23,15.41l-.67.1L21.06,14.2H21l.24,1.49-.56.09-.59-3.63Zm-4.65,1.48.57,1.34,1.45-.61-.56-1.34L18,12.7l1.42,3.39-.52.22-.65-1.56-1.46.61.66,1.56-.52.22-1.43-3.39Zm-3.81,2.9A1.81,1.81,0,0,1,13,15.25a1.66,1.66,0,0,1,.94-.38l.4.52a1.43,1.43,0,0,0-1,.28,1.32,1.32,0,0,0-.23,1.93,1.34,1.34,0,0,0,1.91.29,1.45,1.45,0,0,0,.53-.94l.41.53a2,2,0,0,1-.64.83,1.87,1.87,0,0,1-1.35.38,1.83,1.83,0,0,1-1.31-.75A1.94,1.94,0,0,1,12.25,16.43Zm5,32.71-.22.48-2.44-1.13,3-2.1-1.37-.64.22-.48,2.21,1-3,2.1Zm5.13-1.47L21,47.43l-.15.92,1.4.24-.09.52-1.4-.24L20.54,50l1.44.25-.09.52-2-.34.62-3.63,2,.34Zm4.17,3.07-1.18-1.41h-.1l.14,1.5-.56,0-.33-3.67.65-.06a1.64,1.64,0,0,1,1,.13,1,1,0,0,1,.51.83A1,1,0,0,1,26,49.21l1.28,1.47Zm5.18-1.32a1.91,1.91,0,1,1,1-2.5A1.85,1.85,0,0,1,31.77,49.42Zm1.62-7.13A14.31,14.31,0,0,1,13.23,22.13l.42-.48,3.93,3.93,2.07,2.07L27,35l2.75,2.76,4.09,4.09Zm1.8-1.8q-.19.24-.42.48L30,36.23l-3-3-6.06-6L18.84,25l-4.29-4.28.48-.42A14.31,14.31,0,0,1,35.19,40.49Z"/><path class="cls-1" d="M21.06,13.7c.15,0,.77-.14.68-.72s-.58-.48-.85-.43l-.19,0,.19,1.15Z"/></svg>