<svg id="Layer_1" data-name="Layer 1" xmlns="http://www.w3.org/2000/svg" viewBox="0 0 48.45 62.6"><defs><style>.cls-1{fill:#3bb54a;}.cls-2{font-size:4.22px;fill:#fff;font-family:HelveticaNeueLTStd-Bd, Helvetica Neue LT Std;}</style></defs><path class="cls-1" d="M24.22,16.62A14.68,14.68,0,1,1,9.54,31.3,14.7,14.7,0,0,1,24.22,16.62m0-6.64A21.32,21.32,0,1,0,45.54,31.3,21.31,21.31,0,0,0,24.22,10Z"/><text class="cls-2" transform="translate(11.46 21.64) rotate(-46.45)">C</text><text class="cls-2" transform="translate(13.54 19.47) rotate(-36.97)">L</text><text class="cls-2" transform="translate(15.4 18.01) rotate(-27.21)">O</text><text class="cls-2" transform="matrix(0.96, -0.29, 0.29, 0.96, 18.21, 16.58)">S</text><text class="cls-2" transform="translate(20.71 15.81) rotate(-7.6)">E</text><text class="cls-2" transform="translate(23.28 15.44) rotate(2.18)">D</text><text class="cls-2" transform="translate(26.33 15.61) rotate(9.5)"> </text><text class="cls-2" transform="matrix(0.96, 0.27, -0.27, 0.96, 27.39, 15.74)">L</text><text class="cls-2" transform="matrix(0.9, 0.43, -0.43, 0.9, 29.69, 16.34)">O</text><text class="cls-2" transform="matrix(0.8, 0.6, -0.6, 0.8, 32.53, 17.69)">O</text><text class="cls-2" transform="translate(35.07 19.59) rotate(47.05)">P</text><text class="cls-2" transform="matrix(0.25, 0.97, -0.97, 0.25, 5.04, 35.02)">R</text><text class="cls-2" transform="translate(5.93 38.3) rotate(65.85)">E</text><text class="cls-2" transform="matrix(0.54, 0.84, -0.84, 0.54, 7.21, 41.08)">F</text><text class="cls-2" transform="translate(8.76 43.47) rotate(47.9)">U</text><text class="cls-2" transform="matrix(0.79, 0.61, -0.61, 0.79, 11.12, 46.03)">R</text><text class="cls-2" transform="translate(13.83 48.09) rotate(27.9)">B</text><text class="cls-2" transform="translate(16.74 49.55) rotate(20.82)">I</text><text class="cls-2" transform="translate(18.1 50.1) rotate(14.25)">S</text><text class="cls-2" transform="translate(21.11 50.85) rotate(4.53)">H</text><text class="cls-2" transform="translate(24.57 51.08) rotate(-4.99)">E</text><text class="cls-2" transform="matrix(0.97, -0.25, 0.25, 0.97, 27.65, 50.8)">D</text><text class="cls-2" transform="matrix(0.93, -0.37, 0.37, 0.93, 30.91, 49.86)"> </text><text class="cls-2" transform="translate(32.26 49.37) rotate(-29.12)">G</text><text class="cls-2" transform="matrix(0.78, -0.62, 0.62, 0.78, 35.33, 47.6)">L</text><text class="cls-2" transform="translate(37.56 45.83) rotate(-47.99)">O</text><text class="cls-2" transform="matrix(0.53, -0.85, 0.85, 0.53, 39.96, 43.08)">V</text><text class="cls-2" transform="translate(41.54 40.54) rotate(-66.72)">E</text><text class="cls-2" transform="matrix(0.24, -0.97, 0.97, 0.24, 42.73, 37.71)">S</text><path class="cls-1" d="M24.22,46.76A15.15,15.15,0,1,1,39.38,31.61,15.17,15.17,0,0,1,24.22,46.76Zm0-29.31A14.16,14.16,0,1,0,38.39,31.61,14.18,14.18,0,0,0,24.22,17.45Z"/><path class="cls-1" d="M34.62,28.08A5.11,5.11,0,0,0,31,26.51,6.44,6.44,0,0,0,27,28c-.22.17-.47.38-.74.62L25.63,28v2.61h2.6l-.67-.67c.22-.18.41-.35.58-.48A4.62,4.62,0,0,1,31,28.32a3.36,3.36,0,0,1,2.38,1,3.62,3.62,0,0,1,0,5.12,3.36,3.36,0,0,1-2.38,1,4.62,4.62,0,0,1-2.82-1.11,43.32,43.32,0,0,1-3.32-3.15A39.49,39.49,0,0,0,21.4,28a6.56,6.56,0,0,0-3.93-1.49,5.08,5.08,0,0,0-3.64,1.56,5.41,5.41,0,0,0,0,7.66,5.08,5.08,0,0,0,3.64,1.56h0a6.62,6.62,0,0,0,3.94-1.49l.72-.61.67.67v-2.6H20.2l.65.65-.56.47a4.85,4.85,0,0,1-2.82,1.1,3.33,3.33,0,0,1-2.36-1,3.6,3.6,0,0,1,0-5.1,3.33,3.33,0,0,1,2.36-1,4.85,4.85,0,0,1,2.82,1.1,43.6,43.6,0,0,1,3.24,3.08A42.7,42.7,0,0,0,27,35.83,6.44,6.44,0,0,0,31,37.33a5.11,5.11,0,0,0,3.66-1.57,5.43,5.43,0,0,0,0-7.68Z"/></svg>