<svg id="Layer_1" data-name="Layer 1" xmlns="http://www.w3.org/2000/svg" viewBox="0 0 81.36 52.81">
  <defs>
    <style>
      .cls-1, .cls-2 {
        font-size: 16px;
        fill: #2aace2;
      }

      .cls-1 {
        font-family: HelveticaNeueLTStd-BdCn, Helvetica Neue LT Std;
      }

      .cls-2 {
        font-family: HelveticaNeueLTStd-LtCn, Helvetica Neue LT Std;
      }

      .cls-3 {
        fill: #00aeef;
      }
    </style>
  </defs>
  <g>
    <g>
      <text class="cls-1" transform="translate(8.78 24.48)">-20°C</text>
      <text class="cls-2" transform="translate(11.73 39.48)">(-4°F)</text>
    </g>
    <g>
      <path class="cls-3" d="M55.8,5.36H50.74a2.81,2.81,0,0,0-2.88,2.88V44.57a2.8,2.8,0,0,0,2.88,2.88H55.8a2.81,2.81,0,0,0,2.89-2.88V8.24A2.81,2.81,0,0,0,55.8,5.36Zm1.62,24.15H52.14v1.26h5.28V32H54.51v1.26h2.91v1.23H54.51v1.26h2.91V37H52.14v1.26h5.28v1.23H54.51v1.26h2.91v3.84a1.55,1.55,0,0,1-1.62,1.62H50.74a1.53,1.53,0,0,1-1.61-1.62V8.24a1.53,1.53,0,0,1,1.62-1.61h5a1.54,1.54,0,0,1,1.62,1.61v3.84H54.51v1.26h2.91v1.23H52.14v1.26h5.28v1.23H54.51v1.26h2.91v1.23H54.51v1.26h2.91V22H52.14V23.3h5.28v1.23H54.51v1.26h2.91V27H54.51v1.26h2.91Z"/>
      <polygon class="cls-3" points="72.58 27.8 70.2 27.8 71.72 29.31 70.83 30.2 68.42 27.8 62.72 27.8 66.58 31.67 68.17 31.39 68.39 32.63 67.67 32.76 69.16 34.25 68.27 35.14 66.83 33.71 66.83 34.4 65.56 34.4 65.56 32.44 61.85 28.74 61.85 33.95 63.98 36.07 63.08 36.97 61.85 35.74 61.85 37.53 60.59 37.53 60.59 15.38 61.85 15.38 61.85 17.84 63.16 16.53 64.06 17.42 61.85 19.63 61.85 25.68 65.56 21.98 65.56 20.02 66.83 20.02 66.83 20.71 68.27 19.28 69.16 20.18 67.67 21.66 68.39 21.79 68.17 23.03 66.58 22.75 62.8 26.53 68.39 26.53 70.83 24.1 71.72 24.99 70.17 26.53 72.58 26.53 72.58 27.8"/>
    </g>
  </g>
</svg>
