<svg id="Layer_1" data-name="Layer 1" xmlns="http://www.w3.org/2000/svg" viewBox="0 0 48.91 52.81"><defs><style>.cls-1,.cls-2{fill:#231f20;}.cls-2{font-size:6.9px;font-family:FuturaPT-Bold, Futura PT;font-weight:700;}</style></defs><polygon class="cls-1" points="29.2 13.79 29.66 13.81 29.89 13.16 30.3 13.59 30.89 13.04 31.08 13.85 31.66 13.72 31.44 14.44 31.75 14.7 31.33 15.06 32.28 14.66 31.8 14.34 32.14 13.39 31.28 13.55 31.2 12.25 30.35 13.25 29.75 12.55 29.49 13.57 28.87 13.51 29.18 14.11 29.2 13.79"/><path class="cls-1" d="M10,5.05v14.8a21.41,21.41,0,0,0,1.92,7.35A22.54,22.54,0,0,0,24,38.83l.38.16.37-.17a25,25,0,0,0,11.51-10,18.28,18.28,0,0,0,2.68-9V5.05ZM28.41,25.39V23.21a.63.63,0,0,1,.63-.63h1a.63.63,0,0,1,.63.63v2.18Zm8.68-5.55a16.59,16.59,0,0,1-2.43,8,20.34,20.34,0,0,1-3.53,4.46,14.09,14.09,0,0,0,.8-1.77L31.08,26V22.9a.72.72,0,0,0,0-.13.34.34,0,0,0-.06-.15.86.86,0,0,0-.19-.28,1.3,1.3,0,0,0-.37-.16l-.88,0h-.79a.57.57,0,0,0-.22.07.86.86,0,0,0-.49.74l0,1.1-.1,4.38-.11-4.38,0-1.1a1.12,1.12,0,0,1,.61-1,.77.77,0,0,1,.3-.11,1.09,1.09,0,0,1,.3,0l.55,0h.51l.05-.1.07-.11,1.73-3.06.22-.4.23-.41a1.92,1.92,0,0,0,.18-.48.65.65,0,0,0,0-.31c0-.12-.44-.37-.52-.44a1.38,1.38,0,0,0-.25-.19l.15-.26-.73-.43A1.19,1.19,0,0,0,29.6,16l-1.51,2.63.33.19-1.54,2.49L25.26,24l-.4.66c-.13.22-.27.42-.4.68a2,2,0,0,0-.09,1.64l.51,1.93.26,1,.12.49a4.21,4.21,0,0,1,.12.48,3.32,3.32,0,0,1,.08.94,2.84,2.84,0,0,1-.18.92,1.8,1.8,0,0,1-.08.21l-.06.1-.06.11-.25.43-.49.88-1.14,2a20.29,20.29,0,0,1-9.61-9.95l.73-.72,8.07-9.17c1.17-1.34,1.89-1.1,1.89-1.1a1,1,0,0,0,.29.82L26,17.53c.56.54.82.06.82.06l1.82-2.38c.53-.61.05-.87.05-.87l-.88-.8a.78.78,0,0,0-.83-.26l-.19-.65L23.68,10c-2.95-2.56-5.88.15-5.88.15s-.46.48-.38.76.79.13.79.13,2.21,0,2.6,1.35-1.27,2.88-1.27,2.88l-7.15,7.85c-.14-.52-.24-1-.31-1.39-.12-.6-.18-1.09-.22-1.43,0-.16,0-.29,0-.38v-13H37.09Zm-8.55-1.38,1.36-2.35a.73.73,0,0,1,1-.27l.5.29-1.72,3Z"/><text class="cls-2" transform="translate(13.27 45.97)">CRUSH</text></svg>