<svg id="Layer_1" data-name="Layer 1" xmlns="http://www.w3.org/2000/svg" viewBox="0 0 48.91 52.81">
  <defs>
    <style>
      .cls-1 {
        font-size: 18.84px;
      }

      .cls-1, .cls-2, .cls-3, .cls-4 {
        fill: #231f20;
      }

      .cls-1, .cls-2, .cls-4 {
        font-family: FuturaPT-Bold, Futura PT;
        font-weight: 700;
      }

      .cls-2 {
        font-size: 6.9px;
      }

      .cls-4 {
        font-size: 6.33px;
      }
    </style>
  </defs>
  <text class="cls-1" transform="translate(18.68 30.3)">0</text>
  <text class="cls-2" transform="translate(18.03 45.89)">CUT</text>
  <path class="cls-3" d="M24,38.74A22.38,22.38,0,0,1,11.94,27.18,21.61,21.61,0,0,1,10,19.86V5.13H38.88V19.85a18.18,18.18,0,0,1-2.67,8.93,24.91,24.91,0,0,1-11.45,9.95l-.37.17ZM11.89,19.8v.09a3.29,3.29,0,0,0,0,.38,14.08,14.08,0,0,0,.21,1.43,21.08,21.08,0,0,0,1.5,4.71A20.36,20.36,0,0,0,24.35,36.87a22.93,22.93,0,0,0,10.26-9,16.43,16.43,0,0,0,2.41-8V7H11.89Z"/>
  <text class="cls-4" transform="translate(16.77 14.08)">ANSI</text>
</svg>
