<svg id="Layer_1" data-name="Layer 1" xmlns="http://www.w3.org/2000/svg" viewBox="0 0 77.5 48.22"><defs><style>.cls-1{fill:#231f20;}.cls-2{fill:#f9c20a;}</style></defs><path class="cls-1" d="M15.26,13.4a5.2,5.2,0,0,0-1.43.31V18a6.28,6.28,0,0,0,1.43.31.94.94,0,0,0,1-1V14.43A.94.94,0,0,0,15.26,13.4Zm.21,3.79a.29.29,0,0,1-.33.33,2.23,2.23,0,0,1-.53-.1V14.31a2.23,2.23,0,0,1,.53-.1.29.29,0,0,1,.33.33Z"/><path class="cls-1" d="M24.56,12.62c-.83,0-1.32.32-1.32,1.16v4.14c0,.87.45,1.24,1.32,1.2s1.29-.36,1.29-1.3v-4C25.85,13,25.45,12.66,24.56,12.62Zm.4,5.22c0,.25-.09.38-.4.39s-.41-.13-.41-.39V13.9c0-.26.08-.41.41-.4s.4.15.4.4Z"/><path class="cls-1" d="M34.16,15.86c0,.6-.58,1.15-1.59,1.63V14.23C33.58,14.71,34.16,15.27,34.16,15.86Z"/><path class="cls-1" d="M10.84,15.86c0,.6.58,1.15,1.59,1.63V14.24C11.42,14.71,10.84,15.27,10.84,15.86Z"/><path class="cls-1" d="M18.54,17.7c0,.25-.08.4-.4.37s-.38-.17-.38-.47V12.9L16.9,13v4.75c0,.76.37,1.05,1.24,1.15a1,1,0,0,0,1.29-1.15v-5l-.89.07Z"/><path class="cls-1" d="M28.32,16.14l-1-3.21-.85-.1V18.9l.86-.09-.07-3.58,1,3.44c.22,0,.55-.09.76-.14V13.2l-.82-.14Z"/><path class="cls-1" d="M21.36,12.65l-1.24,0V19l.89,0V16.92h.35c.93,0,1.32-.42,1.32-1.22V13.83C22.68,13.05,22.24,12.65,21.36,12.65Zm.42,3c0,.27-.09.41-.45.41H21V13.55h.3c.39,0,.47.15.47.42Z"/><path class="cls-1" d="M29.52,14.13l.65.13v4l.79-.21V14.45l.65.18v-.78a15.69,15.69,0,0,0-2.09-.56Z"/><path class="cls-1" d="M33.35,17.9h-.14v-.08h.37v.08h-.14v.39h-.09Zm.34-.08h.09l.14.22.15-.22h.09v.47h-.09V18l-.14.22h0L33.77,18v.33h-.08Z"/><path class="cls-1" d="M33,35a8.13,8.13,0,0,1-3.25.64,4.7,4.7,0,0,1-5-5c0-3,1.88-5,4.61-5a3.91,3.91,0,0,1,4,4.22,13.33,13.33,0,0,1-.07,1.41H27.4A2.32,2.32,0,0,0,30,33.45a6.58,6.58,0,0,0,2.58-.54Zm-5.63-5.24h3.53v-.22a1.59,1.59,0,0,0-1.58-1.8C28.23,27.71,27.53,28.47,27.36,29.73Z"/><path class="cls-1" d="M39.07,33.32a16.91,16.91,0,0,0,2-7.43H43.6a21.09,21.09,0,0,1-3.1,9.49H37.66a19.25,19.25,0,0,1-3.13-9.49h2.59A17.92,17.92,0,0,0,39.07,33.32Z"/><path class="cls-1" d="M47.8,31.94c0,1,.27,1.55,1,1.55a2.42,2.42,0,0,0,.54-.06l.18,2a8,8,0,0,1-1.3.15c-2.13,0-3-1.4-3-3.63V22.06l2.56-.15Z"/><path class="cls-1" d="M54.27,35.61c-2.54,0-3.83-1.25-3.83-2.92,0-1.84,1.51-2.92,3.74-2.94a12.18,12.18,0,0,1,1.65.15v-.45c0-1.13-.65-1.67-1.89-1.67a6.41,6.41,0,0,0-2.45.45l-.47-2a9.32,9.32,0,0,1,3.22-.56c2.73,0,4.08,1.45,4.08,4v5.17A9.29,9.29,0,0,1,54.27,35.61Zm1.56-2.1v-2a5.74,5.74,0,0,0-1.32-.15c-.85,0-1.52.33-1.52,1.21s.56,1.19,1.54,1.19A3,3,0,0,0,55.83,33.51Z"/><path class="cls-1" d="M64.59,25.66a7.72,7.72,0,0,1,1.67.17l-.37,2.1a3.49,3.49,0,0,0-1.1-.15,3.37,3.37,0,0,0-1.54.32v7.28H60.69v-8.9A9.55,9.55,0,0,1,64.59,25.66Z"/><path class="cls-1" d="M65.83,34a.82.82,0,1,1,0,1.64.82.82,0,0,1,0-1.64Zm0,.17a.65.65,0,0,0,0,1.3.65.65,0,0,0,0-1.3Zm-.3.21h.29c.23,0,.34.11.34.28a.24.24,0,0,1-.17.24,2,2,0,0,0,.22.32H66a1.6,1.6,0,0,1-.19-.29h-.09v.29h-.19Zm.19.16v.24h.1c.11,0,.16,0,.16-.12s0-.12-.16-.12Z"/><path class="cls-1" d="M13.83,22.37h2.66v13H13.83Z"/><polygon class="cls-2" points="24.34 22.38 21.2 22.38 16.49 28.34 22.05 35.39 25.19 35.39 19.63 28.34 24.34 22.38"/></svg>