<svg id="Layer_1" data-name="Layer 1" xmlns="http://www.w3.org/2000/svg" viewBox="0 0 82.04 52.81">
  <defs>
    <style>
      .cls-1 {
        font-size: 6.48px;
        font-family: HelveticaNeueLTStd-Bd, Helvetica Neue LT Std;
      }

      .cls-1, .cls-2 {
        fill: #231f20;
      }
    </style>
  </defs>
  <g>
    <g>
      <text class="cls-1" transform="translate(18.79 46.75)">0000</text>
      <path class="cls-2" d="M57.49,17a1.24,1.24,0,1,1-1.23-1.24A1.24,1.24,0,0,1,57.49,17"/>
    </g>
    <polygon class="cls-2" points="57.42 23.71 57.42 19.14 53.78 19.14 53.78 19.9 55.02 19.9 55.02 23.71 53.78 23.71 53.78 24.47 58.68 24.47 58.68 23.71 57.42 23.71"/>
    <path class="cls-2" d="M61,28.24a7.88,7.88,0,0,1-2.6-1A7.64,7.64,0,0,0,54.52,26h0a6.09,6.09,0,0,0-3.06.89V13.83A6.4,6.4,0,0,1,55,12.62a5.29,5.29,0,0,1,2.88.87,5.67,5.67,0,0,0,3,1h0ZM47.49,26a7.75,7.75,0,0,0-3.83,1.26,7.83,7.83,0,0,1-2.61,1V14.49h0a5.7,5.7,0,0,0,3-1A5.23,5.23,0,0,1,47,12.62a6.08,6.08,0,0,1,2.69.67,6.32,6.32,0,0,1,.78.47l.11.07V26.9a6.13,6.13,0,0,0-3.06-.9m13.8-12.45a1.82,1.82,0,0,1-.37,0,4.79,4.79,0,0,1-2.53-.86,6.18,6.18,0,0,0-3.36-1A7.26,7.26,0,0,0,51,13a7.2,7.2,0,0,0-4-1.33,6.18,6.18,0,0,0-3.35,1,4.79,4.79,0,0,1-2.53.86l-.3,0h-.08l-.56-.15V29.18h.47a7.61,7.61,0,0,0,3.49-1.14,6.78,6.78,0,0,1,3.38-1.13,5.46,5.46,0,0,1,3.06,1l.19.13.26.18.26-.18.2-.13a5.46,5.46,0,0,1,3.06-1,6.78,6.78,0,0,1,3.38,1.13,7.61,7.61,0,0,0,3.49,1.14h.47V13.4Z"/>
    <polygon class="cls-2" points="17.07 6.15 17.07 10.72 20.19 10.72 20.19 9.96 18.04 9.96 18.04 8.73 19.99 8.73 19.99 7.98 18.04 7.98 18.04 6.9 20.12 6.9 20.12 6.15 17.07 6.15"/>
    <polygon class="cls-2" points="24.04 6.15 24.04 9.74 22.32 6.15 20.91 6.15 20.91 10.72 21.83 10.72 21.83 6.93 23.6 10.72 24.95 10.72 24.95 6.15 24.04 6.15"/>
    <g>
      <path class="cls-2" d="M26.47,9.52a.54.54,0,0,0,.56.59.56.56,0,0,0,.57-.61c0-.65-.62-.65-1.08-.65V8.11c.44,0,1.09,0,1.09-.65a.51.51,0,0,0-.54-.53.53.53,0,0,0-.54.55h-1a1.27,1.27,0,0,1,.26-.74,1.53,1.53,0,0,1,1.23-.49c1.12,0,1.48.72,1.48,1.2a1,1,0,0,1-.85,1,1.32,1.32,0,0,1,.53.27,1,1,0,0,1,.36.79,1.43,1.43,0,0,1-1.6,1.3,1.89,1.89,0,0,1-1.06-.29,1.29,1.29,0,0,1-.4-1Z"/>
      <path class="cls-2" d="M31.25,7.48a.55.55,0,0,0-.59-.55.54.54,0,0,0-.57.55.54.54,0,0,0,.56.57.57.57,0,0,0,.6-.57m0,2a.62.62,0,0,0-.63-.64.66.66,0,1,0,.63.64m-2.14-2a1.35,1.35,0,0,1,1.53-1.23c.88,0,1.49.51,1.49,1.2a1,1,0,0,1-.86,1,1.16,1.16,0,0,1,.7.46,1,1,0,0,1,.21.65c0,.81-.75,1.29-1.62,1.29A1.37,1.37,0,0,1,29.08,9.5a1,1,0,0,1,.32-.77A1.21,1.21,0,0,1,30,8.41a1,1,0,0,1-.84-1"/>
      <path class="cls-2" d="M34.76,7.48a.55.55,0,0,0-.59-.55.54.54,0,0,0-.57.55.55.55,0,0,0,.56.57.57.57,0,0,0,.6-.57m0,2a.63.63,0,1,0-.63.67.62.62,0,0,0,.63-.67m-2.14-2a1.35,1.35,0,0,1,1.53-1.23c.88,0,1.49.51,1.49,1.2a1,1,0,0,1-.86,1,1.16,1.16,0,0,1,.7.46,1,1,0,0,1,.21.65c0,.81-.76,1.29-1.62,1.29A1.38,1.38,0,0,1,32.58,9.5a1,1,0,0,1,.33-.77,1.21,1.21,0,0,1,.58-.32,1,1,0,0,1-.84-1"/>
      <path class="cls-2" d="M25.54,26.17H21.33V20.86h1.79A1.43,1.43,0,0,0,24,20.6a1.62,1.62,0,0,0,.63-1.4V17.29a.4.4,0,0,1,0-.15l0,0a.34.34,0,0,1,.17,0h.73ZM34.93,22V20.83H26.59V16.05H24.83a1.44,1.44,0,0,0-.67.15,1.15,1.15,0,0,0-.53.62,1.5,1.5,0,0,0-.08.47V19.2c0,.42-.12.49-.19.55a.51.51,0,0,1-.24.08H20.29V27.2h6.28V24.32h8.35V23.2H26.58V22Z"/>
    </g>
    <rect class="cls-2" x="18.05" y="27.89" width="10.89" height="1.99"/>
    <g>
      <path class="cls-2" d="M15.15,24.06a2.5,2.5,0,0,0,0,.32c0,.29.08.71.18,1.23a18.33,18.33,0,0,0,1.28,4,17.52,17.52,0,0,0,9.27,9,19.73,19.73,0,0,0,8.87-7.77A14.48,14.48,0,0,0,36.85,24V12.91H15.15V24.06M25.7,39.81a18.67,18.67,0,0,1-10.11-9.69A17.62,17.62,0,0,1,14,24h0V11.76H38V24a15.45,15.45,0,0,1-2.23,7.46,20.89,20.89,0,0,1-9.61,8.34l-.23.11Z"/>
      <path class="cls-2" d="M59.4,32.3a4.77,4.77,0,0,1,.66.05V30.08a6.79,6.79,0,0,0-.78,0,6.63,6.63,0,1,0,0,13.25,6.81,6.81,0,0,0,.78,0V41.16a4.77,4.77,0,0,1-.66.05,4.44,4.44,0,0,1-4.31-3.36h3.48V35.66H55.09A4.44,4.44,0,0,1,59.4,32.3"/>
      <path class="cls-2" d="M48.7,41.21a4.46,4.46,0,0,1,0-8.91,4.89,4.89,0,0,1,.66.05V30.08a6.85,6.85,0,0,0-.79,0,6.63,6.63,0,0,0,0,13.25,6.84,6.84,0,0,0,.79,0V41.16a4.89,4.89,0,0,1-.66.05"/>
    </g>
  </g>
</svg>
