<svg id="Layer_1" data-name="Layer 1" xmlns="http://www.w3.org/2000/svg" viewBox="0 0 98 52.81">
  <defs>
    <style>
      .cls-1 {
        fill: #231f1f;
      }

      .cls-2 {
        fill: #040505;
      }

      .cls-3 {
        font-size: 7px;
        fill: #231f20;
        font-family: HelveticaNeueLTStd-Bd, Helvetica Neue LT Std;
      }
    </style>
  </defs>
  <g>
    <g>
      <g>
        <g>
          <polyline class="cls-1" points="57.36 5.23 60.49 5.23 60.49 6 58.36 6 58.36 7.11 60.35 7.11 60.35 7.87 58.36 7.87 58.36 9.14 60.56 9.14 60.56 9.91 57.36 9.91 57.36 5.23"/>
          <polyline class="cls-1" points="61.3 5.23 62.75 5.23 64.5 8.92 64.5 5.23 65.43 5.23 65.43 9.91 64.05 9.91 62.24 6.03 62.24 9.91 61.3 9.91 61.3 5.23"/>
          <path class="cls-1" d="M66,8.93V8.06l1.81-2.67h1v2.8h.61v.74h-.61v1h-1v-1H66m.72-.73h1.14V7c0-.06,0-.38,0-.5Z"/>
          <path class="cls-1" d="M71.28,5.33a1.4,1.4,0,0,1,1.18.59,2.74,2.74,0,0,1,.4,1.64c0,1-.24,2.43-1.59,2.43-1.16,0-1.56-1.12-1.56-2.32,0-.61.12-2.34,1.57-2.34m.5,1.27c0-.12-.14-.52-.49-.52a.49.49,0,0,0-.45.39,4.78,4.78,0,0,0-.15,1.26c0,.77.12,1.49.6,1.49s.6-.88.6-1.5A5.38,5.38,0,0,0,71.78,6.6Z"/>
          <polyline class="cls-1" points="73.3 5.4 76.36 5.4 76.36 6.2 74.81 9.91 73.73 9.91 75.38 6.15 73.3 6.15 73.3 5.4"/>
        </g>
        <g>
          <polyline class="cls-2" points="57.36 5.23 60.49 5.23 60.49 6 58.36 6 58.36 7.11 60.35 7.11 60.35 7.87 58.36 7.87 58.36 9.14 60.56 9.14 60.56 9.91 57.36 9.91 57.36 5.23"/>
          <polyline class="cls-2" points="61.3 5.23 62.75 5.23 64.5 8.92 64.5 5.23 65.43 5.23 65.43 9.91 64.05 9.91 62.24 6.03 62.24 9.91 61.3 9.91 61.3 5.23"/>
          <path class="cls-2" d="M66,8.93V8.06l1.81-2.67h1v2.8h.61v.74h-.61v1h-1v-1H66m.72-.73h1.14V7c0-.06,0-.38,0-.5Z"/>
          <path class="cls-2" d="M71.28,5.33a1.4,1.4,0,0,1,1.18.59,2.74,2.74,0,0,1,.4,1.64c0,1-.24,2.43-1.59,2.43-1.16,0-1.56-1.12-1.56-2.32,0-.61.12-2.34,1.57-2.34m.5,1.27c0-.12-.14-.52-.49-.52a.49.49,0,0,0-.45.39,4.78,4.78,0,0,0-.15,1.26c0,.77.12,1.49.6,1.49s.6-.88.6-1.5A5.38,5.38,0,0,0,71.78,6.6Z"/>
          <polyline class="cls-2" points="73.3 5.4 76.36 5.4 76.36 6.2 74.81 9.91 73.73 9.91 75.38 6.15 73.3 6.15 73.3 5.4"/>
        </g>
      </g>
      <g>
        <path class="cls-1" d="M66.56,39a18.51,18.51,0,0,1-10-9.59A17.58,17.58,0,0,1,55,23.35h0V11.23H78.75V23.36a15.35,15.35,0,0,1-2.21,7.38A20.74,20.74,0,0,1,67,39l-.23.1-.24-.1M56.12,23.41c0,.07,0,.18,0,.32s.09.7.18,1.21a18.43,18.43,0,0,0,1.27,4,17.36,17.36,0,0,0,9.19,8.91,19.42,19.42,0,0,0,8.77-7.7,14.16,14.16,0,0,0,2.06-6.8v-11H56.11v11A.44.44,0,0,0,56.12,23.41Z"/>
        <path class="cls-1" d="M65.18,32.09s-4.73.37-5.06-4.46a13.61,13.61,0,0,0,.16-3c.44.27.87.49.87.49a4.53,4.53,0,0,1,.53-2.37,2,2,0,0,0,0-1.45s.65.27.7.54c.27-.7,1.22-2,1.4-2.69a1.81,1.81,0,0,0,.16-1s.75.49.75.76c.74-1.51,1.28-1.71,1.62-2.59A7.12,7.12,0,0,0,66.47,14c.1.64,2.15,2,2.52,3.23a14.5,14.5,0,0,1,.17,2.41,1.8,1.8,0,0,0,1.07-1.39c.22.64,1.78,2.85,1.78,4.24a.73.73,0,0,0,.48-.75A9,9,0,0,1,73.24,27c.22-.32.92-.43.92-.43a5.38,5.38,0,0,0-.81,1.51c-.23.57-2.31,4.14-5.43,4,1.79-.72,3.7-4,3.66-7.09-.4.18-.72,0-1.27.28s-.78.57-.78.57a5,5,0,0,0,.59-2.25c-.05-1.08-.1-1.94-.1-1.94a4.45,4.45,0,0,1-1.67,1.61,4.13,4.13,0,0,0,0-3.22c0,.7-.24,1.18-1.29,2a13.22,13.22,0,0,0-1.24,1.45,3.07,3.07,0,0,1-1.45-2c-.54,2.15-.86,3.71,0,5.6-.43-.33-1.13-.38-1.34-1.35A3.36,3.36,0,0,0,63,27.79a2.56,2.56,0,0,1-.91-.54s-.11,3.82,3.12,4.84"/>
        <rect class="cls-1" x="63.32" y="32.76" width="7.64" height="1.45"/>
      </g>
      <text class="cls-3" transform="translate(52.85 46.06)">XXXXXX</text>
    </g>
    <g>
      <g>
        <path class="cls-1" d="M28.69,39a18.51,18.51,0,0,1-10-9.59,18,18,0,0,1-1.59-6.07h0V11.23H40.87V23.36a15.24,15.24,0,0,1-2.21,7.38A20.69,20.69,0,0,1,29.15,39l-.23.1-.23-.1M18.24,23.41a2.5,2.5,0,0,0,0,.32c0,.29.08.7.18,1.21a18.43,18.43,0,0,0,1.27,4,17.33,17.33,0,0,0,9.18,8.91,19.51,19.51,0,0,0,8.78-7.7,14.24,14.24,0,0,0,2-6.8v-11H18.23v11S18.24,23.36,18.24,23.41Z"/>
        <text class="cls-3" transform="translate(21.98 46.06)">XXX</text>
      </g>
      <g>
        <path class="cls-1" d="M20.31,5.65h3V6.5H21.41v.92h1.8v.84h-1.8V9.2h2v.86H20.31Z"/>
        <path class="cls-1" d="M24,5.64h1.53L26.9,8.93V5.64h1v4.42h-1.5L25,6.63v3.43H24Z"/>
        <path class="cls-1" d="M29.6,8.85a.45.45,0,0,0,.48.48.44.44,0,0,0,.44-.27,1.13,1.13,0,0,0,.08-.45c0-.34-.12-.66-.49-.66a.41.41,0,0,0-.44.37H28.6l.08-2.49h2.78v.83H29.64l-.06,1a.88.88,0,0,1,.4-.4,1,1,0,0,1,.51-.12c.56,0,1.2.37,1.2,1.4a1.77,1.77,0,0,1-.42,1.18,1.57,1.57,0,0,1-1.14.4,1.76,1.76,0,0,1-1.31-.48,1.21,1.21,0,0,1-.28-.82Z"/>
        <path class="cls-1" d="M33.51,6.91a2.65,2.65,0,0,1-.94.52V6.49a2.54,2.54,0,0,0,1.11-.68h.9v4.25H33.51Z"/>
        <path class="cls-1" d="M36.58,6.91a2.73,2.73,0,0,1-.94.52V6.49a2.54,2.54,0,0,0,1.11-.68h.9v4.25H36.58Z"/>
      </g>
      <path class="cls-1" d="M35.52,25.71l-.75-1.25-1,.56V22.93l1,.56.75-1.25-1.07-.6,2.4-1.15-.66-1.3-2.41,1.16v-1H32.29v1.1l-1.82-1,1-.54-.74-1.25-1,.58V15.43H28.17v2.69l-.89-.5-.75,1.25,1,.54-1.83,1v-1.1H24.19v1l-2.42-1.16-.66,1.3,2.41,1.15-1.07.6.74,1.25,1-.56V25l-1-.56-.74,1.25,1,.54-2.3,1.11.66,1.29,2.42-1.16v1.16h1.48V27.52l1.83,1-1,.54.75,1.25.89-.5v2.7h1.49V29.76l1,.57.74-1.25-1-.54,1.82-1v1.13h1.49V27.49l2.41,1.16.66-1.29-2.3-1.11M29,27.71l-3.31-1.86V22.1L29,20.24l3.31,1.86v3.76Z"/>
    </g>
  </g>
</svg>
