<svg id="Layer_1" data-name="Layer 1" xmlns="http://www.w3.org/2000/svg" viewBox="0 0 99.66 52.81"><defs><style>.cls-1{fill:#231f20;}</style></defs><path class="cls-1" d="M28.8,18.74H39.59v2.83H32.18v3.55H38.6v2.62H32.18v6.34H28.8Z"/><path class="cls-1" d="M41.55,18.74h6.61c4,0,7,2.49,7,7.58,0,4.45-2.28,7.76-7,7.76H41.55Zm3.37,12.5h3c2,0,3.82-1.2,3.82-4.6,0-3.09-1.07-5.07-4.42-5.07H44.92Z"/><path class="cls-1" d="M61.66,18.74h3.46l5.74,15.34H67.35l-1.16-3.42H60.46l-1.21,3.42H55.84Zm-.32,9.41h4l-1.93-5.63h0Z"/></svg>