<svg id="Layer_1" data-name="Layer 1" xmlns="http://www.w3.org/2000/svg" viewBox="0 0 48.45 62.6"><defs><style>.cls-1{fill:#424143;}</style></defs><path class="cls-1" d="M23.74,53.19a5,5,0,0,1-5-5V36.33a1,1,0,0,1,1-1,7,7,0,0,0,6.94-6.94V13.53H8.87V28.4a7,7,0,0,0,6.94,6.94,1,1,0,0,1,1,1v11.9a5,5,0,0,1-5,5,1,1,0,0,1,0-2,3,3,0,0,0,3-3v-11A9,9,0,0,1,6.88,28.4V12.53a1,1,0,0,1,1-1H27.71a1,1,0,0,1,1,1V28.4a9,9,0,0,1-7.93,8.87v11a3,3,0,0,0,3,3,1,1,0,0,1,0,2Z"/><path class="cls-1" d="M35.64,53.19a1,1,0,0,1-1-1V30.38a1,1,0,0,1,1-1,3,3,0,0,0,3-3V12.53a1,1,0,0,1,2,0V26.42a5,5,0,0,1-4,4.85V52.19A1,1,0,0,1,35.64,53.19Z"/><path class="cls-1" d="M35.64,25.42a1,1,0,0,1-1-1V12.53a1,1,0,0,1,2,0v11.9A1,1,0,0,1,35.64,25.42Z"/><path class="cls-1" d="M31.67,25.42a1,1,0,0,1-1-1V12.53a1,1,0,0,1,2,0v11.9A1,1,0,0,1,31.67,25.42Z"/></svg>