<svg id="Layer_1" data-name="Layer 1" xmlns="http://www.w3.org/2000/svg" viewBox="0 0 48.45 62.6"><defs><style>.cls-1{fill:#666;}.cls-2{fill:#fff;}</style></defs><path class="cls-1" d="M23.12,41a15,15,0,0,1-4.35-.84l-1.28-.46V37a10.93,10.93,0,0,1-2.22-4.34c-.69-2.73,1.17-13,1.17-13L17.87,19,18,17.2l2.73-1.55.59-2.06h4.88l.42,1.4,2.24,1.27,1,8.69a4.19,4.19,0,0,1,1.84-.42,4.62,4.62,0,0,1,3,1.19l1.43,1.21-1.17,1.46a36.43,36.43,0,0,0-3.88,6c-.79,1.46-1.36,2.51-2.47,3l-.28.12v2.1l-1.12.52a10.87,10.87,0,0,1-4.06.9Z"/><path class="cls-2" d="M28.68,28.67l-3.1.49L28,27.26l-.42-9.48L25.7,16.71l-.32,8.91h-.22l-.49-10.11H22.61l-.49,10.11H21.9l-.3-8.28-1.78,1-.37,8h-.22L19,20.58l-1.23.63s-1.21,8.5-.59,11a9.05,9.05,0,0,0,2.29,4.06v2.09a13.18,13.18,0,0,0,3.7.73,8.9,8.9,0,0,0,3.25-.73V36.27l1.42-.65c1.15-.52,1.72-3.51,5.64-8.43C30.72,24.9,28.68,28.67,28.68,28.67Z"/><path class="cls-1" d="M18.79,46.37a11,11,0,0,0,2-1.15h1.42v7.67H20.58v-6a8.57,8.57,0,0,1-1.79,1Z"/><path class="cls-1" d="M26.29,45.11a2.36,2.36,0,0,1,2,1A4.58,4.58,0,0,1,29,48.89c0,1.78-.41,4.12-2.72,4.12-2,0-2.65-1.89-2.65-3.93C23.61,48.05,23.82,45.11,26.29,45.11Zm.84,2.16c0-.21-.23-.89-.83-.89a.84.84,0,0,0-.76.66,8.31,8.31,0,0,0-.25,2.15c0,1.3.19,2.52,1,2.52s1-1.49,1-2.55A8.87,8.87,0,0,0,27.13,47.27Z"/></svg>