<svg id="Layer_1" data-name="Layer 1" xmlns="http://www.w3.org/2000/svg" viewBox="0 0 48.45 62.6"><defs><style>.cls-1{fill:#808285;}.cls-2{fill:#666;}.cls-3{fill:#fff;}</style></defs><polygon class="cls-1" points="23.48 39.66 24.74 41.78 26.09 39.66 27.52 39.66 25.46 42.66 27.64 45.9 26 45.9 24.61 43.55 23.12 45.9 21.68 45.9 23.88 42.67 21.83 39.66 23.48 39.66 23.48 39.66"/><polygon class="cls-1" points="17.06 39.66 18.32 41.78 19.66 39.66 21.1 39.66 19.04 42.66 21.22 45.9 19.58 45.9 18.19 43.55 16.69 45.9 15.26 45.9 17.45 42.67 15.41 39.66 17.06 39.66 17.06 39.66"/><path class="cls-1" d="M29.48,43.91a1,1,0,0,0,1.13,1.18c.72,0,1.18-.35,1.18-.87s-.39-.65-1.18-.84c-1.49-.37-2.3-.81-2.3-1.89s.73-1.94,2.47-1.94a2.32,2.32,0,0,1,1.88.74A1.77,1.77,0,0,1,33,41.44H31.73a.93.93,0,0,0-1-.95c-.62,0-1,.34-1,.85s.46.68,1.36.91c1.08.26,2.14.55,2.14,1.77s-.93,2-2.66,2c-2.39,0-2.41-1.54-2.42-2.14Z"/><path class="cls-2" d="M22.9,35.87a9.2,9.2,0,0,1-2.75-.53l-.8-.29v-1.7a6.81,6.81,0,0,1-1.41-2.74c-.43-1.72.74-8.18.74-8.18l.91-.47.05-1.12,1.72-1,.38-1.31h3.07l.27.89,1.41.8.64,5.49a2.75,2.75,0,0,1,1.16-.27,3,3,0,0,1,1.91.76l.9.76-.74.92a23.09,23.09,0,0,0-2.45,3.77c-.5.92-.86,1.58-1.56,1.9l-.18.08V35l-.71.32a6.7,6.7,0,0,1-2.56.57Z"/><path class="cls-3" d="M26.41,28.08l-2,.31L26,27.19l-.26-6-1.19-.67-.2,5.62h-.14l-.31-6.38h-1.3l-.31,6.38h-.14l-.19-5.23-1.12.64-.24,5h-.14L20.27,23l-.78.4s-.77,5.37-.37,7a5.67,5.67,0,0,0,1.44,2.56V34.2a8.42,8.42,0,0,0,2.34.46A5.69,5.69,0,0,0,25,34.2V32.88l.89-.41c.72-.33,1.09-2.22,3.56-5.33C27.7,25.7,26.41,28.08,26.41,28.08Z"/></svg>