<svg id="Layer_1" data-name="Layer 1" xmlns="http://www.w3.org/2000/svg" viewBox="0 0 48.45 62.6"><defs><style>.cls-1{fill:#666;}.cls-2{fill:#fff;}</style></defs><path class="cls-1" d="M23,38.91a12.72,12.72,0,0,1-3.69-.71l-1.08-.39V35.53a9.34,9.34,0,0,1-1.89-3.67c-.57-2.32,1-11,1-11l1.21-.63.07-1.5,2.31-1.32.5-1.75h4.13l.36,1.19,1.9,1.07.85,7.37A3.58,3.58,0,0,1,30.18,25a3.9,3.9,0,0,1,2.55,1l1.21,1-1,1.23a31.86,31.86,0,0,0-3.29,5.06c-.66,1.23-1.15,2.12-2.08,2.55l-.25.11v1.77l-.95.44a9.09,9.09,0,0,1-3.43.76Z"/><path class="cls-2" d="M27.66,28.46,25,28.87l2-1.6-.35-8-1.59-.9-.28,7.55h-.18l-.42-8.57H22.52l-.42,8.57h-.19l-.25-7-1.51.86-.31,6.74h-.19l-.23-4.85-1,.53s-1,7.2-.51,9.32a7.68,7.68,0,0,0,1.94,3.44v1.77a11.15,11.15,0,0,0,3.14.62,7.47,7.47,0,0,0,2.75-.62V34.9l1.2-.56c1-.44,1.46-3,4.78-7.13C29.38,25.26,27.66,28.46,27.66,28.46Z"/><path class="cls-1" d="M20.47,45.13c0-.93.78-2.14,2.65-2.14,1.54,0,2.6.88,2.6,2.08a1.73,1.73,0,0,1-1.5,1.68,2.07,2.07,0,0,1,1.23.79,2,2,0,0,1,.35,1.14c0,1.41-1.31,2.23-2.81,2.23a2.4,2.4,0,0,1-2.64-2.23,1.79,1.79,0,0,1,.56-1.34,2.39,2.39,0,0,1,1-.57A1.75,1.75,0,0,1,20.47,45.13Zm3.71,3.44a1.07,1.07,0,0,0-1.09-1.11,1.14,1.14,0,0,0,0,2.28A1.08,1.08,0,0,0,24.18,48.57Zm-.05-3.41a1,1,0,0,0-1-1,1,1,0,1,0,0,1.94A1,1,0,0,0,24.13,45.16Z"/></svg>