<svg id="Layer_1" data-name="Layer 1" xmlns="http://www.w3.org/2000/svg" viewBox="0 0 48.45 62.6"><defs><style>.cls-1{fill:#808285;}.cls-2{fill:#666;}.cls-3{fill:#fff;}</style></defs><polygon class="cls-1" points="18.74 42.53 20.92 42.53 22.24 47.07 23.67 42.53 25.79 42.53 25.79 48.77 24.46 48.77 24.46 43.42 22.76 48.77 21.66 48.77 19.99 43.42 19.99 48.77 18.74 48.77 18.74 42.53 18.74 42.53"/><path class="cls-2" d="M21.35,39.06a12.34,12.34,0,0,1-3.69-.72L16.58,38V35.68A9.47,9.47,0,0,1,14.7,32c-.58-2.31,1-11,1-11l1.21-.63.07-1.5,2.31-1.32.51-1.74h4.13L24.27,17l1.9,1.08L27,25.45a3.57,3.57,0,0,1,1.55-.36,3.9,3.9,0,0,1,2.56,1l1.2,1-1,1.23a31.16,31.16,0,0,0-3.29,5.06C27.4,34.65,26.92,35.54,26,36l-.24.11v1.78l-.95.43a9,9,0,0,1-3.44.77Z"/><path class="cls-3" d="M26.06,28.6,23.44,29l2-1.61-.35-8-1.59-.9L23.27,26h-.19l-.42-8.56H20.92L20.5,26h-.18l-.26-7-1.5.86-.32,6.75h-.19l-.23-4.86-1,.54s-1,7.2-.5,9.32a7.72,7.72,0,0,0,1.93,3.44v1.76a11.25,11.25,0,0,0,3.14.62,7.56,7.56,0,0,0,2.76-.62V35.05s.23-.12,1.2-.56,1.45-3,4.77-7.14C27.79,25.41,26.06,28.6,26.06,28.6Z"/></svg>