<svg id="Layer_1" data-name="Layer 1" xmlns="http://www.w3.org/2000/svg" viewBox="0 0 48.45 62.6"><defs><style>.cls-1{fill:#666;}.cls-2{fill:#fff;}</style></defs><path class="cls-1" d="M22.74,37a10.48,10.48,0,0,1-3.08-.6l-.9-.32V34.16a7.78,7.78,0,0,1-1.58-3.07c-.48-1.93.83-9.17.83-9.17l1-.53.06-1.25L21,19l.43-1.46h3.44l.3,1,1.59.9.71,6.15a3.07,3.07,0,0,1,1.3-.3,3.24,3.24,0,0,1,2.14.85l1,.85-.82,1a26.17,26.17,0,0,0-2.75,4.23c-.55,1-1,1.77-1.74,2.13l-.2.09V36l-.8.37a7.65,7.65,0,0,1-2.87.64Z"/><path class="cls-2" d="M26.68,28.25l-2.2.35,1.71-1.35-.29-6.71-1.33-.75-.23,6.3h-.15l-.35-7.15H22.38L22,26.09h-.15l-.21-5.86L20.41,21l-.27,5.64H20l-.2-4.06-.87.44s-.86,6-.42,7.79a6.48,6.48,0,0,0,1.62,2.87v1.48a9.31,9.31,0,0,0,2.62.52,6.32,6.32,0,0,0,2.31-.52V33.63l1-.46c.81-.37,1.21-2.49,4-6C28.12,25.58,26.68,28.25,26.68,28.25Z"/><path class="cls-1" d="M23.58,43.1a.75.75,0,0,0-.81-.76c-1.1,0-1.13,1.36-1.15,2.15a2,2,0,0,1,1.5-.61,2.2,2.2,0,0,1,2.2,2.42,2.48,2.48,0,0,1-.81,2,2.64,2.64,0,0,1-2,.72c-2.65,0-2.65-2.57-2.65-3.48,0-1.54.2-3.14,1.25-3.91a3,3,0,0,1,1.77-.53,2,2,0,0,1,2.28,2Zm.13,3.31c0-.84-.44-1.31-1-1.31-.28,0-1.11.16-1.11,1.35,0,.94.5,1.34,1,1.34S23.71,47.46,23.71,46.41Z"/></svg>