<svg id="Layer_1" data-name="Layer 1" xmlns="http://www.w3.org/2000/svg" viewBox="0 0 48.45 62.6"><defs><style>.cls-1{fill:#666;}.cls-2{fill:#fff;}</style></defs><path class="cls-1" d="M23.16,42.35a16.28,16.28,0,0,1-4.75-.92l-1.4-.5V38a12.11,12.11,0,0,1-2.43-4.74c-.75-3,1.28-14.18,1.28-14.18l1.56-.81.1-1.94,3-1.7.66-2.25h5.32l.47,1.53,2.45,1.39,1.1,9.5a4.64,4.64,0,0,1,2-.46,5.05,5.05,0,0,1,3.29,1.3L37.35,27l-1.27,1.6a40.11,40.11,0,0,0-4.25,6.52c-.86,1.6-1.48,2.74-2.69,3.3l-.31.14V40.8l-1.23.56a11.76,11.76,0,0,1-4.44,1Z"/><path class="cls-2" d="M29.25,28.85l-3.4.54,2.65-2.07L28,17,26,15.78l-.35,9.74H25.4l-.54-11H22.61l-.54,11h-.24l-.33-9-1.94,1.11-.41,8.7h-.24L18.61,20l-1.35.68s-1.33,9.3-.64,12a9.86,9.86,0,0,0,2.5,4.44v2.28a14.38,14.38,0,0,0,4,.8,9.67,9.67,0,0,0,3.56-.8V37.17s.3-.15,1.55-.72,1.88-3.84,6.16-9.21C31.47,24.73,29.25,28.85,29.25,28.85Z"/><path class="cls-1" d="M19.43,47.71a10.71,10.71,0,0,0,2-1.15h1.42v7.67H21.22v-6a8.31,8.31,0,0,1-1.79,1Z"/><path class="cls-1" d="M24.5,47.71a10.41,10.41,0,0,0,2-1.15H28v7.67H26.29v-6a8.31,8.31,0,0,1-1.79,1Z"/></svg>