<svg id="Layer_1" data-name="Layer 1" xmlns="http://www.w3.org/2000/svg" viewBox="0 0 48.45 62.6"><defs><style>.cls-1{fill:#808285;}.cls-2{fill:#666;}.cls-3{fill:#fff;}</style></defs><polygon class="cls-1" points="17.64 40.55 18.9 42.67 20.24 40.55 21.68 40.55 19.62 43.55 21.8 46.79 20.16 46.79 18.77 44.44 17.27 46.79 15.84 46.79 18.03 43.56 15.99 40.55 17.64 40.55 17.64 40.55"/><path class="cls-1" d="M23.63,44.79A1,1,0,0,0,24.76,46c.73,0,1.19-.35,1.19-.87s-.39-.65-1.19-.84c-1.48-.37-2.29-.81-2.29-1.89s.73-1.94,2.47-1.94a2.33,2.33,0,0,1,1.88.74,1.79,1.79,0,0,1,.35,1.15H25.89a.93.93,0,0,0-1-.95c-.62,0-1,.34-1,.85s.46.68,1.36.91c1.07.25,2.14.55,2.14,1.77s-.94,2-2.66,2c-2.4,0-2.41-1.54-2.42-2.15Z"/><path class="cls-2" d="M20.37,37.07a10.6,10.6,0,0,1-3.08-.59l-.9-.33v-1.9a7.78,7.78,0,0,1-1.58-3.07c-.48-1.93.83-9.17.83-9.17l1-.53.06-1.25,1.93-1.11.42-1.45h3.45l.3,1,1.58.9.72,6.15a3,3,0,0,1,1.3-.3,3.25,3.25,0,0,1,2.13.84l1,.86-.82,1A25.5,25.5,0,0,0,26,32.36c-.56,1-1,1.78-1.75,2.13l-.2.09v1.49l-.79.36a7.56,7.56,0,0,1-2.87.64Z"/><path class="cls-3" d="M24.3,28.34l-2.19.34,1.71-1.34-.3-6.71-1.32-.76L22,26.18h-.16L21.46,19H20l-.35,7.15H19.5l-.21-5.86L18,21l-.26,5.63h-.16l-.19-4.05-.87.44s-.86,6-.42,7.79a6.37,6.37,0,0,0,1.62,2.87V35.2a9.47,9.47,0,0,0,2.62.51,6.33,6.33,0,0,0,2.3-.51V33.72s.19-.1,1-.46,1.22-2.49,4-6C25.74,25.67,24.3,28.34,24.3,28.34Z"/></svg>