<svg id="Layer_1" data-name="Layer 1" xmlns="http://www.w3.org/2000/svg" viewBox="0 0 48.45 62.6"><defs><style>.cls-1{fill:#808285;}.cls-2{fill:#666;}.cls-3{fill:#fff;}</style></defs><polygon class="cls-1" points="21.58 43.57 22.95 43.57 22.95 48.74 25.62 48.74 25.62 49.81 21.58 49.81 21.58 43.57 21.58 43.57"/><path class="cls-2" d="M21.83,40.09a13.55,13.55,0,0,1-4-.78l-1.18-.42V36.41a10.25,10.25,0,0,1-2.05-4c-.63-2.52,1.08-12,1.08-12L17,19.77l.08-1.64,2.51-1.43.55-1.9h4.49L25,16.09l2.07,1.17.93,8a3.91,3.91,0,0,1,1.7-.4A4.26,4.26,0,0,1,32.48,26L33.8,27.1l-1.08,1.35A34.31,34.31,0,0,0,29.14,34c-.72,1.34-1.25,2.31-2.27,2.78l-.26.12v1.93l-1,.48a10,10,0,0,1-3.74.83Z"/><path class="cls-3" d="M27,28.7l-2.86.46,2.23-1.75-.39-8.75-1.73-1-.29,8.22h-.21l-.45-9.32h-1.9l-.45,9.32H20.7l-.27-7.64-1.64.94-.35,7.34h-.2L18,21.25l-1.14.58S15.73,29.67,16.31,32a8.36,8.36,0,0,0,2.1,3.74v1.92a12.14,12.14,0,0,0,3.42.68,8.11,8.11,0,0,0,3-.68V35.72s.25-.13,1.31-.61,1.58-3.23,5.2-7.77C28.84,25.23,27,28.7,27,28.7Z"/></svg>