<svg id="Layer_1" data-name="Layer 1" xmlns="http://www.w3.org/2000/svg" viewBox="0 0 48.45 62.6"><defs><style>.cls-1{fill:#666;}.cls-2{fill:#fff;}</style></defs><path class="cls-1" d="M22.65,35.78a9.45,9.45,0,0,1-2.74-.53L19.1,35v-1.7a7.15,7.15,0,0,1-1.41-2.74c-.43-1.72.75-8.18.75-8.18l.9-.47.05-1.12,1.72-1,.38-1.3h3.08l.26.89,1.42.8.64,5.49a2.71,2.71,0,0,1,1.16-.27,2.86,2.86,0,0,1,1.9.76l.9.76-.74.92a23.35,23.35,0,0,0-2.45,3.77c-.5.92-.85,1.58-1.56,1.9l-.17.08v1.32l-.71.33a6.83,6.83,0,0,1-2.57.57Z"/><path class="cls-2" d="M26.17,28l-2,.31,1.52-1.2-.26-6-1.18-.68-.21,5.63h-.14l-.31-6.38h-1.3L22,26.06h-.14l-.18-5.23-1.13.64-.23,5H20.2L20,22.88l-.77.4s-.77,5.37-.38,7a5.74,5.74,0,0,0,1.45,2.56v1.32a8.31,8.31,0,0,0,2.33.46,5.62,5.62,0,0,0,2.06-.46V32.79l.89-.42c.73-.32,1.09-2.21,3.56-5.32C27.45,25.6,26.17,28,26.17,28Z"/><path class="cls-1" d="M21.41,46.12a.86.86,0,0,0,.9.86c.6,0,1.13-.43,1.13-1.44,0-.74-.28-1.38-1-1.38a1,1,0,0,0-1,.77l-1.59,0L20,40.35h4.65V41.6h-3.2l-.1,1.9A2,2,0,0,1,22.83,43a2.26,2.26,0,0,1,2.26,2.44,2.61,2.61,0,0,1-2.73,2.78,2.7,2.7,0,0,1-2.15-.83,2,2,0,0,1-.43-1.22Z"/></svg>