<svg id="Layer_1" data-name="Layer 1" xmlns="http://www.w3.org/2000/svg" viewBox="0 0 48.45 62.6"><defs><style>.cls-1{fill:#808285;}.cls-2{fill:#666;}.cls-3{fill:#fff;}</style></defs><path class="cls-1" d="M20.88,45.68A1,1,0,0,0,22,46.86c.72,0,1.18-.35,1.18-.87s-.39-.65-1.18-.84c-1.49-.37-2.3-.81-2.3-1.89s.74-1.94,2.47-1.94a2.32,2.32,0,0,1,1.88.74,1.77,1.77,0,0,1,.36,1.15H23.13a.93.93,0,0,0-1-1c-.62,0-1,.34-1,.85s.46.68,1.36.91c1.08.26,2.14.55,2.14,1.77s-.93,2-2.66,2c-2.39,0-2.41-1.54-2.42-2.14Z"/><path class="cls-2" d="M20.87,38a11.41,11.41,0,0,1-3.36-.65l-1-.35V34.87a8.44,8.44,0,0,1-1.72-3.34c-.53-2.11.91-10,.91-10l1.1-.57.06-1.37L19,18.38l.46-1.6h3.76l.33,1.09,1.73,1,.78,6.71a3.22,3.22,0,0,1,1.41-.33,3.57,3.57,0,0,1,2.33.92l1.1.93L30,28.21a28.55,28.55,0,0,0-3,4.6c-.6,1.13-1,1.94-1.9,2.33l-.22.1v1.62l-.87.4a8.3,8.3,0,0,1-3.13.69Z"/><path class="cls-3" d="M25.17,28.43l-2.4.37,1.87-1.46L24.32,20l-1.45-.83-.25,6.88h-.17l-.38-7.8H20.48l-.38,7.8h-.17l-.23-6.39-1.37.78L18,26.61h-.17l-.21-4.43-.95.49s-.94,6.56-.46,8.49A7,7,0,0,0,18,34.3v1.61a10.27,10.27,0,0,0,2.86.56,6.94,6.94,0,0,0,2.52-.56V34.3s.2-.11,1.09-.51,1.32-2.71,4.35-6.51C26.74,25.51,25.17,28.43,25.17,28.43Z"/></svg>