<svg id="Layer_1" data-name="Layer 1" xmlns="http://www.w3.org/2000/svg" viewBox="0 0 48.45 62.6"><defs><style>.cls-1{fill:#666;}.cls-2{fill:#fff;}</style></defs><path class="cls-1" d="M22.86,37.94a11.25,11.25,0,0,1-3.36-.65l-1-.35V34.86a8.71,8.71,0,0,1-1.72-3.34c-.52-2.11.91-10,.91-10l1.1-.57.07-1.37,2.1-1.2.46-1.6h3.76l.33,1.09,1.73,1L28,25.55a3.26,3.26,0,0,1,1.42-.33,3.55,3.55,0,0,1,2.32.92l1.11.93L32,28.2a27.86,27.86,0,0,0-3,4.6c-.61,1.13-1.05,1.94-1.9,2.33l-.22.1v1.62l-.87.4a8.42,8.42,0,0,1-3.13.69Z"/><path class="cls-2" d="M27.15,28.42l-2.39.37,1.86-1.46L26.3,20l-1.45-.83-.25,6.88h-.16l-.38-7.8H22.47l-.38,7.8h-.17l-.23-6.39-1.38.78L20,26.6h-.17l-.21-4.43-.95.49s-.94,6.56-.45,8.49A7,7,0,0,0,20,34.29V35.9a10.27,10.27,0,0,0,2.86.56,6.93,6.93,0,0,0,2.51-.56V34.29s.21-.11,1.09-.51,1.33-2.71,4.35-6.51C28.72,25.5,27.15,28.42,27.15,28.42Z"/><path class="cls-1" d="M21,42.16h5.19v1.37l-2.63,6.29H21.71l2.8-6.38H21Z"/></svg>