<svg id="Layer_1" data-name="Layer 1" xmlns="http://www.w3.org/2000/svg" viewBox="0 0 48.45 62.6"><defs><style>.cls-1{fill:#666;}.cls-2{fill:#fff;}</style></defs><path class="cls-1" d="M23.19,43.7a17.34,17.34,0,0,1-5.18-1l-1.52-.54V38.94a13.1,13.1,0,0,1-2.65-5.17c-.81-3.25,1.4-15.44,1.4-15.44l1.7-.88.1-2.12,3.25-1.85L21,11h5.8l.51,1.67L30,14.2l1.2,10.36a5,5,0,0,1,2.19-.5A5.48,5.48,0,0,1,37,25.48l1.7,1.44-1.39,1.74a44,44,0,0,0-4.63,7.1c-.94,1.74-1.61,3-2.93,3.59l-.34.16V42L28,42.62a12.79,12.79,0,0,1-4.84,1.08Z"/><path class="cls-2" d="M29.83,29l-3.7.58L29,27.31,28.51,16l-2.23-1.27-.39,10.62h-.26l-.59-12H22.59l-.58,12h-.27l-.35-9.87L19.27,16.7l-.45,9.49h-.26l-.33-6.83-1.47.75s-1.44,10.13-.7,13.11a10.84,10.84,0,0,0,2.72,4.83v2.49a15.82,15.82,0,0,0,4.41.87,10.67,10.67,0,0,0,3.89-.87V38.05s.31-.16,1.68-.78,2-4.18,6.72-10C32.25,24.5,29.83,29,29.83,29Z"/><path class="cls-1" d="M17.67,49.06a10.53,10.53,0,0,0,2-1.16h1.42v7.68H19.46v-6a8.57,8.57,0,0,1-1.79,1Z"/><path class="cls-1" d="M23,54l2-1.82a10.53,10.53,0,0,0,1.15-1.16c.43-.52.53-.76.53-1.11a.89.89,0,0,0-.91-1c-.88,0-1,.9-1,1.12H23.12a2.14,2.14,0,0,1,.45-1.44,2.76,2.76,0,0,1,2.19-.83c1.67,0,2.59.9,2.59,2.08,0,.8-.31,1.82-3.63,4.49,1.11,0,1.25,0,2.11-.05l1.57,0v1.28H23Z"/></svg>