<svg id="Layer_1" data-name="Layer 1" xmlns="http://www.w3.org/2000/svg" viewBox="0 0 48.45 62.6"><defs><style>.cls-1{fill:#808285;}.cls-2{fill:#666;}.cls-3{fill:#fff;}</style></defs><polygon class="cls-1" points="20.48 44.63 21.74 46.75 23.09 44.63 24.52 44.63 22.46 47.63 24.64 50.87 23 50.87 21.61 48.52 20.11 50.87 18.68 50.87 20.88 47.64 18.83 44.63 20.48 44.63 20.48 44.63"/><polygon class="cls-1" points="25.4 44.63 26.77 44.63 26.77 49.81 29.45 49.81 29.45 50.87 25.4 50.87 25.4 44.63 25.4 44.63"/><path class="cls-2" d="M22.3,41.15A14.69,14.69,0,0,1,18,40.31l-1.27-.46V37.16a10.94,10.94,0,0,1-2.23-4.33c-.68-2.74,1.17-13,1.17-13l1.43-.74.09-1.77,2.72-1.56.6-2.06h4.87l.42,1.4L28,16.4l1,8.7a4.26,4.26,0,0,1,1.84-.43,4.6,4.6,0,0,1,3,1.19l1.43,1.21-1.17,1.46a37.56,37.56,0,0,0-3.88,6c-.79,1.46-1.36,2.5-2.46,3l-.29.13v2.09l-1.12.52a10.81,10.81,0,0,1-4.06.9Z"/><path class="cls-3" d="M27.87,28.81l-3.11.49,2.42-1.9-.42-9.48-1.87-1.07-.33,8.91h-.21l-.5-10.1H21.79l-.49,10.1h-.22l-.3-8.28-1.77,1-.38,8h-.22l-.27-5.73-1.23.63s-1.22,8.5-.59,11a9.06,9.06,0,0,0,2.28,4.06V38.5a13.18,13.18,0,0,0,3.7.73,8.92,8.92,0,0,0,3.26-.73V36.42s.27-.14,1.41-.66,1.72-3.51,5.64-8.43C29.9,25,27.87,28.81,27.87,28.81Z"/></svg>