<svg id="Layer_1" data-name="Layer 1" xmlns="http://www.w3.org/2000/svg" viewBox="0 0 48.45 62.6"><defs><style>.cls-1{fill:#808285;}.cls-2{fill:#666;}.cls-3{fill:#fff;}</style></defs><path class="cls-1" d="M19.23,51.79a.74.74,0,0,0,.78.8.75.75,0,0,0,.77-.82c0-.89-.85-.89-1.48-.89v-1c.6,0,1.49,0,1.49-.89a.69.69,0,0,0-.74-.72.71.71,0,0,0-.73.75H18a1.78,1.78,0,0,1,.36-1A2.1,2.1,0,0,1,20,47.33c1.54,0,2,1,2,1.64a1.42,1.42,0,0,1-1.16,1.36,1.82,1.82,0,0,1,.72.37,1.35,1.35,0,0,1,.49,1.08,2,2,0,0,1-2.18,1.78,2.49,2.49,0,0,1-1.45-.4,1.72,1.72,0,0,1-.55-1.37Z"/><polygon class="cls-1" points="24.44 47.19 25.7 49.31 27.05 47.19 28.48 47.19 26.43 50.19 28.6 53.43 26.96 53.43 25.57 51.08 24.08 53.43 22.64 53.43 24.84 50.2 22.79 47.19 24.44 47.19 24.44 47.19"/><polygon class="cls-1" points="29.37 47.2 30.73 47.2 30.73 52.37 33.41 52.37 33.41 53.43 29.37 53.43 29.37 47.2 29.37 47.2"/><path class="cls-2" d="M23.16,43.72a17.6,17.6,0,0,1-5.18-1l-1.52-.54V39a13.09,13.09,0,0,1-2.66-5.17c-.81-3.25,1.4-15.44,1.4-15.44l1.7-.88.1-2.12,3.25-1.85L21,11h5.81l.5,1.67,2.67,1.51,1.2,10.36a5,5,0,0,1,2.19-.51,5.45,5.45,0,0,1,3.59,1.43l1.7,1.44-1.39,1.74a43.08,43.08,0,0,0-4.62,7.1c-.94,1.74-1.62,3-2.94,3.59l-.34.16V42L28,42.64a12.77,12.77,0,0,1-4.83,1.08Z"/><path class="cls-3" d="M29.79,29l-3.7.58L29,27.33,28.47,16l-2.23-1.27-.38,10.62h-.27l-.58-12H22.55l-.58,12h-.26l-.36-9.87-2.12,1.21-.45,9.48h-.26l-.32-6.83-1.47.75S15.28,30.25,16,33.23a10.8,10.8,0,0,0,2.73,4.84v2.48a15.57,15.57,0,0,0,4.41.88A10.56,10.56,0,0,0,27,40.55V38.07s.32-.16,1.68-.78,2.05-4.18,6.72-10C32.21,24.51,29.79,29,29.79,29Z"/></svg>