<svg id="Layer_1" data-name="Layer 1" xmlns="http://www.w3.org/2000/svg" viewBox="0 0 48.45 62.6"><defs><style>.cls-1{fill:#666;}.cls-2{fill:#fff;}</style></defs><path class="cls-1" d="M23,39.94a13.63,13.63,0,0,1-4-.78l-1.17-.42V36.26a10.3,10.3,0,0,1-2.06-4c-.63-2.52,1.08-11.95,1.08-11.95l1.32-.69L18.27,18l2.51-1.44.55-1.9h4.5l.39,1.29,2.06,1.17.94,8a3.86,3.86,0,0,1,1.69-.39,4.25,4.25,0,0,1,2.78,1.1L35,27l-1.08,1.34a34.49,34.49,0,0,0-3.58,5.5c-.73,1.35-1.25,2.32-2.27,2.78l-.27.12v1.94l-1,.47a9.84,9.84,0,0,1-3.75.84Z"/><path class="cls-2" d="M28.17,28.55,25.31,29l2.22-1.75-.38-8.75-1.73-1-.3,8.22h-.2l-.45-9.32h-1.9l-.46,9.32h-.2l-.28-7.64L20,19l-.35,7.35h-.2l-.25-5.29-1.14.58s-1.12,7.84-.55,10.15a8.42,8.42,0,0,0,2.11,3.75v1.92a12.28,12.28,0,0,0,3.41.67,8.29,8.29,0,0,0,3-.67V35.57s.24-.13,1.3-.61,1.59-3.24,5.2-7.77C30,25.07,28.17,28.55,28.17,28.55Z"/><path class="cls-1" d="M21.85,50a.75.75,0,0,0,.8.74c1.14,0,1.23-1.18,1.2-2.24a1.89,1.89,0,0,1-1.39.53,2.26,2.26,0,0,1-2.36-2.41,2.48,2.48,0,0,1,2.71-2.51c2.64,0,2.71,2.5,2.71,3.73,0,3.24-1.1,4.17-3,4.17-.43,0-2.37,0-2.37-2Zm2-3.49c0-.67-.35-1.16-1-1.16a1.07,1.07,0,0,0-1.06,1.21c0,.26.07,1.2,1,1.2C23.57,47.71,23.81,47,23.81,46.46Z"/></svg>