<svg id="Layer_1" data-name="Layer 1" xmlns="http://www.w3.org/2000/svg" viewBox="0 0 48.45 62.6"><defs><style>.cls-1{fill:#808285;}.cls-2{fill:#666;}.cls-3{fill:#fff;}</style></defs><path class="cls-1" d="M17.5,50.93l1.56-1.42a7.94,7.94,0,0,0,.91-.92,1.25,1.25,0,0,0,.41-.87.7.7,0,0,0-.72-.77c-.69,0-.75.71-.76.88H17.58a1.66,1.66,0,0,1,.36-1.13A2.16,2.16,0,0,1,19.66,46c1.31,0,2,.71,2,1.65,0,.62-.24,1.42-2.85,3.52l1.66,0,1.23,0v1H17.5V50.93Z"/><polygon class="cls-1" points="23.99 45.91 25.25 48.03 26.6 45.91 28.04 45.91 25.98 48.91 28.16 52.15 26.52 52.15 25.13 49.8 23.63 52.15 22.2 52.15 24.39 48.92 22.34 45.91 23.99 45.91 23.99 45.91"/><polygon class="cls-1" points="28.92 45.91 30.29 45.91 30.29 51.09 32.96 51.09 32.96 52.15 28.92 52.15 28.92 45.91 28.92 45.91"/><path class="cls-2" d="M22.73,42.43A16,16,0,0,1,18,41.51L16.59,41V38.07a12.1,12.1,0,0,1-2.44-4.74c-.74-3,1.28-14.17,1.28-14.17L17,18.35l.09-1.94,3-1.71.65-2.25h5.33L26.51,14,29,15.37l1.1,9.51a4.54,4.54,0,0,1,2-.47,5,5,0,0,1,3.29,1.31L36.92,27l-1.27,1.59a39.88,39.88,0,0,0-4.24,6.53c-.87,1.59-1.49,2.74-2.7,3.29l-.31.14v2.29l-1.23.56a11.55,11.55,0,0,1-4.44,1Z"/><path class="cls-3" d="M28.82,28.94l-3.39.53,2.64-2.07L27.61,17l-2.05-1.17-.35,9.75H25l-.54-11.06H22.18l-.54,11.06H21.4l-.32-9.06-1.95,1.11-.41,8.71h-.24l-.3-6.27-1.34.69s-1.33,9.29-.65,12a9.93,9.93,0,0,0,2.5,4.44v2.27a14.38,14.38,0,0,0,4,.8,9.75,9.75,0,0,0,3.57-.8V37.26s.29-.16,1.54-.72S29.72,32.7,34,27.32C31,24.81,28.82,28.94,28.82,28.94Z"/></svg>