<svg id="Layer_1" data-name="Layer 1" xmlns="http://www.w3.org/2000/svg" viewBox="0 0 48.91 52.81">
  <defs>
    <style>
      .cls-1 {
        font-size: 6.73px;
      }

      .cls-1, .cls-3, .cls-4, .cls-5 {
        fill: #231f20;
      }

      .cls-1, .cls-4, .cls-5 {
        font-family: FuturaPT-Bold, Futura PT;
        font-weight: 700;
      }

      .cls-2 {
        letter-spacing: -0.03em;
      }

      .cls-4 {
        font-size: 18.83px;
      }

      .cls-5 {
        font-size: 6.18px;
      }
    </style>
  </defs>
  <g>
    <text class="cls-1" transform="translate(16.28 45.84)">HE<tspan class="cls-2" x="8.25" y="0">A</tspan><tspan x="12.83" y="0">T</tspan></text>
    <g>
      <path class="cls-3" d="M24,38a21.84,21.84,0,0,1-11.78-11.3,20.89,20.89,0,0,1-1.87-7.14V5.22H38.54V19.59a17.68,17.68,0,0,1-2.61,8.72A24.36,24.36,0,0,1,24.75,38l-.36.16ZM12.19,19.54v.09c0,.09,0,.21,0,.37,0,.33.1.8.21,1.39A21.36,21.36,0,0,0,13.89,26,19.88,19.88,0,0,0,24.36,36.21a22.52,22.52,0,0,0,10-8.82,16.07,16.07,0,0,0,2.36-7.8V7H12.19Z"/>
      <text class="cls-4" transform="translate(18.93 29.66)">0</text>
      <text class="cls-5" transform="translate(17.08 13.95)">ANSI</text>
    </g>
  </g>
</svg>
