<svg id="Layer_1" data-name="Layer 1" xmlns="http://www.w3.org/2000/svg" viewBox="0 0 70.27 64.38">
  <defs>
    <style>
      .cls-1 {
        font-size: 6px;
        fill: #666;
        font-family: HelveticaNeueLTStd-Roman, Helvetica Neue LT Std;
      }

      .cls-2 {
        fill: #54565a;
      }
    </style>
  </defs>
  <text class="cls-1" transform="translate(17.76 23.06)">ASTM F2878</text>
  <path class="cls-2" d="M49.71,29.4c0-1.74-.38-3.16-.86-3.16h-.78c-.34,0-.63.73-.77,1.79h.32a5.23,5.23,0,0,1,.12-.64,1.8,1.8,0,0,1,.33-.82,5.34,5.34,0,0,1,.54,2.83,8.5,8.5,0,0,1-.21,2,1.74,1.74,0,0,1-.33.82,3.1,3.1,0,0,1-.45-1.46H47.3s0,.07,0,.11v0s0,.08,0,.12v0s0,.05,0,.08v.05s0,0,0,.07v0l0,.07v0a.29.29,0,0,1,0,.09v0a.36.36,0,0,1,0,.1v0l0,.07v0l0,.06v0l0,.05v0l0,.06v0l0,.08v0s0,0,0,.05v0l0,0,0,0,0,0v0l0,0h0l0,.05h0l0,0h0l0,0h0l0,0h.9c.48,0,.86-1.41.86-3.16m-4.35,1.07h2.69a2.52,2.52,0,0,0,.24-1.09h0a2.22,2.22,0,0,0-.24-1H45.36c0,.48,0,.89,0,1.07s0,.59,0,1.07m-.42,0c0-.33.05-.69.05-1.07s0-.74-.05-1.07c0-.1,0-.2,0-.3-.14-1.06-.43-1.79-.77-1.79h-.78c-.28,0-.53.51-.69,1.29H30.2v0h-.05l-.49.49h-1l-.34.51H26.23l-.69.57-6.4.11-.53.3,6.93.11.69.57H28.3l.34.51h1l.49.49h.05v0H42.66v.15s0,.06,0,.09v0a.36.36,0,0,0,0,.1v0a.64.64,0,0,1,0,.07v0l0,.06v0l0,.05v0a.14.14,0,0,1,0,.06v0l0,.08v0l0,.05v0l0,0v0l0,0v0l0,0h0l0,.05h0l0,0h0l0,0h0l0,0h.9c.34,0,.63-.73.77-1.79,0-.1,0-.2,0-.3m-2.35.38H30.86a5.71,5.71,0,0,0,.19-1.5,4.94,4.94,0,0,0-.18-1.4h12l0,.08a.24.24,0,0,0,0,.08c0,.06,0,.13,0,.22a6.15,6.15,0,0,1,.07,1,5.84,5.84,0,0,1-.09,1.11l0,.16a.57.57,0,0,1,0,.14.24.24,0,0,1,0,.08Zm.39.42h.11a1.47,1.47,0,0,0,.19-.5c0-.09,0-.18.06-.3a6.33,6.33,0,0,0,.08-1.11,8.5,8.5,0,0,0-.06-1c0-.12,0-.21-.06-.3a1,1,0,0,0-.2-.49H43l0-.14a1.88,1.88,0,0,1,.34-.82A3.1,3.1,0,0,1,43.8,28l0,.3a8.72,8.72,0,0,1,.06,1.07,9.2,9.2,0,0,1-.06,1.07l0,.3a5.23,5.23,0,0,1-.12.64,1.74,1.74,0,0,1-.33.82,2.15,2.15,0,0,1-.37-1m-7.12-2a.09.09,0,0,0-.09-.1.09.09,0,0,0-.1.1v.59a.09.09,0,0,0,.1.09.09.09,0,0,0,.09-.09Zm.64.14a.09.09,0,0,0-.1-.09.09.09,0,0,0-.09.09v.45a.09.09,0,0,0,.09.09.09.09,0,0,0,.1-.09Zm1.91-.14a.09.09,0,0,0-.1-.1.09.09,0,0,0-.09.1v.59a.09.09,0,0,0,.1.09.09.09,0,0,0,.09-.09Zm-1.27-.37a.1.1,0,0,0-.2,0v1a.1.1,0,0,0,.2,0Zm.63.51a.09.09,0,0,0-.09-.09.09.09,0,0,0-.1.09v.45a.09.09,0,0,0,.1.09.09.09,0,0,0,.09-.09Zm-2.54,0a.1.1,0,0,0-.2,0v.45a.1.1,0,0,0,.2,0ZM34.59,29a.1.1,0,0,0-.1-.1h0a.1.1,0,0,0-.1.1v.93a.09.09,0,0,0,.1.09h0a.09.09,0,0,0,.1-.09Zm-2.56,0a.1.1,0,0,0-.2,0v1a.1.1,0,0,0,.2,0Zm.63.51a.09.09,0,0,0-.09-.09.09.09,0,0,0-.1.09v.45a.09.09,0,0,0,.1.09.09.09,0,0,0,.09-.09Zm1.28,0a.1.1,0,0,0-.2,0v.45a.1.1,0,0,0,.2,0Zm-.64-.14a.09.09,0,0,0-.1-.1.09.09,0,0,0-.09.1v.59a.09.09,0,0,0,.09.09.09.09,0,0,0,.1-.09Zm7,.14a.09.09,0,0,0-.09-.09.09.09,0,0,0-.1.09v.45a.09.09,0,0,0,.1.09.09.09,0,0,0,.09-.09ZM39.71,29a.11.11,0,0,0-.1-.1h0a.11.11,0,0,0-.1.1v.93a.1.1,0,0,0,.1.09h0a.1.1,0,0,0,.1-.09Zm-.66.48a.09.09,0,0,0-.1-.09.09.09,0,0,0-.09.09v.45A.09.09,0,0,0,39,30a.09.09,0,0,0,.1-.09Zm2.57,0a.1.1,0,0,0-.2,0v.45a.1.1,0,0,0,.2,0ZM41,29.29a.09.09,0,0,0-.1-.1.09.09,0,0,0-.09.1v.59a.09.09,0,0,0,.09.09.09.09,0,0,0,.1-.09Zm1.27-.37a.09.09,0,0,0-.09-.09.09.09,0,0,0-.1.09v1a.09.09,0,0,0,.1.09.09.09,0,0,0,.09-.09Z"/>
  <text class="cls-1" transform="translate(17.99 39.33)">Hypodermic <tspan x="7.78" y="6">Needle</tspan></text>
</svg>
