<svg id="Layer_1" data-name="Layer 1" xmlns="http://www.w3.org/2000/svg" viewBox="0 0 98 52.81">
  <defs>
    <style>
      .cls-1 {
        fill: #231f20;
      }
    </style>
  </defs>
  <path class="cls-1" d="M21.58,6.17l2.23,6H22.45L22,10.8H19.77l-.47,1.33H18l2.26-6Zm.08,3.65-.75-2.18h0l-.78,2.18Zm4-3.65,2.49,4h0v-4h1.23v6H28.05l-2.48-4h0v4H24.33v-6Zm5.88,4.49a1.07,1.07,0,0,0,.29.34,1.35,1.35,0,0,0,.42.19,2.07,2.07,0,0,0,.5.06l.38,0a1.66,1.66,0,0,0,.38-.11.92.92,0,0,0,.29-.23.56.56,0,0,0,.11-.37.53.53,0,0,0-.15-.39,1.32,1.32,0,0,0-.4-.26,5.6,5.6,0,0,0-.57-.17l-.65-.17a5.38,5.38,0,0,1-.65-.2A2.32,2.32,0,0,1,30.9,9a1.46,1.46,0,0,1-.41-.48,1.54,1.54,0,0,1-.15-.7,1.58,1.58,0,0,1,.19-.8,1.85,1.85,0,0,1,.52-.56,2.45,2.45,0,0,1,.71-.34,3.21,3.21,0,0,1,.81-.1,3.68,3.68,0,0,1,.89.1,2.24,2.24,0,0,1,.77.34,1.67,1.67,0,0,1,.53.59A1.89,1.89,0,0,1,35,8H33.68a1,1,0,0,0-.11-.45.72.72,0,0,0-.25-.27A.92.92,0,0,0,33,7.09a2,2,0,0,0-.44,0,1.75,1.75,0,0,0-.32,0,.92.92,0,0,0-.29.11.84.84,0,0,0-.21.21.55.55,0,0,0-.08.32.55.55,0,0,0,.06.28.54.54,0,0,0,.27.2,2.53,2.53,0,0,0,.54.19l.9.23.47.12a2.42,2.42,0,0,1,.59.28,1.78,1.78,0,0,1,.5.52,1.45,1.45,0,0,1,.21.82,1.79,1.79,0,0,1-.16.76,1.59,1.59,0,0,1-.47.6,2.33,2.33,0,0,1-.77.4,3.88,3.88,0,0,1-1.08.14,3.81,3.81,0,0,1-1-.12,2.47,2.47,0,0,1-.82-.38,1.8,1.8,0,0,1-.56-.66,1.9,1.9,0,0,1-.2-.95h1.27A1.13,1.13,0,0,0,31.51,10.66Zm5.73-4.49v6H35.93v-6ZM43.32,6,41,12.26h-1L42.37,6Zm4.12.14v6H46.13v-6Zm2.15,4.49a1,1,0,0,0,.29.34,1.35,1.35,0,0,0,.42.19,2.07,2.07,0,0,0,.5.06l.38,0a1.45,1.45,0,0,0,.37-.11.86.86,0,0,0,.3-.23.62.62,0,0,0,.11-.37.53.53,0,0,0-.15-.39,1.37,1.37,0,0,0-.41-.26,4.73,4.73,0,0,0-.56-.17l-.65-.17a4.88,4.88,0,0,1-.65-.2A2.6,2.6,0,0,1,49,9a1.56,1.56,0,0,1-.4-.48,1.54,1.54,0,0,1-.15-.7,1.58,1.58,0,0,1,.19-.8,1.82,1.82,0,0,1,.51-.56,2.64,2.64,0,0,1,.72-.34,3.19,3.19,0,0,1,.8-.1,3.76,3.76,0,0,1,.9.1,2.11,2.11,0,0,1,.76.34,1.58,1.58,0,0,1,.53.59A1.77,1.77,0,0,1,53,8H51.76a1.14,1.14,0,0,0-.11-.45.68.68,0,0,0-.26-.27A.82.82,0,0,0,51,7.09a2,2,0,0,0-.45,0,1.65,1.65,0,0,0-.31,0,.92.92,0,0,0-.29.11.7.7,0,0,0-.21.21.61.61,0,0,0,0,.6.51.51,0,0,0,.26.2,2.45,2.45,0,0,0,.55.19l.9.23a4,4,0,0,1,.46.12,2.12,2.12,0,0,1,.59.28,1.69,1.69,0,0,1,.51.52,1.45,1.45,0,0,1,.21.82,1.79,1.79,0,0,1-.16.76,1.59,1.59,0,0,1-.47.6,2.39,2.39,0,0,1-.78.4,4,4,0,0,1-2,0,2.38,2.38,0,0,1-.82-.38,1.71,1.71,0,0,1-.56-.66,2,2,0,0,1-.21-.95h1.27A1.13,1.13,0,0,0,49.59,10.66Zm8.87-4.49v1.1H55.32V8.55H58.2v1H55.32V11h3.21v1.1H54v-6Zm3.93,0,2.22,6H63.25L62.8,10.8H60.58l-.47,1.33H58.79l2.25-6Zm.07,3.65-.75-2.18h0l-.77,2.18ZM69,12.13V8.34H67.49v-.9a2.93,2.93,0,0,0,.6,0,1.69,1.69,0,0,0,.52-.19A1.52,1.52,0,0,0,69,6.84a1.42,1.42,0,0,0,.21-.56h.94v5.85Zm4-3.48a1.37,1.37,0,0,0,.41-.1.79.79,0,0,0,.31-.23.62.62,0,0,0,.12-.4.7.7,0,0,0-.25-.58.93.93,0,0,0-.58-.2.81.81,0,0,0-.68.3,1.21,1.21,0,0,0-.22.75H71a2.6,2.6,0,0,1,.17-.82,1.64,1.64,0,0,1,.41-.64,1.74,1.74,0,0,1,.63-.42A2.29,2.29,0,0,1,73,6.17a2.48,2.48,0,0,1,.71.1,2.31,2.31,0,0,1,.63.31,1.84,1.84,0,0,1,.45.51,1.35,1.35,0,0,1,.18.7,1.37,1.37,0,0,1-.21.75,1,1,0,0,1-.61.44V9a1.33,1.33,0,0,1,.76.46,1.4,1.4,0,0,1,.27.86,1.8,1.8,0,0,1-.18.82,1.77,1.77,0,0,1-.48.6,2.09,2.09,0,0,1-.69.37,2.76,2.76,0,0,1-.82.13,2.52,2.52,0,0,1-.89-.15,1.84,1.84,0,0,1-.69-.41A1.78,1.78,0,0,1,71,11a2.54,2.54,0,0,1-.15-.9H72a2.13,2.13,0,0,0,.07.44,1.1,1.1,0,0,0,.2.37,1,1,0,0,0,.31.25,1,1,0,0,0,.45.09,1,1,0,0,0,.67-.25.83.83,0,0,0,.28-.67.91.91,0,0,0-.13-.51.73.73,0,0,0-.33-.25,1.23,1.23,0,0,0-.44-.1h-.45V8.65Zm3.08-1.58a1.44,1.44,0,0,1,.45-.5,1.83,1.83,0,0,1,.63-.3,2.44,2.44,0,0,1,.71-.1,2.3,2.3,0,0,1,.92.16,2,2,0,0,1,.6.41,1.31,1.31,0,0,1,.33.51,1.34,1.34,0,0,1,.1.49,1.38,1.38,0,0,1-.21.76A1.15,1.15,0,0,1,79,9V9a1.32,1.32,0,0,1,.81.5,1.49,1.49,0,0,1,.29.93,1.73,1.73,0,0,1-.19.81,1.68,1.68,0,0,1-.5.56,2.07,2.07,0,0,1-.7.34,2.72,2.72,0,0,1-.8.12,3.12,3.12,0,0,1-.82-.11,2.11,2.11,0,0,1-.71-.33,1.61,1.61,0,0,1-.5-.57,1.59,1.59,0,0,1-.19-.81,1.45,1.45,0,0,1,.29-.94,1.36,1.36,0,0,1,.81-.5V9a1,1,0,0,1-.64-.44,1.42,1.42,0,0,1,0-1.45Zm.85,3.7a1,1,0,0,0,.22.31.91.91,0,0,0,.33.2,1.09,1.09,0,0,0,.4.07,1.05,1.05,0,0,0,.4-.07,1,1,0,0,0,.31-.2,1,1,0,0,0,.22-.31,1.09,1.09,0,0,0,.07-.4.92.92,0,0,0-.08-.38.73.73,0,0,0-.22-.3.89.89,0,0,0-.31-.19,1,1,0,0,0-.39-.07,1.15,1.15,0,0,0-.74.24.83.83,0,0,0-.3.69A1,1,0,0,0,76.92,10.77Zm.31-2.33a1.05,1.05,0,0,0,.63.2,1,1,0,0,0,.63-.2.7.7,0,0,0,.25-.57.77.77,0,0,0,0-.25.61.61,0,0,0-.13-.27.8.8,0,0,0-.26-.21,1.17,1.17,0,0,0-.45-.08,1.27,1.27,0,0,0-.34.05,1,1,0,0,0-.29.16.75.75,0,0,0-.26.6A.68.68,0,0,0,77.23,8.44Zm-46.58,21L29.5,31.18h2.31l-.95-.57.81-1.37L30,27.5l2-.57-.76-2.68L34,25l.52-2,1.84,1.79,1.28-.51.47,1.84.23-3.54-1.71,1L34.26,21l-.85,2.88-4.1-1.79L31,26.25,27.94,27ZM17.94,15.14V46.79H79.81V15.14Zm39.9,17L49.35,27s-2-1-2-2.36,2.07-2,2.07-2,.71,0,.71-.33-.56-.61-.56-.61S46.1,20,44,23.16l-2.17,3.35v.66a.77.77,0,0,0-.71.47l-.61,1s-.38.38.28.8l2.36,1.75s.38.38.76-.28l1-1.56a1,1,0,0,0,0-.85s.61-.42,2.08.52l10.8,6.91V45H19.69V35.82c1.89.91,9.52,4.61,11.17,5.36a3.88,3.88,0,0,0,3.07.28l6.65-1.94h4.24c.62,0,.71-.84.71-.84V37.59c0-.71-.75-.71-.75-.71H39.07l-4.57.57-.15-1L39,35.85h5.7a1.67,1.67,0,0,1,1.89,1.65v1l5.51,3c1.33.85,1.42,0,1.42,0L54,40.7c.66-1,0-1.27,0-1.27L41.8,31.93a3,3,0,0,0-2.35-.28l-5.57,1.46a3.06,3.06,0,0,1-2.78-.38L19.69,26v-9H57.84Zm11.59-2.87A4,4,0,0,0,70.65,29a2.25,2.25,0,0,0,.93-.7,1.81,1.81,0,0,0,.37-1.2,2.08,2.08,0,0,0-.76-1.74,2.7,2.7,0,0,0-1.73-.6,2.41,2.41,0,0,0-2,.89,3.46,3.46,0,0,0-.67,2.25h-3.4a7.81,7.81,0,0,1,.49-2.48,5.83,5.83,0,0,1,1.24-1.92A5.42,5.42,0,0,1,67,22.23a6.65,6.65,0,0,1,2.46-.44,7.42,7.42,0,0,1,2.12.32,6.14,6.14,0,0,1,1.9.94,5.05,5.05,0,0,1,1.37,1.54,4.07,4.07,0,0,1,.53,2.08,4.2,4.2,0,0,1-.62,2.27,3.09,3.09,0,0,1-1.85,1.33v.05a3.85,3.85,0,0,1,2.29,1.41A4.16,4.16,0,0,1,76,34.32a5.44,5.44,0,0,1-.54,2.47A5.26,5.26,0,0,1,74,38.6a6.25,6.25,0,0,1-2.09,1.11,8.06,8.06,0,0,1-2.46.38,8.33,8.33,0,0,1-2.71-.43,5.69,5.69,0,0,1-2.07-1.25,5.61,5.61,0,0,1-1.33-2,7.17,7.17,0,0,1-.44-2.71h3.4A5,5,0,0,0,66.54,35a3.26,3.26,0,0,0,.58,1.11,2.65,2.65,0,0,0,.94.74,3.26,3.26,0,0,0,3.39-.46,2.6,2.6,0,0,0,.83-2,2.54,2.54,0,0,0-.39-1.53,2.22,2.22,0,0,0-1-.77,4.25,4.25,0,0,0-1.32-.28c-.48,0-.93,0-1.37,0V29.27A8.41,8.41,0,0,0,69.43,29.27Z"/>
</svg>
