<svg id="Layer_1" data-name="Layer 1" xmlns="http://www.w3.org/2000/svg" viewBox="0 0 48.45 62.6"><defs><style>.cls-1{fill:#3bb54a;}.cls-2{font-size:4.22px;fill:#fff;font-family:HelveticaNeueLTStd-Bd, Helvetica Neue LT Std;}</style></defs><path class="cls-1" d="M24.22,16.62A14.68,14.68,0,1,1,9.54,31.3,14.7,14.7,0,0,1,24.22,16.62m0-6.64A21.32,21.32,0,1,0,45.54,31.3,21.31,21.31,0,0,0,24.22,10Z"/><path class="cls-1" d="M27.25,36.67a8.09,8.09,0,0,1-4,1.68c-1.9.25-4.48-.35-5.45-1.68a8.9,8.9,0,0,0,5.36.9c-.94-5.83-7.93-4.22-9.62-6.27-1.65,6.93,6,12,9.17,8.21A9.07,9.07,0,0,0,27,38.2a1,1,0,0,0,.28-1.53Zm4.68-7.89a9.33,9.33,0,0,0-3.26-3,1,1,0,0,0-1.46.53,8,8,0,0,1,3.44,2.6c1.17,1.52,1.94,4.06,1.27,5.56A8.84,8.84,0,0,0,30,29.37c-4.58,3.73.32,9-.62,11.46C36.22,38.8,36.78,29.65,31.93,28.78ZM18.62,31.16a8.12,8.12,0,0,1,.53-4.29c.73-1.77,2.54-3.7,4.18-3.87a8.84,8.84,0,0,0-3.46,4.19c5.52,2.1,7.62-4.77,10.24-5.2-5.18-4.89-13.38-.8-11.7,3.84a9.24,9.24,0,0,0-1,4.33A1,1,0,0,0,18.62,31.16Z"/><path class="cls-1" d="M24.22,46.38A15.15,15.15,0,1,1,39.38,31.23,15.17,15.17,0,0,1,24.22,46.38Zm0-29.31A14.16,14.16,0,1,0,38.39,31.23,14.18,14.18,0,0,0,24.22,17.07Z"/><text class="cls-2" transform="matrix(0.78, -0.62, 0.62, 0.78, 12.73, 19.7)">M</text><text class="cls-2" transform="translate(15.64 17.45) rotate(-26.95)">A</text><text class="cls-2" transform="translate(18.1 16.17) rotate(-16.65)">D</text><text class="cls-2" transform="matrix(0.99, -0.12, 0.12, 0.99, 20.96, 15.32)">E</text><text class="cls-2" transform="matrix(1, -0.02, 0.02, 1, 23.59, 15.06)"> </text><text class="cls-2" transform="matrix(0.99, 0.1, -0.1, 0.99, 24.68, 15.01)">F</text><text class="cls-2" transform="translate(27.07 15.22) rotate(15.5)">R</text><text class="cls-2" transform="translate(29.87 15.98) rotate(26.25)">O</text><text class="cls-2" transform="matrix(0.78, 0.62, -0.62, 0.78, 32.71, 17.33)">M</text><text class="cls-2" transform="translate(5.05 34.67) rotate(75.21)">R</text><text class="cls-2" transform="matrix(0.41, 0.91, -0.91, 0.41, 5.96, 37.95)">E</text><text class="cls-2" transform="matrix(0.56, 0.83, -0.83, 0.56, 7.26, 40.76)">C</text><text class="cls-2" transform="translate(9.25 43.62) rotate(46.11)">Y</text><text class="cls-2" transform="translate(11.46 45.9) rotate(36.36)">C</text><text class="cls-2" transform="translate(14.27 47.9) rotate(27.12)">L</text><text class="cls-2" transform="translate(16.81 49.18) rotate(18.34)">E</text><text class="cls-2" transform="matrix(0.99, 0.15, -0.15, 0.99, 19.75, 50.14)">D</text><text class="cls-2" transform="translate(23.11 50.57) rotate(1.54)"> </text><text class="cls-2" transform="translate(24.58 50.69) rotate(-6.61)">M</text><text class="cls-2" transform="translate(28.77 50.12) rotate(-17.72)">A</text><text class="cls-2" transform="translate(31.51 49.23) rotate(-25.81)">T</text><text class="cls-2" transform="matrix(0.82, -0.57, 0.57, 0.82, 34.1, 47.96)">E</text><text class="cls-2" transform="translate(36.64 46.19) rotate(-44.06)">R</text><text class="cls-2" transform="translate(38.95 43.86) rotate(-51.07)">I</text><text class="cls-2" transform="matrix(0.53, -0.85, 0.85, 0.53, 39.93, 42.7)">A</text><text class="cls-2" transform="matrix(0.39, -0.92, 0.92, 0.39, 41.6, 39.97)">L</text><text class="cls-2" transform="translate(42.7 37.35) rotate(-75.57)">S</text></svg>