<svg id="Layer_1" data-name="Layer 1" xmlns="http://www.w3.org/2000/svg" viewBox="0 0 48.91 52.81"><defs><style>.cls-1{fill:#c0282d;}.cls-2{fill:#dc282d;}.cls-3{fill:#010101;}.cls-4{fill:#231f20;}</style></defs><polygon class="cls-1" points="24.48 2.94 24.48 2.96 24.46 27.44 18.3 13.8 24.46 2.89 24.48 2.94"/><polygon class="cls-2" points="30.61 13.8 24.46 27.44 24.48 2.96 24.48 2.94 30.61 13.8"/><polygon class="cls-1" points="5.71 11.67 5.72 11.68 24.46 27.44 10.05 23.39 5.65 11.66 5.71 11.67"/><polygon class="cls-2" points="17.97 13.96 24.46 27.44 5.72 11.68 5.71 11.67 17.97 13.96"/><polygon class="cls-1" points="43.24 11.71 43.23 11.72 24.46 27.44 30.94 13.96 43.26 11.66 43.24 11.71"/><polygon class="cls-2" points="38.86 23.39 24.46 27.44 43.23 11.72 43.24 11.71 38.86 23.39"/><polygon class="cls-1" points="7.56 30.4 7.58 30.39 24.46 27.44 15.8 33.34 7.54 30.42 7.56 30.4"/><polygon class="cls-2" points="14.31 24.85 24.46 27.44 7.58 30.39 7.56 30.4 14.31 24.85"/><polygon class="cls-1" points="41.34 30.43 41.33 30.43 24.46 27.44 34.6 24.85 41.38 30.42 41.34 30.43"/><polygon class="cls-2" points="33.11 33.34 24.46 27.44 41.33 30.43 41.34 30.43 33.11 33.34"/><polygon class="cls-1" points="25.95 34.84 22.96 34.84 24.46 27.44 25.95 34.84"/><path class="cls-3" d="M12.69,39h1l1.11,3.13h0L15.86,39h1v4h-.67V39.93h0L15.05,43h-.58l-1.1-3.08h0V43h-.66Z"/><path class="cls-3" d="M18.75,39h.75L21,43h-.75L19.91,42H18.32L17.94,43h-.72Zm-.24,2.41h1.22l-.6-1.72h0Z"/><path class="cls-3" d="M21.42,39h1.66c1.23,0,1.76.9,1.76,2s-.53,2-1.76,2H21.42Zm.7,3.43h.69c1.1,0,1.33-.63,1.33-1.43s-.23-1.42-1.33-1.42h-.69Z"/><path class="cls-3" d="M25.47,39h2.88v.61H26.17v1.05h2v.57h-2v1.17h2.22V43H25.47Z"/><path class="cls-3" d="M30.56,39h.7v4h-.7Z"/><path class="cls-3" d="M32.09,39h.74l1.82,3h0V39h.66v4h-.74l-1.82-2.94h0V43h-.67Z"/><path class="cls-4" d="M15.27,46.06a.72.72,0,0,0-.8-.61c-.67,0-.93.59-.93,1.18s.26,1.18.93,1.18a.74.74,0,0,0,.8-.73h1a1.68,1.68,0,0,1-1.82,1.62,2.07,2.07,0,0,1,0-4.14,1.7,1.7,0,0,1,1.82,1.5Z"/><path class="cls-4" d="M17.93,44.64H19l1.49,4H19.39l-.24-.71H17.76l-.25.71H16.45Zm.07,2.5h.9l-.44-1.39h0Z"/><path class="cls-4" d="M20.76,44.64h1.06l1.38,2.45h0V44.64h1v4H23.12l-1.38-2.48h0v2.48h-1Z"/><path class="cls-4" d="M26,44.64H27l1.49,4H27.43l-.25-.71H25.8l-.25.71H24.48Zm.07,2.5h.9l-.44-1.39h0Z"/><path class="cls-4" d="M28.81,44.64h1.7a2,2,0,0,1,0,4h-1.7Zm1,3.09h.49c.79,0,1.1-.33,1.1-1.12a1,1,0,0,0-1.1-1.08h-.49Z"/><path class="cls-4" d="M34.11,44.64h1l1.49,4H35.57l-.25-.71H33.93l-.25.71H32.62Zm.06,2.5h.91l-.44-1.39h0Z"/></svg>