<svg id="Layer_1" data-name="Layer 1" xmlns="http://www.w3.org/2000/svg" viewBox="0 0 60.13 52.81"><defs><style>.cls-1,.cls-2{fill:#231f20;}.cls-1{stroke:#231f20;stroke-miterlimit:10;stroke-width:0.67px;}.cls-2{font-size:6.79px;font-family:FuturaPT-Bold, Futura PT;font-weight:700;letter-spacing:-0.03em;}</style></defs><path d="M31,16.17a6.7,6.7,0,0,1,3.82,6,.33.33,0,1,0,.66,0,7.38,7.38,0,0,0-4.19-6.62l-.14,0a.32.32,0,0,0-.3.19.31.31,0,0,0,0,.25A.35.35,0,0,0,31,16.17Z"/><path d="M22,27a.35.35,0,0,0,.19-.17.31.31,0,0,0,0-.25,13.63,13.63,0,0,1-.73-4.4,6.67,6.67,0,0,1,6.67-6.66,6.49,6.49,0,0,1,1.32.13.31.31,0,0,0,.25-.05.32.32,0,0,0,.14-.21.3.3,0,0,0-.05-.24.32.32,0,0,0-.21-.15,7.75,7.75,0,0,0-1.45-.14,7.34,7.34,0,0,0-7.33,7.32,14.37,14.37,0,0,0,.76,4.61A.33.33,0,0,0,22,27Z"/><path d="M27.14,34.06a.33.33,0,0,0,.19.06A.32.32,0,0,0,27.6,34a.33.33,0,0,0,0-.25.28.28,0,0,0-.14-.21A13.73,13.73,0,0,1,22.77,28a.34.34,0,0,0-.3-.19.32.32,0,0,0-.31.22.31.31,0,0,0,0,.25A14.38,14.38,0,0,0,27.14,34.06Z"/><path d="M37.31,29.09a.27.27,0,0,0,0-.25.34.34,0,0,0-.4-.23,6.64,6.64,0,0,1-8.45-6.42.33.33,0,0,0-.33-.33.33.33,0,0,0-.33.33,7.33,7.33,0,0,0,7.32,7.33,7.13,7.13,0,0,0,2-.27A.29.29,0,0,0,37.31,29.09Z"/><path d="M25.61,10.56a12.07,12.07,0,0,1,2.55-.27A11.87,11.87,0,0,1,36,13.22a.35.35,0,0,0,.22.08.33.33,0,0,0,.25-.11.34.34,0,0,0,0-.47,12.57,12.57,0,0,0-11-2.81.32.32,0,0,0-.21.15.36.36,0,0,0-.05.25A.34.34,0,0,0,25.61,10.56Z"/><path d="M21.75,13.88a.32.32,0,0,0,.46.07,10.16,10.16,0,0,1,15,3.66.34.34,0,0,0,.3.18.42.42,0,0,0,.15,0,.33.33,0,0,0,.14-.44,10.8,10.8,0,0,0-16-3.89A.33.33,0,0,0,21.75,13.88Z"/><path d="M38.48,19a.3.3,0,0,0-.16-.19.37.37,0,0,0-.25,0,.34.34,0,0,0-.22.42,10.06,10.06,0,0,1,.47,3,3.17,3.17,0,1,1-6.34,0,3.79,3.79,0,0,0-.75-2.27.3.3,0,0,0-.26-.13.36.36,0,0,0-.2.06.33.33,0,0,0-.07.46,3.12,3.12,0,0,1,.62,1.88,3.83,3.83,0,1,0,7.66,0A10.8,10.8,0,0,0,38.48,19Z"/><path d="M29.63,19.39a.31.31,0,0,0,.25,0,.32.32,0,0,0,.2-.16.31.31,0,0,0,0-.25.33.33,0,0,0-.16-.19,3.83,3.83,0,0,0-5.61,3.38,10.78,10.78,0,0,0,6,9.67.42.42,0,0,0,.15,0,.33.33,0,0,0,.3-.19.33.33,0,0,0-.15-.44A10.12,10.12,0,0,1,25,22.19,3.17,3.17,0,0,1,28.16,19,3.13,3.13,0,0,1,29.63,19.39Z"/><path d="M33.72,32.92a.33.33,0,0,0,.37-.28.37.37,0,0,0-.07-.25.36.36,0,0,0-.22-.13,10.57,10.57,0,0,1-2-.47.22.22,0,0,0-.11,0,.31.31,0,0,0-.31.22.33.33,0,0,0,.2.42A11.12,11.12,0,0,0,33.72,32.92Z"/><path d="M31.54,33.9a.33.33,0,0,0,0-.26.38.38,0,0,0-.19-.16,11.9,11.9,0,0,1-8.1-11.29A4.93,4.93,0,0,1,24,19.55a.33.33,0,0,0-.1-.45.31.31,0,0,0-.18-.05.32.32,0,0,0-.28.15,5.55,5.55,0,0,0-.87,3A12.55,12.55,0,0,0,31.12,34.1.33.33,0,0,0,31.54,33.9Z"/><path d="M33.07,22.19a2.08,2.08,0,1,0,4.16,0,9.08,9.08,0,0,0-9.07-9.07,8.93,8.93,0,0,0-1.27.09.32.32,0,0,0-.22.13.34.34,0,0,0-.06.24.32.32,0,0,0,.37.28,9.23,9.23,0,0,1,1.18-.08,8.43,8.43,0,0,1,8.41,8.41,1.42,1.42,0,1,1-2.84,0,5.58,5.58,0,0,0-9-4.37.35.35,0,0,0-.12.23.31.31,0,0,0,.07.24.33.33,0,0,0,.46.05,4.92,4.92,0,0,1,8,3.85Z"/><path d="M20,19.1l.13,0a.35.35,0,0,0,.31-.2,8.38,8.38,0,0,1,5.23-4.75.35.35,0,0,0,.19-.17.31.31,0,0,0,0-.25.3.3,0,0,0-.16-.19.28.28,0,0,0-.15,0l-.1,0a9,9,0,0,0-5.64,5.12A.34.34,0,0,0,20,19.1Z"/><path d="M38.32,26.38a.34.34,0,0,0-.21-.14.3.3,0,0,0-.24.05,4.92,4.92,0,0,1-7.64-4.1,2.08,2.08,0,0,0-2.07-2.08,2.17,2.17,0,0,0-.62.1.33.33,0,0,0-.06.61.31.31,0,0,0,.25,0,1.54,1.54,0,0,1,.43-.06,1.41,1.41,0,0,1,1.41,1.41,5.59,5.59,0,0,0,5.58,5.58,5.52,5.52,0,0,0,3.08-.93A.34.34,0,0,0,38.32,26.38Z"/><path d="M26.61,21.31a.2.2,0,0,0-.11,0,.32.32,0,0,0-.31.22,2.25,2.25,0,0,0-.11.68A9,9,0,0,0,28,27.77a.35.35,0,0,0,.26.13.38.38,0,0,0,.21-.07.33.33,0,0,0,.05-.47,8.32,8.32,0,0,1-1.77-5.17,1.21,1.21,0,0,1,.08-.46A.34.34,0,0,0,26.61,21.31Z"/><path d="M35.63,31.25a.32.32,0,0,0,.31-.34.32.32,0,0,0-.11-.24.34.34,0,0,0-.23-.08h-.45a8.39,8.39,0,0,1-5.66-2.18.31.31,0,0,0-.22-.09.36.36,0,0,0-.25.11.3.3,0,0,0-.08.24.32.32,0,0,0,.1.22,9.06,9.06,0,0,0,6.11,2.37Z"/><path class="cls-1" d="M29.37,5A16.88,16.88,0,1,0,46.25,21.91,16.9,16.9,0,0,0,29.37,5ZM45.92,21.91a16.46,16.46,0,0,1-4.74,11.57L17.8,10.1A16.54,16.54,0,0,1,45.92,21.91Zm-33.09,0a16.5,16.5,0,0,1,4.73-11.57L41,33.72A16.53,16.53,0,0,1,12.83,21.91Z"/><text class="cls-2" transform="translate(4.97 46.16)">NON-MARRING</text></svg>