<svg id="Layer_1" data-name="Layer 1" xmlns="http://www.w3.org/2000/svg" viewBox="0 0 109.44 64.38">
  <defs>
    <style>
      .cls-1 {
        font-size: 6.9px;
      }

      .cls-1, .cls-4, .cls-5, .cls-6 {
        fill: #231f20;
      }

      .cls-1, .cls-5, .cls-6 {
        font-family: FuturaPT-Bold, Futura PT;
        font-weight: 700;
      }

      .cls-2 {
        letter-spacing: 0.02em;
      }

      .cls-3 {
        letter-spacing: 0em;
      }

      .cls-5 {
        font-size: 19px;
      }

      .cls-6 {
        font-size: 6.33px;
      }

      .cls-7 {
        letter-spacing: -0.03em;
      }

      .cls-8 {
        font-size: 6px;
        fill: #666;
        font-family: HelveticaNeueLTStd-Roman, Helvetica Neue LT Std;
      }

      .cls-9 {
        fill: #54565a;
      }

      .cls-10 {
        fill: none;
        stroke: #54565a;
        stroke-miterlimit: 10;
      }
    </style>
  </defs>
  <g>
    <g>
      <text class="cls-1" transform="translate(14.61 52.73)">PUN<tspan class="cls-2" x="14.65" y="0">C</tspan><tspan class="cls-3" x="18.88" y="0">TURE</tspan></text>
      <g>
        <path class="cls-4" d="M31.44,45.58A22.38,22.38,0,0,1,19.37,34a21.09,21.09,0,0,1-1.91-7.32V12H46.31V26.69a18.29,18.29,0,0,1-2.67,8.93,25,25,0,0,1-11.45,10l-.38.17ZM19.31,26.64v.09c0,.09,0,.22,0,.38,0,.33.1.82.21,1.43a22.2,22.2,0,0,0,1.5,4.71A20.38,20.38,0,0,0,31.78,43.71a23,23,0,0,0,10.25-9,16.49,16.49,0,0,0,2.42-8V13.83H19.31Z"/>
        <text class="cls-5" transform="translate(26.04 37)">0</text>
        <text class="cls-6" transform="translate(23.77 20.92)"><tspan class="cls-7">A</tspan><tspan x="4.33" y="0">STM</tspan></text>
      </g>
    </g>
    <g>
      <text class="cls-8" transform="translate(56.93 17.45)">ASTM F2878<tspan x="-3.73" y="6">Thumb &amp; Index </tspan><tspan x="2.12" y="12">Finger Only</tspan></text>
      <path class="cls-9" d="M88.88,36.07c0-1.75-.39-3.16-.86-3.16h-.78c-.34,0-.63.73-.77,1.79h.32a5.23,5.23,0,0,1,.12-.64,1.74,1.74,0,0,1,.33-.82,5.28,5.28,0,0,1,.54,2.83,9.12,9.12,0,0,1-.21,2,1.67,1.67,0,0,1-.33.81,3,3,0,0,1-.45-1.45h-.32s0,.07,0,.11v0a.5.5,0,0,0,0,.12v0s0,0,0,.08v0a.15.15,0,0,0,0,.07v.16a.31.31,0,0,1,0,.08v0s0,.06,0,.1v0l0,.06v0l0,.06v0l0,.06v0a.14.14,0,0,1,0,.06v0l0,.08v0l0,.05v0l0,0,0,0,0,0v0l0,0h0l0,0h0l0,0h0l0,.05h0l.05,0h0l0,0H88c.47,0,.86-1.42.86-3.16m-4.35,1.07h2.69a2.58,2.58,0,0,0,.24-1.09h0a2.29,2.29,0,0,0-.24-1H84.53c0,.48,0,.89,0,1.08s0,.59,0,1.07m-.43,0a9.15,9.15,0,0,0,.05-1.07A9.32,9.32,0,0,0,84.1,35l0-.29c-.14-1.06-.43-1.79-.77-1.79h-.78c-.29,0-.54.51-.69,1.29H69.36v0h0l-.49.5h-1l-.34.51H65.4l-.69.57-6.4.11-.53.29,6.93.12.69.57h2.07l.34.51h1l.49.49h0v0H81.83v.15s0,.06,0,.08v0a.44.44,0,0,0,0,.1v0s0,0,0,.06v0l0,.06v0l0,.06v0s0,0,0,.06v0l0,.08v0l0,.05v0l0,0v0l0,0v0l0,0h0l0,0h0l0,0h0l0,.05h0l.05,0h0l0,0h.85c.34,0,.63-.73.77-1.79l0-.3m-2.34.37H70A5.56,5.56,0,0,0,70.22,36a4.94,4.94,0,0,0-.18-1.4H82l0,.08a.31.31,0,0,0,0,.08c0,.06,0,.13,0,.21a8.16,8.16,0,0,1,.06,1,6.09,6.09,0,0,1-.08,1.11l0,.16c0,.05,0,.09,0,.14s0,.05,0,.07Zm.39.43h.11a1.61,1.61,0,0,0,.19-.5l.06-.3A7.6,7.6,0,0,0,82.59,36a8.83,8.83,0,0,0-.06-1c0-.11,0-.21-.06-.29a1,1,0,0,0-.2-.49h-.12l0-.14a1.81,1.81,0,0,1,.34-.82A3.05,3.05,0,0,1,83,34.7L83,35a9.11,9.11,0,0,1,0,1.08,9.25,9.25,0,0,1,0,1.07l0,.3a5.61,5.61,0,0,1-.12.64,1.79,1.79,0,0,1-.33.81,2.09,2.09,0,0,1-.37-1M75,36a.09.09,0,0,0-.09-.09.09.09,0,0,0-.1.09v.6a.09.09,0,0,0,.1.09.09.09,0,0,0,.09-.09Zm.64.15a.1.1,0,0,0-.1-.1.1.1,0,0,0-.09.1v.45a.09.09,0,0,0,.09.09.09.09,0,0,0,.1-.09ZM77.58,36a.09.09,0,0,0-.1-.09.09.09,0,0,0-.09.09v.6a.09.09,0,0,0,.09.09.09.09,0,0,0,.1-.09Zm-1.27-.36a.1.1,0,0,0-.2,0v1a.1.1,0,0,0,.2,0Zm.63.51a.1.1,0,0,0-.09-.1.1.1,0,0,0-.1.1v.45a.09.09,0,0,0,.1.09.09.09,0,0,0,.09-.09Zm-2.54,0a.1.1,0,1,0-.2,0v.45a.1.1,0,0,0,.2,0Zm-.64-.48a.11.11,0,0,0-.1-.1h0a.09.09,0,0,0-.1.1v.93a.09.09,0,0,0,.1.09h0a.1.1,0,0,0,.1-.09Zm-2.57,0a.09.09,0,0,0-.09-.1.11.11,0,0,0-.1.1v1a.1.1,0,0,0,.2,0Zm.64.51a.1.1,0,0,0-.09-.1.1.1,0,0,0-.1.1v.45a.09.09,0,0,0,.1.09.09.09,0,0,0,.09-.09Zm1.28,0a.1.1,0,1,0-.2,0v.45a.1.1,0,0,0,.2,0ZM72.47,36a.09.09,0,0,0-.1-.09.09.09,0,0,0-.09.09v.6a.09.09,0,0,0,.09.09.09.09,0,0,0,.1-.09Zm7,.15a.1.1,0,0,0-.1-.1.1.1,0,0,0-.09.1v.45a.09.09,0,0,0,.09.09.09.09,0,0,0,.1-.09Zm-.64-.48a.1.1,0,0,0-.09-.1h0a.1.1,0,0,0-.1.1v.93a.09.09,0,0,0,.1.09h0a.09.09,0,0,0,.09-.09Zm-.65.48a.1.1,0,0,0-.2,0v.45a.1.1,0,0,0,.2,0Zm2.56,0a.1.1,0,0,0-.09-.1.1.1,0,0,0-.1.1v.45a.09.09,0,0,0,.1.09.09.09,0,0,0,.09-.09ZM80.15,36a.1.1,0,0,0-.2,0v.6a.1.1,0,0,0,.2,0Zm1.27-.36a.1.1,0,0,0-.1-.1.1.1,0,0,0-.09.1v1a.09.09,0,0,0,.09.09.09.09,0,0,0,.1-.09Z"/>
      <text class="cls-8" transform="translate(57.16 46)">Hypodermic <tspan x="7.78" y="6">Needle</tspan></text>
    </g>
    <rect class="cls-10" x="9.57" y="6.89" width="88.76" height="50.38"/>
  </g>
</svg>
