<svg id="Layer_1" data-name="Layer 1" xmlns="http://www.w3.org/2000/svg" viewBox="0 0 48.45 62.6"><defs><style>.cls-1{fill:#3bb54a;}.cls-2{font-size:4.22px;fill:#fff;font-family:HelveticaNeueLTStd-Bd, Helvetica Neue LT Std;}</style></defs><path class="cls-1" d="M24.22,16.62A14.68,14.68,0,1,1,9.54,31.3,14.7,14.7,0,0,1,24.22,16.62m0-6.64A21.32,21.32,0,1,0,45.54,31.3,21.31,21.31,0,0,0,24.22,10Z"/><g id="g1864"><g id="g1850"><path id="path1846" class="cls-1" d="M23.72,35h-4.8l-2.16,3.75a.25.25,0,0,0,0,.07l0,.08a.19.19,0,0,0,0,.07s0,.06,0,.08v.17a.22.22,0,0,0,0,.08.24.24,0,0,0,0,.08.24.24,0,0,0,0,.08.25.25,0,0,0,0,.07h0l0,.08,0,.06.05.06.06.06.07,0,.07,0,.07,0,.08,0,.08,0h6.41Z"/><path id="path1848" class="cls-1" d="M21,34.41l-2-5.19-5.51.84,1.61.93-1.59,2.77a.16.16,0,0,0,0,.07l0,.07a.31.31,0,0,0,0,.08s0,.06,0,.08v.17a.22.22,0,0,0,0,.08.24.24,0,0,0,0,.08l0,.08,0,.07a.16.16,0,0,0,0,.07l2.83,4.9,0-.07,0-.08,0-.08s0-.05,0-.08v-.08a.19.19,0,0,1,0-.08.28.28,0,0,1,0-.09s0-.05,0-.07l0-.08,0-.07L18.5,35l.87-1.5Z"/></g><g id="g1856"><path id="path1852" class="cls-1" d="M27.47,30.46l2.4,4.16h4.48l.08,0,.08,0,.08,0,.07,0,.06,0,.06,0,.06-.07,0-.06h0l0-.08,0-.07A.24.24,0,0,0,35,34a.19.19,0,0,0,0-.08.19.19,0,0,0,0-.08V33.7s0-.06,0-.08a.19.19,0,0,0,0-.08l0-.08,0-.07h0L31.78,28Z"/><path id="path1854" class="cls-1" d="M28.34,33.12l-3.48,4.35,3.48,4.35V40H31.7l.07,0,.08,0,.08,0,.07,0,.06,0,.06-.06.05-.06,0-.07a.16.16,0,0,0,0-.07l2.83-4.9-.05.07,0,.06-.06,0a.18.18,0,0,1-.07.05l-.07,0-.07,0-.08,0-.08,0H28.34Z"/></g><g id="g1862"><path id="path1858" class="cls-1" d="M21.65,29.54l2.4-4.16-2.16-3.75-.05-.07-.05-.06-.05-.06a.18.18,0,0,0-.07-.05l-.06-.05-.08,0-.07,0-.08,0-.08,0h-.25l-.08,0-.08,0-.07,0-.07,0-.07.05-.06.05-.06.06a.18.18,0,0,0,0,.07.21.21,0,0,0,0,.06h0l-3.13,5.42Z"/><path id="path1860" class="cls-1" d="M23.51,27.45l5.51.84,2-5.19L29.44,24l-1.6-2.76-.05-.07-.05-.06,0-.06L27.62,21l-.06,0-.08,0-.07,0-.08,0H21.59l.08,0,.07,0,.07,0a.18.18,0,0,1,.07.05l.06,0,.06.06.05.06a.25.25,0,0,1,0,.07L24.26,25l.87,1.51Z"/></g></g><path class="cls-1" d="M24.22,46.49A15.15,15.15,0,1,1,39.38,31.34,15.17,15.17,0,0,1,24.22,46.49Zm0-29.31A14.16,14.16,0,1,0,38.39,31.34,14.18,14.18,0,0,0,24.22,17.18Z"/><text class="cls-2" transform="translate(10.09 44.72) rotate(42.01)">R</text><text class="cls-2" transform="matrix(0.84, 0.54, -0.54, 0.84, 12.65, 46.96)">E</text><text class="cls-2" transform="matrix(0.92, 0.39, -0.39, 0.92, 15.25, 48.6)">C</text><text class="cls-2" transform="translate(18.49 49.92) rotate(12.91)">Y</text><text class="cls-2" transform="translate(21.6 50.61) rotate(3.08)">C</text><text class="cls-2" transform="translate(25.06 50.75) rotate(-6.07)">L</text><text class="cls-2" transform="matrix(0.97, -0.26, 0.26, 0.97, 27.86, 50.44)">A</text><text class="cls-2" transform="matrix(0.91, -0.42, 0.42, 0.91, 31, 49.57)">B</text><text class="cls-2" transform="translate(33.97 48.15) rotate(-33.78)">L</text><text class="cls-2" transform="matrix(0.74, -0.67, 0.67, 0.74, 36.32, 46.56)">E</text></svg>