<svg id="Layer_1" data-name="Layer 1" xmlns="http://www.w3.org/2000/svg" viewBox="0 0 99.66 52.81"><defs><style>.cls-1{fill:#808285;}.cls-2{fill:#fff;}</style></defs><path class="cls-1" d="M23.28,17.66a7,7,0,1,1,7,7,7,7,0,0,1-7-7m1.62,0a5.36,5.36,0,1,0,5.36-5.36A5.36,5.36,0,0,0,24.9,17.66Z"/><path class="cls-1" d="M26.08,17.66a4.18,4.18,0,1,1,4.18,4.18,4.18,4.18,0,0,1-4.18-4.18m1.61,0a2.57,2.57,0,1,0,2.57-2.57A2.57,2.57,0,0,0,27.69,17.66Z"/><path class="cls-1" d="M25.73,42.13a13.52,13.52,0,0,1-4.1-.8l-1.2-.43V38.37a10.28,10.28,0,0,1-2.1-4.1c-.65-2.57,1.1-8.6,1.1-8.6a46.56,46.56,0,0,1,7.05-2.79s.57-6.52.57-6.52l4.31,1.34L32.05,27a4.09,4.09,0,0,1,1.74-.4,4.35,4.35,0,0,1,2.84,1.13L38,28.84l-1.1,1.38a35.08,35.08,0,0,0-3.66,5.63c-.74,1.37-1.28,2.36-2.32,2.84l-.27.12v2l-1.06.49a10.27,10.27,0,0,1-3.83.85"/><path class="cls-2" d="M31,30.49,30,18.77l-1.86-.5-.3,9.34h-.21l-.46-2.92-1.95.56-.46,2.36h-.21l-.28-2.06-1.68.7-.35,2h-.21l-.25-1.65-1.17.59s-1.14,4.26-.55,6.62a8.59,8.59,0,0,0,2.15,3.83v2a12.62,12.62,0,0,0,3.49.68,8.49,8.49,0,0,0,3.07-.68v-2L30.14,37c1.08-.49,1.62-3.31,5.32-7.95C32.9,26.93,31,30.49,31,30.49"/><path class="cls-1" d="M41.53,25H40.22v-.44h3.14V25H42.05v3.49h-.52Z"/><path class="cls-1" d="M45.46,24.5a1.89,1.89,0,0,1,1.89,2.06,1.89,1.89,0,1,1-3.77,0A1.88,1.88,0,0,1,45.46,24.5Zm0,3.68c1,0,1.36-.83,1.36-1.62s-.4-1.62-1.36-1.62-1.36.82-1.36,1.62A1.44,1.44,0,0,0,45.46,28.18Z"/><path class="cls-1" d="M51.13,27.1a1.39,1.39,0,0,1-1.55,1.52c-1,0-1.61-.47-1.61-1.52V24.59h.52V27.1a1,1,0,0,0,1.09,1.08,1,1,0,0,0,1-1.08V24.59h.52Z"/><path class="cls-1" d="M54.73,25.77a1,1,0,0,0-1.1-.83c-.93,0-1.33.77-1.33,1.59s.4,1.65,1.34,1.65A1.11,1.11,0,0,0,54.77,27h.53a1.61,1.61,0,0,1-1.71,1.58,1.81,1.81,0,0,1-1.81-2.05,1.86,1.86,0,0,1,1.86-2.07,1.5,1.5,0,0,1,1.62,1.27Z"/><path class="cls-1" d="M56,24.59h.52v1.69h2.07V24.59h.53v3.93h-.53v-1.8H56.47v1.8H56Z"/><path class="cls-1" d="M62.2,25.74a.85.85,0,0,0-1-.8c-.44,0-.88.16-.88.67s.62.56,1.26.7,1.25.36,1.25,1.13-.82,1.18-1.53,1.18c-.88,0-1.63-.43-1.63-1.39h.5c0,.66.55.95,1.14.95s1-.15,1-.72-.63-.63-1.25-.77-1.27-.32-1.27-1,.71-1.15,1.43-1.15,1.42.38,1.45,1.24Z"/><path class="cls-1" d="M66.26,25.77a1,1,0,0,0-1.1-.83c-.93,0-1.33.77-1.33,1.59s.4,1.65,1.34,1.65A1.11,1.11,0,0,0,66.3,27h.53a1.61,1.61,0,0,1-1.71,1.58,1.81,1.81,0,0,1-1.81-2.05,1.86,1.86,0,0,1,1.86-2.07,1.5,1.5,0,0,1,1.62,1.27Z"/><path class="cls-1" d="M67.48,24.59h1.85c.74,0,1.2.4,1.2,1a1,1,0,0,1-.69,1h0c.46.09.55.42.59.81a2,2,0,0,0,.23,1.08h-.58c-.15-.16-.07-.58-.14-1s-.15-.71-.66-.71H68v1.68h-.52Zm1.61,1.81c.49,0,.91-.12.91-.7a.62.62,0,0,0-.7-.67H68V26.4Z"/><path class="cls-1" d="M71.25,24.59H74V25H71.78v1.25h2v.44h-2v1.36H74v.44H71.25Z"/><path class="cls-1" d="M74.62,24.59h2.72V25H75.15v1.25h2v.44h-2v1.36h2.2v.44H74.62Z"/><path class="cls-1" d="M78,24.59h.56l2.07,3.19h0V24.59h.5v3.93h-.57l-2.06-3.15h0v3.15H78Z"/><path class="cls-1" d="M43.54,33.19a1,1,0,0,0-1-.8c-.91,0-1.25.77-1.25,1.57s.34,1.54,1.25,1.54a1,1,0,0,0,1-1h1a2,2,0,0,1-2,1.88A2.22,2.22,0,0,1,40.28,34a2.23,2.23,0,0,1,2.26-2.42,1.86,1.86,0,0,1,2,1.65Z"/><path class="cls-1" d="M47.3,31.54A2.22,2.22,0,0,1,49.56,34a2.26,2.26,0,1,1-4.51,0A2.22,2.22,0,0,1,47.3,31.54Zm0,4c.91,0,1.25-.77,1.25-1.54s-.34-1.57-1.25-1.57-1.24.77-1.24,1.57S46.4,35.5,47.3,35.5Z"/><path class="cls-1" d="M50.25,31.65h1.42l1.07,3.15h0l1-3.15H55.2v4.59h-1V33h0l-1.13,3.26h-.78L51.21,33h0v3.22h-.94Z"/><path class="cls-1" d="M56.08,31.65h2.07a1.47,1.47,0,1,1,0,2.94H57.09v1.65h-1Zm1,2.16h.79c.46,0,.88-.11.88-.69s-.42-.69-.88-.69h-.79Z"/><path class="cls-1" d="M61.15,31.65h1l1.72,4.59h-1l-.34-1H60.79l-.36,1h-1Zm-.1,2.81h1.19l-.58-1.68h0Z"/><path class="cls-1" d="M64.84,32.49H63.46v-.84h3.77v.84H65.85v3.75h-1Z"/><path class="cls-1" d="M67.75,31.65h1v4.59h-1Z"/><path class="cls-1" d="M69.65,31.65h2.16c.88,0,1.47.28,1.47,1.13a1,1,0,0,1-.63,1,1.13,1.13,0,0,1,.85,1.17c0,.93-.8,1.33-1.63,1.33H69.65Zm1,1.85h1c.36,0,.62-.16.62-.54s-.33-.53-.7-.53h-.94Zm0,2h1.08c.4,0,.75-.12.75-.6s-.3-.66-.73-.66h-1.1Z"/><path class="cls-1" d="M74.18,31.65h1v3.74h2.23v.85H74.18Z"/><path class="cls-1" d="M78,31.65h3.44v.84H79v1h2.23v.78H79v1.13h2.48v.85H78Z"/></svg>