<svg id="Layer_1" data-name="Layer 1" xmlns="http://www.w3.org/2000/svg" viewBox="0 0 48.91 52.81"><defs><style>.cls-1{font-size:6.74px;}.cls-1,.cls-3,.cls-4{font-family:FuturaPT-Bold, Futura PT;font-weight:700;}.cls-2{letter-spacing:-0.03em;}.cls-3{font-size:18.84px;}.cls-4{font-size:6.18px;}</style></defs><text class="cls-1" transform="translate(7.08 47.74)">ABR<tspan class="cls-2" x="13.17" y="0">A</tspan><tspan x="17.79" y="0">SION</tspan></text><path d="M24.35,39.93a21.88,21.88,0,0,1-11.78-11.3,21,21,0,0,1-1.87-7.15V7.08H38.87V21.46a17.82,17.82,0,0,1-2.61,8.73,24.32,24.32,0,0,1-11.18,9.73l-.36.16ZM12.51,21.41v.1c0,.08,0,.21,0,.37,0,.32.1.8.21,1.39a21.36,21.36,0,0,0,1.46,4.61A19.89,19.89,0,0,0,24.69,38.1a22.48,22.48,0,0,0,10-8.83,16.07,16.07,0,0,0,2.36-7.81V8.9H12.51Z"/><text class="cls-3" transform="translate(18.9 31.54)">3</text><text class="cls-4" transform="translate(17.41 15.82)">ANSI</text></svg>