<svg id="Layer_1" data-name="Layer 1" xmlns="http://www.w3.org/2000/svg" viewBox="0 0 90 52.81">
  <defs>
    <style>
      .cls-1 {
        font-size: 7px;
        font-family: HelveticaNeueLTStd-Bd, Helvetica Neue LT Std;
      }
    </style>
  </defs>
  <polyline points="53.36 6.04 56.49 6.04 56.49 6.8 54.36 6.8 54.36 7.92 56.35 7.92 56.35 8.68 54.36 8.68 54.36 9.94 56.56 9.94 56.56 10.72 53.36 10.72 53.36 6.04"/>
  <polyline points="57.3 6.04 58.75 6.04 60.5 9.72 60.5 6.04 61.43 6.04 61.43 10.72 60.05 10.72 58.24 6.83 58.24 10.72 57.3 10.72 57.3 6.04"/>
  <path d="M62,9.73V8.86L63.78,6.2h1V9h.61v.74h-.61v1h-1v-1H62M62.69,9h1.14V7.82c0-.06,0-.38,0-.5Z"/>
  <path d="M67.28,6.13a1.4,1.4,0,0,1,1.18.6,2.69,2.69,0,0,1,.4,1.63c0,1.05-.24,2.43-1.59,2.43-1.16,0-1.56-1.11-1.56-2.32,0-.6.12-2.34,1.57-2.34m.5,1.28c0-.12-.14-.53-.49-.53a.51.51,0,0,0-.45.39,4.84,4.84,0,0,0-.15,1.27c0,.77.12,1.49.6,1.49s.6-.88.6-1.51A5.35,5.35,0,0,0,67.78,7.41Z"/>
  <polyline points="69.3 6.21 72.36 6.21 72.36 7.01 70.81 10.72 69.73 10.72 71.38 6.96 69.3 6.96 69.3 6.21"/>
  <path d="M62.56,39.82a18.58,18.58,0,0,1-10-9.59A17.6,17.6,0,0,1,51,24.15h0V12H74.75V24.16a15.36,15.36,0,0,1-2.21,7.39A20.73,20.73,0,0,1,63,39.81l-.23.11-.24-.1M52.12,24.22c0,.07,0,.18,0,.32s.09.7.18,1.21a18.43,18.43,0,0,0,1.27,4,17.39,17.39,0,0,0,9.19,8.91A19.42,19.42,0,0,0,71.55,31a14.16,14.16,0,0,0,2.06-6.81v-11H52.11v11A.58.58,0,0,0,52.12,24.22Z"/>
  <path d="M61.18,32.89s-4.73.38-5.06-4.46a13.82,13.82,0,0,0,.17-3c.43.27.86.48.86.48a4.5,4.5,0,0,1,.53-2.36,2,2,0,0,0,0-1.45s.65.27.7.53c.27-.7,1.22-2,1.4-2.68a1.81,1.81,0,0,0,.16-1s.75.48.75.75c.74-1.5,1.28-1.71,1.62-2.58a6.91,6.91,0,0,0,.16-2.37c.1.64,2.15,2,2.52,3.23a14.61,14.61,0,0,1,.17,2.42A1.81,1.81,0,0,0,66.23,19c.22.65,1.78,2.85,1.78,4.25a.74.74,0,0,0,.48-.75,9,9,0,0,1,.75,5.32c.22-.32.92-.43.92-.43a5.43,5.43,0,0,0-.81,1.5c-.23.57-2.31,4.14-5.43,4,1.79-.72,3.7-4,3.66-7.1-.4.19-.72,0-1.27.29s-.78.57-.78.57a5,5,0,0,0,.59-2.26c-.05-1.07-.1-1.93-.1-1.93a4.45,4.45,0,0,1-1.67,1.61,4.16,4.16,0,0,0,0-3.23c0,.7-.23,1.19-1.29,2.05a13.22,13.22,0,0,0-1.24,1.45,3.09,3.09,0,0,1-1.45-2c-.54,2.15-.86,3.71,0,5.59-.43-.32-1.13-.38-1.34-1.34A3.33,3.33,0,0,0,59,28.59a2.37,2.37,0,0,1-.91-.54s-.11,3.82,3.12,4.84"/>
  <rect x="59.32" y="33.57" width="7.64" height="1.45"/>
  <text class="cls-1" transform="translate(50.02 46.86)">312XXX</text>
  <path d="M24.69,39.82a18.55,18.55,0,0,1-10-9.59,18.06,18.06,0,0,1-1.59-6.08h0V12H36.87V24.16a15.32,15.32,0,0,1-2.2,7.39,20.76,20.76,0,0,1-9.52,8.26l-.23.11-.23-.1M14.24,24.22a2.5,2.5,0,0,0,0,.32c0,.28.08.7.18,1.21a18.43,18.43,0,0,0,1.27,4,17.37,17.37,0,0,0,9.18,8.91A19.51,19.51,0,0,0,33.68,31a14.24,14.24,0,0,0,2-6.81v-11H14.24v11Z"/>
  <text class="cls-1" transform="translate(19.14 46.86)">033</text>
  <g>
    <path d="M16.31,6.46h3V7.3H17.41v.92h1.8v.85h-1.8V10h2v.85H16.31Z"/>
    <path d="M20,6.45h1.53L22.9,9.74V6.45h1v4.41h-1.5L21,7.43v3.43H20Z"/>
    <path d="M25.6,9.65a.45.45,0,0,0,.48.49.44.44,0,0,0,.44-.28,1.12,1.12,0,0,0,.09-.45c0-.33-.13-.66-.5-.66a.43.43,0,0,0-.44.38l-1.07,0,.08-2.49h2.78v.84H25.65l-.07,1a.88.88,0,0,1,.4-.4A1,1,0,0,1,26.49,8c.56,0,1.2.37,1.2,1.4a1.76,1.76,0,0,1-.42,1.18,1.54,1.54,0,0,1-1.14.41,1.73,1.73,0,0,1-1.31-.49,1.21,1.21,0,0,1-.28-.82Z"/>
    <path d="M29.51,7.71a2.88,2.88,0,0,1-.94.53V7.3a2.73,2.73,0,0,0,1.12-.68h.89v4.24H29.51Z"/>
    <path d="M32.58,7.71a2.88,2.88,0,0,1-.94.53V7.3a2.64,2.64,0,0,0,1.11-.68h.9v4.24H32.58Z"/>
  </g>
  <path d="M31.52,26.52l-.75-1.25-1,.55V23.74l1,.55L31.52,23l-1.07-.59,2.4-1.16L32.19,20l-2.41,1.16v-1H28.29v1.11l-1.82-1,1-.54-.74-1.25-1,.57V16.24H24.17v2.69l-.89-.5-.75,1.25,1,.54-1.83,1V20.13H20.19v1L17.77,20l-.66,1.29,2.41,1.16L18.45,23l.75,1.25,1-.55v2.08l-1-.55-.75,1.25,1,.54-2.3,1.11.66,1.29,2.42-1.16v1.16h1.48V28.33l1.83,1-1,.54.75,1.25.89-.51v2.71h1.49V30.56l1,.58.74-1.25-1-.54,1.82-1v1.13h1.49V28.3l2.41,1.16.66-1.3-2.3-1.1M25,28.51l-3.31-1.85V22.91L25,21.05l3.31,1.86v3.75Z"/>
</svg>
