<svg id="Layer_1" data-name="Layer 1" xmlns="http://www.w3.org/2000/svg" viewBox="0 0 48.91 52.81"><defs><style>.cls-1{font-size:6.73px;}.cls-1,.cls-3,.cls-4{font-family:FuturaPT-Bold, Futura PT;font-weight:700;}.cls-2{letter-spacing:-0.03em;}.cls-3{font-size:18.83px;}.cls-4{font-size:6.18px;}</style></defs><text class="cls-1" transform="translate(15.83 47.54)">HE<tspan class="cls-2" x="8.25" y="0">A</tspan><tspan x="12.83" y="0">T</tspan></text><path d="M23.57,39.73A21.86,21.86,0,0,1,11.79,28.44,20.55,20.55,0,0,1,9.93,21.3V6.92H38.1V21.29A17.91,17.91,0,0,1,35.49,30a24.34,24.34,0,0,1-11.18,9.72l-.37.17ZM11.74,21.23v.1a3.32,3.32,0,0,0,0,.37c0,.32.09.8.2,1.39a21.1,21.1,0,0,0,1.47,4.61A19.87,19.87,0,0,0,23.91,37.9a22.44,22.44,0,0,0,10-8.81,16.07,16.07,0,0,0,2.36-7.8V8.73H11.74Z"/><text class="cls-3" transform="translate(18.49 31.35)">2</text><text class="cls-4" transform="translate(16.64 15.65)">ANSI</text></svg>