<?xml version="1.0" encoding="UTF-8"?><svg id="Layer_1" xmlns="http://www.w3.org/2000/svg" viewBox="0 0 606 400"><defs><style>.cls-1{fill:#231f20;}</style></defs><g><path class="cls-1" d="M82.36,126.76v19.15H36.58v-19.15h45.78Z"/><path class="cls-1" d="M119.04,183.25V102.09h-22.89v-15.26h2.11c15.26,0,24.67-5.84,26.95-18.5h17.21v114.92h-23.37Z"/><path class="cls-1" d="M236.4,88.78h-42.37l-2.43,26.13h.32c4.38-6.01,11.2-8.6,21.1-8.6,22.08,0,28.08,18.5,28.08,36.69,0,25.16-7.3,42.53-36.85,42.53s-33.92-19.15-33.92-31.98v-3.08h22.4c0,7.63,1.3,18.83,11.36,18.83,9.42,0,13.64-7.47,13.64-22.4,0-18.99-2.92-24.35-13.47-24.35-6.65,0-10.23,4.06-11.04,10.55h-20.94l4.22-62.49h59.9v18.18Z"/><path class="cls-1" d="M277.8,68.33c13.31,0,24.02,10.71,24.02,24.02s-10.71,24.02-24.02,24.02-24.02-10.71-24.02-24.02,10.71-24.02,24.02-24.02Zm0,35.71c6.49,0,11.69-5.19,11.69-11.69s-5.19-11.69-11.69-11.69-11.69,5.19-11.69,11.69,5.19,11.69,11.69,11.69Z"/><path class="cls-1" d="M359.82,106.47c0-16.88-2.93-24.19-12.01-24.19-10.19,0-12.56,11.85-12.56,44.64,0,35.06,4.19,41.39,12.84,41.39,7.26,0,12.56-4.38,12.56-29.38h20.1c0,25-5.3,46.59-31.69,46.59-30.15,0-33.92-25-33.92-60.22s3.77-60.22,33.92-60.22,30.85,24.51,30.85,41.39h-20.1Z"/><path class="cls-1" d="M236.21,236.97h-42.37l-2.44,26.13h.32c4.38-6.01,11.2-8.6,21.1-8.6,22.08,0,28.08,18.5,28.08,36.68,0,25.16-7.3,42.53-36.85,42.53s-33.92-19.15-33.92-31.98v-3.08h22.4c0,7.63,1.3,18.83,11.36,18.83,9.42,0,13.64-7.47,13.64-22.4,0-18.99-2.92-24.35-13.47-24.35-6.66,0-10.23,4.06-11.04,10.55h-20.94l4.22-62.49h59.9v18.18Z"/><path class="cls-1" d="M277.6,216.52c13.31,0,24.02,10.71,24.02,24.02s-10.71,24.02-24.02,24.02-24.02-10.71-24.02-24.02,10.71-24.02,24.02-24.02Zm0,35.71c6.49,0,11.69-5.19,11.69-11.69s-5.19-11.69-11.69-11.69-11.69,5.19-11.69,11.69,5.19,11.69,11.69,11.69Z"/><path class="cls-1" d="M318.18,215.54h64.77v19.15h-41.39v27.27h38.96v19.15h-38.96v50.32h-23.38v-115.9Z"/></g><polygon class="cls-1" points="418.1 47.81 418.1 353.19 435.63 353.19 435.63 328.5 452.45 345.5 464.84 333.08 435.63 303.84 435.63 232 486.77 283.02 486.77 310.04 504.27 310.04 504.27 300.55 524 320.25 536.29 307.98 515.74 287.43 525.81 285.64 522.76 268.55 500.71 272.4 447.49 219.05 526.22 219.05 559.31 252.14 571.56 239.87 550.74 219.05 583.42 219.05 583.42 201.53 550.33 201.53 571.56 180.3 559.31 168.03 525.81 201.53 448.72 201.53 500.83 149.44 522.76 153.29 525.81 136.18 515.87 134.39 536.29 113.98 524 101.56 504.27 121.29 504.27 111.78 486.77 111.78 486.77 138.79 435.63 189.81 435.63 106.41 465.96 75.93 453.68 63.66 435.63 81.72 435.63 47.81 418.1 47.81"/></svg>