<?xml version="1.0" encoding="UTF-8"?><svg id="Layer_1" xmlns="http://www.w3.org/2000/svg" viewBox="0 0 606 400"><defs><style>.cls-1{fill:#231f20;}</style></defs><g><path class="cls-1" d="M178.39,68.33c27.76,0,36.04,15.1,36.04,55.84,0,31.98-1.79,61.36-36.04,61.36-27.76,0-36.04-15.1-36.04-55.84,0-31.82,1.79-61.36,36.04-61.36Zm-12.66,66.39c0,28.89,2.6,35.55,12.66,35.55s12.66-9.09,12.66-38.63v-12.5c0-28.89-2.6-35.55-12.66-35.55s-12.66,9.09-12.66,38.63v12.5Z"/><path class="cls-1" d="M249.81,68.33c13.31,0,24.02,10.71,24.02,24.02s-10.71,24.02-24.02,24.02-24.02-10.71-24.02-24.02,10.71-24.02,24.02-24.02Zm0,35.71c6.49,0,11.69-5.19,11.69-11.69s-5.19-11.69-11.69-11.69-11.69,5.19-11.69,11.69,5.19,11.69,11.69,11.69Z"/><path class="cls-1" d="M331.83,106.47c0-16.88-2.93-24.19-12.01-24.19-10.19,0-12.56,11.85-12.56,44.64,0,35.06,4.19,41.39,12.84,41.39,7.26,0,12.56-4.38,12.56-29.38h20.1c0,25-5.3,46.59-31.69,46.59-30.15,0-33.92-25-33.92-60.22s3.77-60.22,33.92-60.22,30.85,24.51,30.85,41.39h-20.1Z"/><path class="cls-1" d="M86.97,297.84c.32,13.31,2.6,20.62,12.82,20.62,11.36,0,12.82-8.44,12.82-18.5s-2.27-19.64-15.1-19.64h-7.79v-15.26h7.63c9.74,0,13.31-8.77,13.31-18.18,0-10.71-3.57-15.1-11.2-15.1-10.06,0-11.85,7.79-11.85,18.67h-21.43c0-22.56,12.01-33.93,33.76-33.93s33.11,9.25,33.11,29.54c0,13.8-6.66,22.89-17.53,25.32v.32c14.77,2.27,20.45,12.66,20.45,27.11,0,15.42-6.33,34.9-38.15,34.9-22.24,0-33.28-13.47-33.28-35.39v-.49h22.4Z"/><path class="cls-1" d="M212.93,331.44h-70.77c0-20.45,8.28-34.57,25.32-50.32l9.42-8.77c10.23-9.25,12.01-14.45,12.01-26.3,0-9.58-4.06-14.28-11.36-14.28-11.69,0-12.82,10.23-12.99,22.4h-22.4v-4.38c0-21.26,11.2-33.28,35.71-33.28,23.05,0,34.41,11.52,34.41,31.33,0,14.93-4.71,24.67-17.86,36.52l-12.99,12.01c-6.82,6.17-10.71,12.5-11.85,16.88h43.34v18.18Z"/><path class="cls-1" d="M249.61,216.52c13.31,0,24.02,10.71,24.02,24.02s-10.71,24.02-24.02,24.02-24.02-10.71-24.02-24.02,10.71-24.02,24.02-24.02Zm0,35.71c6.49,0,11.69-5.19,11.69-11.69s-5.19-11.69-11.69-11.69-11.69,5.19-11.69,11.69,5.19,11.69,11.69,11.69Z"/><path class="cls-1" d="M290.2,215.54h64.77v19.15h-41.39v27.27h38.96v19.15h-38.96v50.32h-23.37v-115.9Z"/></g><polygon class="cls-1" points="390.12 47.81 390.12 353.19 407.64 353.19 407.64 328.5 424.47 345.5 436.86 333.08 407.64 303.84 407.64 232 458.79 283.02 458.79 310.04 476.29 310.04 476.29 300.55 496.01 320.25 508.31 307.98 487.76 287.43 497.83 285.64 494.78 268.55 472.73 272.4 419.5 219.05 498.24 219.05 531.33 252.14 543.58 239.87 522.76 219.05 555.44 219.05 555.44 201.53 522.35 201.53 543.58 180.3 531.33 168.03 497.83 201.53 420.74 201.53 472.85 149.44 494.78 153.29 497.83 136.18 487.88 134.39 508.31 113.98 496.01 101.56 476.29 121.29 476.29 111.78 458.79 111.78 458.79 138.79 407.64 189.81 407.64 106.41 437.97 75.93 425.7 63.66 407.64 81.72 407.64 47.81 390.12 47.81"/></svg>