<?xml version="1.0" encoding="UTF-8"?><svg id="Layer_1" xmlns="http://www.w3.org/2000/svg" viewBox="0 0 606 400"><defs><style>.cls-1{fill:#231f20;}</style></defs><g><path class="cls-1" d="M82.45,126.76v19.15H36.67v-19.15h45.77Z"/><path class="cls-1" d="M115.24,149.65c.32,13.31,2.6,20.62,12.82,20.62,11.36,0,12.82-8.44,12.82-18.5s-2.27-19.64-15.1-19.64h-7.79v-15.26h7.63c9.74,0,13.31-8.77,13.31-18.18,0-10.71-3.57-15.1-11.2-15.1-10.06,0-11.85,7.79-11.85,18.67h-21.43c0-22.56,12.01-33.93,33.76-33.93s33.11,9.25,33.11,29.54c0,13.8-6.66,22.89-17.53,25.32v.32c14.77,2.27,20.45,12.66,20.45,27.11,0,15.42-6.33,34.9-38.15,34.9-22.24,0-33.28-13.47-33.28-35.39v-.49h22.4Z"/><path class="cls-1" d="M206.47,68.33c27.76,0,36.04,15.1,36.04,55.84,0,31.98-1.79,61.36-36.04,61.36-27.76,0-36.04-15.1-36.04-55.84,0-31.82,1.79-61.36,36.04-61.36Zm-12.66,66.39c0,28.89,2.6,35.55,12.66,35.55s12.66-9.09,12.66-38.63v-12.5c0-28.89-2.6-35.55-12.66-35.55s-12.66,9.09-12.66,38.63v12.5Z"/><path class="cls-1" d="M277.89,68.33c13.31,0,24.02,10.71,24.02,24.02s-10.71,24.02-24.02,24.02-24.02-10.71-24.02-24.02,10.71-24.02,24.02-24.02Zm0,35.71c6.49,0,11.69-5.19,11.69-11.69s-5.19-11.69-11.69-11.69-11.69,5.19-11.69,11.69,5.19,11.69,11.69,11.69Z"/><path class="cls-1" d="M359.91,106.47c0-16.88-2.93-24.19-12.01-24.19-10.19,0-12.56,11.85-12.56,44.64,0,35.06,4.19,41.39,12.84,41.39,7.26,0,12.56-4.38,12.56-29.38h20.1c0,25-5.3,46.59-31.69,46.59-30.15,0-33.92-25-33.92-60.22s3.77-60.22,33.92-60.22,30.85,24.51,30.85,41.39h-20.1Z"/><path class="cls-1" d="M82.26,274.95v19.15H36.48v-19.15h45.77Z"/><path class="cls-1" d="M163.09,331.44H92.32c0-20.45,8.28-34.57,25.32-50.32l9.42-8.77c10.23-9.25,12.01-14.45,12.01-26.3,0-9.58-4.06-14.28-11.36-14.28-11.69,0-12.82,10.23-12.99,22.4h-22.4v-4.38c0-21.26,11.2-33.28,35.71-33.28,23.05,0,34.41,11.52,34.41,31.33,0,14.93-4.71,24.67-17.86,36.52l-12.99,12.01c-6.82,6.17-10.71,12.5-11.85,16.88h43.34v18.18Z"/><path class="cls-1" d="M241.01,331.44h-70.77c0-20.45,8.28-34.57,25.32-50.32l9.42-8.77c10.23-9.25,12.01-14.45,12.01-26.3,0-9.58-4.06-14.28-11.36-14.28-11.69,0-12.82,10.23-12.99,22.4h-22.4v-4.38c0-21.26,11.2-33.28,35.71-33.28,23.05,0,34.41,11.52,34.41,31.33,0,14.93-4.71,24.67-17.86,36.52l-12.99,12.01c-6.82,6.17-10.71,12.5-11.85,16.88h43.34v18.18Z"/><path class="cls-1" d="M277.7,216.52c13.31,0,24.02,10.71,24.02,24.02s-10.71,24.02-24.02,24.02-24.02-10.71-24.02-24.02,10.71-24.02,24.02-24.02Zm0,35.71c6.49,0,11.69-5.19,11.69-11.69s-5.2-11.69-11.69-11.69-11.69,5.19-11.69,11.69,5.19,11.69,11.69,11.69Z"/><path class="cls-1" d="M318.28,215.54h64.77v19.15h-41.39v27.27h38.96v19.15h-38.96v50.32h-23.37v-115.9Z"/></g><polygon class="cls-1" points="418.2 47.81 418.2 353.19 435.73 353.19 435.73 328.5 452.55 345.5 464.94 333.08 435.73 303.84 435.73 232 486.87 283.02 486.87 310.04 504.37 310.04 504.37 300.55 524.1 320.25 536.39 307.98 515.84 287.43 525.91 285.64 522.86 268.55 500.81 272.4 447.59 219.05 526.32 219.05 559.41 252.14 571.66 239.87 550.84 219.05 583.52 219.05 583.52 201.53 550.43 201.53 571.66 180.3 559.41 168.03 525.91 201.53 448.82 201.53 500.93 149.44 522.86 153.29 525.91 136.18 515.96 134.39 536.39 113.98 524.1 101.56 504.37 121.29 504.37 111.78 486.87 111.78 486.87 138.79 435.73 189.81 435.73 106.41 466.05 75.93 453.78 63.66 435.73 81.72 435.73 47.81 418.2 47.81"/></svg>