<svg id="Layer_1" data-name="Layer 1" xmlns="http://www.w3.org/2000/svg" viewBox="0 0 80 50"><defs><style>.cls-1,.cls-2{font-size:16px;}.cls-1{font-family:HelveticaNeueLTStd-BdCn, Helvetica Neue LT Std;}.cls-2{font-family:HelveticaNeueLTStd-LtCn, Helvetica Neue LT Std;}</style></defs><text class="cls-1" transform="translate(24.18 23.19)">5°C</text><text class="cls-2" transform="translate(11.17 38.19)">(40°F)</text><path d="M57.6,4.07H52.54A2.81,2.81,0,0,0,49.66,7V43.28a2.8,2.8,0,0,0,2.88,2.88H57.6a2.81,2.81,0,0,0,2.89-2.88V7A2.81,2.81,0,0,0,57.6,4.07Zm1.62,24.15H53.94v1.26h5.28v1.23H56.31V32h2.91V33.2H56.31v1.26h2.91v1.23H53.94V37h5.28v1.23H56.31v1.26h2.91v3.84A1.55,1.55,0,0,1,57.6,44.9H52.54a1.53,1.53,0,0,1-1.61-1.62V7a1.53,1.53,0,0,1,1.62-1.61H57.6A1.54,1.54,0,0,1,59.22,7v3.84H56.31v1.26h2.91v1.23H53.94v1.26h5.28v1.23H56.31V17h2.91v1.23H56.31v1.26h2.91v1.23H53.94V22h5.28v1.23H56.31V24.5h2.91v1.23H56.31V27h2.91Z"/><polygon points="74.37 26.51 72 26.51 73.51 28.02 72.62 28.91 70.22 26.51 64.51 26.51 68.37 30.38 69.97 30.1 70.19 31.34 69.46 31.47 70.95 32.96 70.06 33.85 68.63 32.42 68.63 33.11 67.36 33.11 67.36 31.15 63.65 27.45 63.65 32.66 65.77 34.78 64.87 35.68 63.65 34.45 63.65 36.24 62.38 36.24 62.38 14.09 63.65 14.09 63.65 16.55 64.96 15.24 65.85 16.13 63.65 18.34 63.65 24.39 67.36 20.69 67.36 18.73 68.63 18.73 68.63 19.42 70.06 17.99 70.95 18.89 69.47 20.37 70.19 20.5 69.97 21.74 68.38 21.46 64.6 25.24 70.19 25.24 72.62 22.81 73.51 23.7 71.97 25.24 74.37 25.24 74.37 26.51"/></svg>