<?xml version="1.0" encoding="UTF-8"?><svg id="Layer_1" xmlns="http://www.w3.org/2000/svg" viewBox="0 0 606 400"><defs><style>.cls-1{fill:#231f20;}</style></defs><g><path class="cls-1" d="M82.45,126.76v19.15H36.68v-19.15h45.77Z"/><path class="cls-1" d="M91.87,140.24l38.15-71.91h24.19v72.88h11.04v18.18h-11.04v23.86h-21.43v-23.86h-40.91v-19.15Zm40.91-42.69h-.32l-22.4,43.67h22.72v-43.67Z"/><path class="cls-1" d="M236.5,88.78h-42.37l-2.43,26.13h.32c4.38-6.01,11.2-8.6,21.1-8.6,22.08,0,28.08,18.5,28.08,36.69,0,25.16-7.3,42.53-36.85,42.53s-33.93-19.15-33.93-31.98v-3.08h22.4c0,7.63,1.3,18.83,11.36,18.83,9.42,0,13.64-7.47,13.64-22.4,0-18.99-2.92-24.35-13.47-24.35-6.66,0-10.23,4.06-11.04,10.55h-20.94l4.22-62.49h59.9v18.18Z"/><path class="cls-1" d="M277.89,68.33c13.31,0,24.02,10.71,24.02,24.02s-10.71,24.02-24.02,24.02-24.02-10.71-24.02-24.02,10.71-24.02,24.02-24.02Zm0,35.71c6.49,0,11.69-5.19,11.69-11.69s-5.19-11.69-11.69-11.69-11.69,5.19-11.69,11.69,5.19,11.69,11.69,11.69Z"/><path class="cls-1" d="M359.92,106.47c0-16.88-2.93-24.19-12.01-24.19-10.19,0-12.56,11.85-12.56,44.64,0,35.06,4.19,41.39,12.84,41.39,7.26,0,12.56-4.38,12.56-29.38h20.1c0,25-5.3,46.59-31.69,46.59-30.15,0-33.92-25-33.92-60.22s3.77-60.22,33.92-60.22,30.85,24.51,30.85,41.39h-20.1Z"/><path class="cls-1" d="M82.26,274.95v19.15H36.48v-19.15h45.77Z"/><path class="cls-1" d="M91.67,288.42l38.15-71.91h24.19v72.88h11.04v18.18h-11.04v23.86h-21.43v-23.86h-40.91v-19.15Zm40.91-42.69h-.32l-22.4,43.67h22.72v-43.67Z"/><path class="cls-1" d="M194.75,304.66c0,8.6,2.76,13.8,10.55,13.8,12.34,0,14.28-12.34,14.28-29.22v-5.52h-.32c-3.9,5.84-11.53,9.74-21.59,9.74-20.45,0-28.08-15.26-28.08-35.87,0-26.3,11.53-41.07,37.17-41.07,32.14,0,36.2,25.65,36.2,53.73,0,32.63-.65,63.47-38.63,63.47-16.56,0-31.65-6.98-31.98-29.06h22.4Zm10.88-28.41c9.25,0,12.82-6.17,12.82-21.75-.16-13.15-1.95-22.73-12.82-22.73s-12.66,9.74-12.66,22.73c0,15.58,3.57,21.75,12.66,21.75Z"/><path class="cls-1" d="M277.7,216.52c13.31,0,24.02,10.71,24.02,24.02s-10.71,24.02-24.02,24.02-24.02-10.71-24.02-24.02,10.71-24.02,24.02-24.02Zm0,35.71c6.49,0,11.69-5.19,11.69-11.69s-5.2-11.69-11.69-11.69-11.69,5.19-11.69,11.69,5.19,11.69,11.69,11.69Z"/><path class="cls-1" d="M318.28,215.54h64.77v19.15h-41.39v27.27h38.96v19.15h-38.96v50.32h-23.37v-115.9Z"/></g><polygon class="cls-1" points="418.2 47.81 418.2 353.19 435.72 353.19 435.72 328.5 452.55 345.5 464.94 333.08 435.72 303.84 435.72 232 486.87 283.02 486.87 310.04 504.37 310.04 504.37 300.55 524.09 320.25 536.39 307.98 515.84 287.43 525.91 285.64 522.86 268.55 500.81 272.4 447.58 219.05 526.32 219.05 559.41 252.14 571.66 239.87 550.84 219.05 583.52 219.05 583.52 201.53 550.43 201.53 571.66 180.3 559.41 168.03 525.91 201.53 448.82 201.53 500.93 149.44 522.86 153.29 525.91 136.18 515.96 134.39 536.39 113.98 524.09 101.56 504.37 121.29 504.37 111.78 486.87 111.78 486.87 138.79 435.72 189.81 435.72 106.41 466.05 75.93 453.78 63.66 435.72 81.72 435.72 47.81 418.2 47.81"/></svg>