<?xml version="1.0" encoding="UTF-8"?><svg id="Layer_1" xmlns="http://www.w3.org/2000/svg" viewBox="0 0 606 400"><defs><style>.cls-1{fill:#231f20;}</style></defs><g><path class="cls-1" d="M129.77,125.65v19.44h-46.47v-19.44h46.47Z"/><path class="cls-1" d="M207.05,87.09h-43.01l-2.47,26.53h.33c4.45-6.1,11.37-8.73,21.42-8.73,22.41,0,28.51,18.78,28.51,37.24,0,25.54-7.42,43.17-37.4,43.17s-34.44-19.44-34.44-32.46v-3.13h22.74c0,7.74,1.32,19.11,11.53,19.11,9.56,0,13.84-7.58,13.84-22.74,0-19.28-2.97-24.72-13.68-24.72-6.76,0-10.38,4.12-11.2,10.71h-21.26l4.28-63.44h60.8v18.45Z"/><path class="cls-1" d="M249.07,66.33c13.51,0,24.39,10.87,24.39,24.39s-10.87,24.39-24.39,24.39-24.39-10.88-24.39-24.39,10.87-24.39,24.39-24.39Zm0,36.25c6.59,0,11.86-5.27,11.86-11.86s-5.27-11.86-11.86-11.86-11.86,5.27-11.86,11.86,5.27,11.86,11.86,11.86Z"/><path class="cls-1" d="M332.33,105.05c0-17.14-2.98-24.55-12.19-24.55-10.35,0-12.75,12.03-12.75,45.31,0,35.59,4.25,42.02,13.04,42.02,7.37,0,12.75-4.45,12.75-29.82h20.41c0,25.38-5.39,47.29-32.17,47.29-30.61,0-34.44-25.38-34.44-61.13s3.83-61.13,34.44-61.13,31.32,24.88,31.32,42.02h-20.41Z"/><path class="cls-1" d="M132.54,333.42H60.7c0-20.76,8.4-35.1,25.7-51.08l9.56-8.9c10.38-9.39,12.19-14.67,12.19-26.69,0-9.72-4.12-14.5-11.53-14.5-11.86,0-13.02,10.38-13.18,22.74h-22.74v-4.45c0-21.58,11.37-33.78,36.25-33.78,23.4,0,34.93,11.7,34.93,31.8,0,15.16-4.78,25.05-18.13,37.07l-13.18,12.19c-6.92,6.26-10.88,12.69-12.03,17.14h43.99v18.45Z"/><path class="cls-1" d="M162.86,299.31c.33,13.51,2.64,20.93,13.02,20.93,11.53,0,13.02-8.57,13.02-18.78s-2.31-19.94-15.32-19.94h-7.91v-15.49h7.74c9.89,0,13.51-8.9,13.51-18.46,0-10.87-3.63-15.32-11.37-15.32-10.22,0-12.03,7.91-12.03,18.95h-21.75c0-22.9,12.19-34.44,34.27-34.44s33.61,9.39,33.61,29.99c0,14.01-6.76,23.23-17.8,25.7v.33c14.99,2.31,20.76,12.85,20.76,27.52,0,15.65-6.43,35.43-38.72,35.43-22.57,0-33.78-13.68-33.78-35.92v-.49h22.74Z"/><path class="cls-1" d="M248.87,216.76c13.51,0,24.39,10.88,24.39,24.39s-10.88,24.39-24.39,24.39-24.39-10.87-24.39-24.39,10.88-24.39,24.39-24.39Zm0,36.25c6.59,0,11.86-5.27,11.86-11.86s-5.27-11.86-11.86-11.86-11.86,5.27-11.86,11.86,5.27,11.86,11.86,11.86Z"/><path class="cls-1" d="M290.06,215.77h65.75v19.44h-42.02v27.68h39.55v19.44h-39.55v51.08h-23.73v-117.65Z"/></g><polygon class="cls-1" points="391.49 45.5 391.49 355.5 409.28 355.5 409.28 330.44 426.36 347.69 438.94 335.08 409.28 305.4 409.28 232.48 461.2 284.27 461.2 311.69 478.96 311.69 478.96 302.06 498.99 322.06 511.47 309.6 490.61 288.74 500.83 286.93 497.73 269.58 475.35 273.49 421.32 219.33 501.25 219.33 534.83 252.92 547.27 240.46 526.14 219.33 559.3 219.33 559.3 201.54 525.72 201.54 547.27 180 534.83 167.54 500.83 201.54 422.57 201.54 475.47 148.67 497.73 152.58 500.83 135.21 490.73 133.39 511.47 112.67 498.99 100.07 478.96 120.09 478.96 110.44 461.2 110.44 461.2 137.86 409.28 189.65 409.28 104.98 440.07 74.05 427.61 61.59 409.28 79.92 409.28 45.5 391.49 45.5"/></svg>