<svg id="Layer_1" data-name="Layer 1" xmlns="http://www.w3.org/2000/svg" viewBox="0 0 48.91 52.81"><defs><style>.cls-1{font-size:4.86px;font-family:FuturaPT-Bold, Futura PT;}.cls-1,.cls-2,.cls-3{font-weight:700;}.cls-2{font-size:9.47px;letter-spacing:-0.03em;}.cls-2,.cls-3{font-family:FuturaPTCond-Bold, Futura PT Cond;}.cls-3{font-size:7.22px;}</style></defs><text class="cls-1" transform="translate(20.65 26.21)">CUT</text><text class="cls-2" transform="translate(19.03 34.31)">360</text><text class="cls-3" transform="translate(30.62 30.85) scale(0.58)">°</text><path d="M24,42.13c-12.22,0-22.13-4-22.13-8.89,0-3,3.76-5.7,9.5-7.3l.14,1C8.28,28.26,6.3,30,6.3,32c0,3.92,7.91,7.1,17.67,7.1Zm6.28-3.51c6.65-1,11.38-3.6,11.38-6.63,0-1.95-2-3.71-5.12-5l-.17-1.12c5.88,1.59,9.75,4.3,9.75,7.37,0,4-6.68,7.44-15.84,8.52Z"/><polygon points="22.88 36.57 22.88 44.7 29.23 40.63 22.88 36.57"/><path d="M18.6,38.33l-.65.06c-5.12-1.91-6-8.69-6.09-9.23A12.37,12.37,0,0,0,9.11,23.9a10.92,10.92,0,0,1-1.36-2,.87.87,0,0,1-.07-.39,3.1,3.1,0,0,1,2.75-2.54,5.29,5.29,0,0,1,5,2.12l0-10.65A3.42,3.42,0,0,1,18.8,7a3.35,3.35,0,0,1,1.92.59,3.4,3.4,0,0,1,6.6.76,3.37,3.37,0,0,1,1.75-.5,3.43,3.43,0,0,1,3.42,3.42v1.17a3.13,3.13,0,0,1,1.28-.31c1.39,0,3,1.12,3,2.57V29.21A21.51,21.51,0,0,1,35,37.88a15.18,15.18,0,0,0-.83,2.6v5.71a.86.86,0,0,1-1.72,0l0-1.25V40.18a16.2,16.2,0,0,1,.93-2.92,19.85,19.85,0,0,0,1.63-8V14.67c0-.35-.68-.86-1.29-.86s-1.28.51-1.28.86v6a.86.86,0,1,1-1.71,0V11.24a1.71,1.71,0,0,0-3.42,0V19.8a.86.86,0,0,1-.86.85.85.85,0,0,1-.85-.85V8.68a1.72,1.72,0,0,0-3.43,0V19.8a.85.85,0,0,1-.85.85.86.86,0,0,1-.86-.85V10.39a1.71,1.71,0,0,0-3.42,0l0,15.4A3.45,3.45,0,0,1,16,28.1a.82.82,0,0,1-.6.25.86.86,0,0,1-.61-1.46,1.9,1.9,0,0,0,.61-1.12V24.34c-1.72-3.92-4-3.85-4.69-3.73a1.74,1.74,0,0,0-1.29.79,16.43,16.43,0,0,0,1,1.47,13.71,13.71,0,0,1,3.08,6v0c0,.07.75,5.28,4.42,7.75.32.22.63.42.63.8v.85"/><path d="M17.75,47a.84.84,0,0,1-.84-.84V37.76a.85.85,0,0,1,1.69,0V46.2A.84.84,0,0,1,17.75,47Z"/></svg>