<svg id="Layer_1" data-name="Layer 1" xmlns="http://www.w3.org/2000/svg" viewBox="0 0 48.91 52.81"><defs><style>.cls-1{font-size:4.22px;fill:#fff;font-family:HelveticaNeueLTStd-Bd, Helvetica Neue LT Std;}</style></defs><path d="M24.49,11.72A14.69,14.69,0,1,1,9.8,26.41,14.7,14.7,0,0,1,24.49,11.72m0-6.63A21.32,21.32,0,1,0,45.81,26.41,21.31,21.31,0,0,0,24.49,5.09Z"/><path d="M24.49,41.58A15.15,15.15,0,1,1,39.64,26.43,15.17,15.17,0,0,1,24.49,41.58Zm0-29.31A14.16,14.16,0,1,0,38.65,26.43,14.18,14.18,0,0,0,24.49,12.27Z"/><path d="M32.13,29.41c0-3.22-4.41-12.91-6.3-16.93a1.48,1.48,0,0,0-1.34-.85h0a1.48,1.48,0,0,0-1.35.85c-1.89,4-6.3,13.72-6.3,16.93a7.65,7.65,0,0,0,7,7.61V40.5a.69.69,0,0,0,1.37,0V37A7.64,7.64,0,0,0,32.13,29.41Zm-7-4.25L28,22.38c.33.82.63,1.61.89,2.35l-3.67,3.68Zm0-1V20.94l1.54-1.54c.33.78.66,1.55,1,2.29Zm-1.37,0-2.48-2.49c.3-.75.62-1.51,1-2.29L23.8,20.9Zm0,1v3.25L20.14,24.7c.27-.75.57-1.53.9-2.36Zm0,4.21v3.25l-4.68-4.68c.18-.7.44-1.54.77-2.49Zm1.37.05,3.93-3.93c.33.95.59,1.79.76,2.49l-4.69,4.69Zm1.25-10.64L25.17,20V15.92C25.59,16.85,26,17.8,26.42,18.73ZM23.8,15.92v4L22.57,18.7C23,17.77,23.38,16.84,23.8,15.92ZM18.88,29.41a4.15,4.15,0,0,1,.08-.72l4.84,4.85V35A5.62,5.62,0,0,1,18.88,29.41ZM25.17,35V33.58L30,28.73a4.75,4.75,0,0,1,.07.68A5.61,5.61,0,0,1,25.17,35Z"/><text class="cls-1" transform="translate(7.59 36.13) rotate(55.7)">B</text><text class="cls-1" transform="matrix(0.66, 0.75, -0.75, 0.66, 9.44, 38.74)">I</text><text class="cls-1" transform="translate(10.41 39.92) rotate(41.42)">O</text><text class="cls-1" transform="matrix(0.86, 0.51, -0.51, 0.86, 13.2, 42.31)">D</text><text class="cls-1" transform="translate(16.22 44.07) rotate(21.08)">E</text><text class="cls-1" transform="matrix(0.98, 0.19, -0.19, 0.98, 19.12, 45.17)">G</text><text class="cls-1" transform="translate(22.65 45.83) rotate(0.93)">R</text><text class="cls-1" transform="translate(26.01 45.85) rotate(-8.69)">A</text><text class="cls-1" transform="translate(29.26 45.33) rotate(-18.78)">D</text><text class="cls-1" transform="matrix(0.88, -0.48, 0.48, 0.88, 32.55, 44.16)">A</text><text class="cls-1" transform="matrix(0.78, -0.62, 0.62, 0.78, 35.38, 42.58)">B</text><text class="cls-1" transform="translate(37.94 40.5) rotate(-47.39)">L</text><text class="cls-1" transform="translate(39.83 38.42) rotate(-55.96)">E</text></svg>