<svg id="Layer_1" data-name="Layer 1" xmlns="http://www.w3.org/2000/svg" viewBox="0 0 48.91 52.81"><defs><style>.cls-1{font-size:6.9px;font-family:FuturaPT-Bold, Futura PT;font-weight:700;}</style></defs><polygon points="28.93 15.26 29.39 15.29 29.62 14.63 30.03 15.07 30.63 14.52 30.82 15.33 31.4 15.2 31.18 15.91 31.48 16.17 31.07 16.54 32.01 16.13 31.53 15.82 31.87 14.86 31.01 15.03 30.93 13.73 30.08 14.72 29.48 14.03 29.22 15.05 28.6 14.98 28.91 15.58 28.93 15.26"/><path d="M9.69,6.52v14.8a21.65,21.65,0,0,0,1.92,7.36A22.53,22.53,0,0,0,23.74,40.3l.38.16.38-.17A25.11,25.11,0,0,0,36,30.29a18.4,18.4,0,0,0,2.68-9V6.52ZM28.15,26.86V24.68a.63.63,0,0,1,.62-.63h1a.63.63,0,0,1,.63.63v2.18Zm8.67-5.55a16.44,16.44,0,0,1-2.43,8,20.59,20.59,0,0,1-3.52,4.46A15.48,15.48,0,0,0,31.66,32l-.85-4.59V24.38a.82.82,0,0,0,0-.14.88.88,0,0,0-.05-.15.67.67,0,0,0-.57-.43l-.88,0-.55,0h-.24l-.22.07a.87.87,0,0,0-.49.75l0,1.09-.11,4.39-.11-4.39,0-1.1a1.15,1.15,0,0,1,.61-1,1.54,1.54,0,0,1,.3-.11,1.69,1.69,0,0,1,.3,0h1.07l.05-.11.06-.11L31.67,20l.22-.4c.07-.13.15-.26.22-.4a2.27,2.27,0,0,0,.18-.48.69.69,0,0,0,0-.32c0-.11-.44-.36-.51-.43a1.07,1.07,0,0,0-.26-.19l.16-.27-.74-.42a1.18,1.18,0,0,0-1.61.43l-1.51,2.62.33.19L26.61,22.8,25,25.42l-.41.66c-.13.22-.27.42-.4.68a2,2,0,0,0-.08,1.64l.5,1.94.26,1,.13.48q.06.26.12.48a4.3,4.3,0,0,1,.08.95,3.5,3.5,0,0,1-.18.91l-.09.21-.05.1-.06.11-.25.44-.5.87-1.13,2a20.27,20.27,0,0,1-9.62-9.95l.73-.72L22.12,18c1.18-1.35,1.89-1.1,1.89-1.1a1,1,0,0,0,.29.82L25.72,19c.55.55.82.07.82.07l1.82-2.39c.52-.6.05-.87.05-.87L27.52,15a.8.8,0,0,0-.83-.27l-.19-.65-3.08-2.67c-3-2.55-5.88.15-5.88.15s-.47.49-.39.77.79.12.79.12,2.22,0,2.61,1.35-1.28,2.88-1.28,2.88l-7.14,7.86c-.14-.53-.24-1-.32-1.39a14.08,14.08,0,0,1-.21-1.43,3.46,3.46,0,0,1,0-.38v-13H36.82Zm-8.54-1.38,1.35-2.35a.72.72,0,0,1,1-.26l.5.28-1.72,3Z"/><text class="cls-1" transform="translate(13 47.45)">CRUSH</text></svg>