<?xml version="1.0" encoding="UTF-8"?>
<svg width="1200pt" height="1200pt" version="1.1" viewBox="0 0 1200 1200" xmlns="http://www.w3.org/2000/svg">
 <g fill="#fc8540">
  <path d="m199.2 356.1c-1.5 3.8984-2.3984 8.0977-2.3984 12.598v462.6c0 3.8984 0.60156 7.5 1.8008 10.801l330.3-263.7z"/>
  <path d="m564.9 565.8c0.60156 0.30078 0.60156 0.89844 1.1992 1.5l23.398 15.602c6.3008 4.5 14.699 4.5 21 0.30078l27.902-18.898 339.9-228.3c-3-0.89844-6.3008-1.5-9.6016-1.5l-737.39-0.003906c-3.3008 0-6.3008 0.30078-9 1.1992l336.3 226.5c2.0977 0.60156 4.5 1.8008 6.2969 3.6016z"/>
  <path d="m627.3 608.1c-8.3984 5.4023-17.699 8.3984-27.301 8.3984s-18.898-3-27.301-8.6992l-18-12-334.8 267.6c3.6016 1.5 7.5 2.1016 11.398 2.1016h737.4c3.6016 0 7.2031-0.60156 10.5-1.8008l-333.9-267.9z"/>
  <path d="m1001.1 357.3-330 221.1 330 264.6c1.5-3.6016 2.1016-7.5 2.1016-11.699l-0.003906-462.61c0-3.8984-0.59766-7.8008-2.0977-11.398z"/>
 </g>
</svg>
