<svg id="Layer_1" data-name="Layer 1" xmlns="http://www.w3.org/2000/svg" xmlns:xlink="http://www.w3.org/1999/xlink" viewBox="0 0 48.91 52.81"><defs><style>.cls-1{fill:none;}.cls-2{clip-path:url(#clip-path);}.cls-3{fill-rule:evenodd;}.cls-4{stroke:#000;stroke-miterlimit:10;stroke-width:1.34px;}</style><clipPath id="clip-path"><circle class="cls-1" cx="24.52" cy="26.45" r="13.83"/></clipPath></defs><path d="M6.67,23l.22-.79,1.92-.11h0L7.21,21l.22-.79,2.56.71-.15.52L8,21H8L9.67,22.1l-.12.43-2,.13h0l1.79.49-.14.53Z"/><path d="M8.11,18.75l.26-.53,2.82.27-.27.55L10.3,19l-.43.89.43.44-.25.53Zm1.43.77.31-.62-1-.13h0Z"/><path d="M9.11,16.85l.66-.94a1.17,1.17,0,0,1,1.77-.21,1.18,1.18,0,0,1,.39,1.76l-.66.93Zm2.1.78.3-.43c.2-.27.21-.66-.26-1s-.83-.35-1.16.12l-.24.34Z"/><path d="M11,14.38,12.36,13l.35.35-1,1,.41.4.9-.91.32.32-.9.91.46.46,1-1,.35.35-1.42,1.43Z"/><path d="M13.77,11.86l.47-.34,1.54,2.16-.47.33Z"/><path d="M14.86,11.07l.51-.28,1.82,1h0l-.85-1.56.48-.26,1.27,2.32-.51.28-1.82-1h0l.85,1.56-.48.26Z"/><path d="M19.38,9.57l-.76.22-.14-.47,2.09-.6.14.48-.77.21.6,2.08-.56.16Z"/><path d="M21.19,8.59l.58-.07.12,1L23,9.4l-.13-1,.58-.07L23.74,11l-.58.07L23,9.89,22,10l.14,1.14-.58.07Z"/><path d="M24.25,8.3l2,.07,0,.49-1.4,0,0,.57,1.29,0,0,.45-1.29-.05,0,.65,1.43.06,0,.49-2-.08Z"/><path d="M28.81,8.83l.58.15.29,2.82-.58-.15L29.05,11l-1-.25-.35.52-.57-.15Zm-.46,1.56.66.17-.08-1h0Z"/><path d="M30.93,9.43l.74.35-.21,1.91h0l1.31-1.4.74.35L32.39,13l-.5-.23.8-1.7h0L31.3,12.53l-.41-.19.2-2h0l-.79,1.69-.5-.23Z"/><path d="M34.26,11.13l1.61,1.14-.28.4-1.14-.81-.33.47,1.05.74-.27.37-1-.74-.38.53,1.16.82-.28.4-1.64-1.16Z"/><path d="M36.45,12.76l1,1a.72.72,0,0,1,0,1.06.62.62,0,0,1-.76.18h0a.59.59,0,0,1-.16.71,1.47,1.47,0,0,0-.36.53l-.41-.41a2.45,2.45,0,0,1,.38-.52.38.38,0,0,0,0-.59l-.42-.41-.72.74-.42-.41ZM36,14l.45.45a.34.34,0,0,0,.55,0,.33.33,0,0,0,0-.54l-.45-.45Z"/><path d="M38.46,14.86l.37.45L36.76,17l-.36-.46Z"/><path d="M39.49,17.87a.57.57,0,0,0,.09-.74c-.28-.44-.76-.37-1.16-.12a.77.77,0,0,0-.37,1.08.6.6,0,0,0,.83.19l.3.48a1.12,1.12,0,0,1-1.54-.41A1.39,1.39,0,0,1,40,16.87a1.08,1.08,0,0,1-.2,1.48Z"/><path d="M41.16,19.23l.23.55-2.07,1.94-.23-.56.47-.42-.38-.91-.63,0-.23-.54Zm-1.52.57.26.64.77-.69h0Z"/><path d="M40.29,22c-.35.09-.41.39-.34.69s.18.49.44.42.23-.46.24-.86.06-.83.55-1a.88.88,0,0,1,1,.77c.13.54,0,1.09-.58,1.24l-.13-.55c.31-.1.33-.34.26-.61s-.17-.37-.38-.31-.2.17-.2.86c0,.2,0,.8-.57.95s-.92-.17-1.09-.87a1,1,0,0,1,.65-1.32Z"/><path d="M10.26,32.36l.55,1.12c.23.45.23.83-.21,1.05a.58.58,0,0,1-.65-.07.64.64,0,0,1-.39.73.83.83,0,0,1-1.11-.49l-.57-1.16ZM8.55,33.87l.28.55c.1.21.25.36.5.23a.36.36,0,0,0,.15-.54l-.28-.57Zm1-.51.26.53a.3.3,0,0,0,.44.18c.23-.11.19-.31.09-.49l-.24-.49Z"/><path d="M10.45,36l.76-1.73.38.53L11.09,36l1.21-.11.38.53-1.9.15-.83.58-.34-.47Z"/><path d="M12.48,38.71c-.24.25-.13.54.1.75s.42.31.6.11-.06-.51-.28-.86-.41-.72-.07-1.09a.88.88,0,0,1,1.27.09.9.9,0,0,1,.2,1.35l-.41-.39c.2-.25.09-.46-.11-.65s-.35-.21-.5-.05-.07.26.31.83a.84.84,0,0,1,.05,1.1c-.33.36-.86.37-1.39-.12a1,1,0,0,1-.19-1.46Z"/><path d="M16,41.27a1,1,0,0,1-1.54.26A1,1,0,0,1,14.13,40L15,38.65l.49.32-.92,1.37a.48.48,0,0,0,.14.78c.34.24.56.16.77-.17l.92-1.37.49.32Z"/><path d="M17.22,40.05l1.08.5a.85.85,0,1,1-.7,1.55L17,41.84l-.4.87-.53-.25Zm0,1.38.41.19c.25.11.49.16.63-.15s-.05-.46-.3-.57l-.41-.19Z"/><path d="M19.34,41l1.9.55-.13.47-1.35-.39-.15.55,1.23.35-.12.44-1.24-.36-.18.63,1.38.39-.14.47-1.93-.55Z"/><path d="M21.5,41.6l1.42.17a.74.74,0,0,1,.68.83.65.65,0,0,1-.5.6h0a.61.61,0,0,1,.3.67,1.49,1.49,0,0,0,0,.63l-.58-.07a3.38,3.38,0,0,1,0-.64.39.39,0,0,0-.39-.46l-.57-.07-.13,1-.58-.07Zm.43,1.26.63.08c.26,0,.41-.06.45-.33s-.1-.38-.36-.41L22,42.12Z"/><path d="M24,41.85h.58l0,2.65H24Z"/><path d="M26.19,41.7A1.39,1.39,0,1,1,25,43.24,1.29,1.29,0,0,1,26.19,41.7ZM26.43,44c.52-.06.67-.52.62-1s-.29-.89-.81-.83-.67.52-.62,1S25.91,44,26.43,44Z"/><path d="M27.7,41.57l1.38-.39a.73.73,0,0,1,1,.49.66.66,0,0,1-.23.75h0c.3,0,.45.24.55.49a1.31,1.31,0,0,0,.27.57l-.56.16a3.48,3.48,0,0,1-.26-.58c-.11-.26-.25-.35-.53-.27l-.56.16L29,44l-.56.16Zm.89,1,.62-.17a.35.35,0,0,0,.28-.48c-.07-.24-.24-.31-.49-.24l-.61.17Z"/><path d="M33.81,41.61a.87.87,0,0,1-.46.67,1.27,1.27,0,0,1-1.8-.57A1.28,1.28,0,0,1,32,39.85a1.06,1.06,0,0,1,1.43.28L33,40.4a.55.55,0,0,0-.71-.12c-.45.25-.41.74-.19,1.15s.61.68,1.07.42a.57.57,0,0,0,.27-.8l-.51.28L32.67,41l1-.54.7,1.25-.33.18Z"/><path d="M33.3,39.15l.46-.36,1.32,1.71,1-.8.3.39-1.48,1.15Z"/><path d="M35.67,37a1.29,1.29,0,0,1,1.91,0,1.3,1.3,0,1,1-1.79,1.89A1.29,1.29,0,0,1,35.67,37Zm1.66,1.58a.77.77,0,0,0-.15-1.14c-.33-.32-.79-.48-1.15-.1s-.17.83.16,1.15A.77.77,0,0,0,37.33,38.57Z"/><path d="M39.62,36.36l-.37.55-2.67-.79.34-.49,1.87.56h0l-1.2-1.54.34-.5Z"/><path d="M38,34.07l.87-1.78.44.21-.61,1.26.51.25.56-1.16.41.2-.56,1.16.58.28.63-1.28.44.21-.88,1.81Z"/><g class="cls-2"><path class="cls-3" d="M9.08,22.09s-.08,0-.1,0,0,0-.11,0,0,0-.08,0-.12,0-.17,0l-.14,0-.13,0s-.06,0-.06.08.07.06.1,0,0,0,.09-.05.08,0,.11,0,.11,0,.16,0,0,0,.06,0,0,0,0,0,.09-.05.12-.07,0,0,.06,0,.05,0,.09,0,0,0,0,0v0S9.09,22.08,9.08,22.09Z"/><path class="cls-3" d="M9.92,21.82a.34.34,0,0,0-.14,0s-.17,0-.22.05l-.13.05,0,0a.29.29,0,0,0-.14.08s-.05,0-.05.07.06.07.09.05,0,0,.06,0,0,0,.06,0,0,0,.07,0,0,0,0,0,.05,0,.06,0,0-.07.07-.06-.05.07,0,.06,0,0,.05,0,0,0,0,0,0,0,0,0,0,.06,0,0l0,0s0,0,0,0-.07,0,0,0,0,0,0,0,0,0,.06,0S10,22,10,22s.06-.08,0-.09S10,21.84,9.92,21.82Z"/><path class="cls-3" d="M7.89,22.4c-.06,0,0,0-.1,0s0,0-.06,0l-.08,0s-.05,0-.07.07-.13.06-.17.09a.11.11,0,0,1-.12,0s0-.06-.06-.05H7.18a.24.24,0,0,0-.11.06s-.09,0-.12.05a.1.1,0,0,0-.08,0s0,0,0,0a.29.29,0,0,1-.13.05c-.1,0,0,.07,0,0s.09,0,.11,0l0,0s.1,0,.11,0,0,0,.09,0,.06,0,.11,0a.06.06,0,0,1,.09,0,.09.09,0,0,0,.1,0s.06,0,.1,0,0,0,.06,0a.33.33,0,0,1,.13,0s0,0,.07,0,0-.06.1-.07,0-.05,0-.06Z"/><path class="cls-3" d="M10.14,18.78s0-.05,0,0a.23.23,0,0,1-.11.06s0,0,0,0-.06.12.06.1,0-.06.06,0,.17,0,.12,0,0,0-.05,0,0-.05.06,0,.06,0,.06,0-.07,0,0,0a.31.31,0,0,1,.1,0c.06,0,0,0,0-.05s0-.09,0-.05,0,0,0,0a.11.11,0,0,0,.06,0s.09,0,.12,0,.07,0,.12,0,.11,0,.09-.05-.09,0,0,0,0,0,.09,0,0,0,0,0,0,0,.12,0h.14c.09,0,0-.05.05-.11s.08,0,.08,0,.07.07.08,0l.07,0s0,0,0,0l.07,0s0,0,.06,0,.1,0,.13,0,.09,0,.06-.05-.05,0-.05-.05,0,.07-.08,0,0-.06,0-.08a.25.25,0,0,1,0-.08s0,0,0-.05,0,0-.08,0h-.1c-.05,0,0,0-.11,0s0-.05-.05-.06,0,.08,0,.07,0-.06-.08-.06-.07,0-.07.05-.08.05-.09.1a.39.39,0,0,1-.13.06s0,0,0,0,0,0,0-.09l0,0s0,0,.05-.05a.19.19,0,0,1,.1-.05s0-.1-.06-.06,0,0-.08,0-.06-.07,0-.07.08,0,.08.05,0,0,0,0,0,0,0,0,0,.07,0,0,.07,0,0-.05-.07,0-.08,0-.09,0-.12,0-.05,0-.05,0,.05,0,0,0,0,0-.08-.06-.1,0-.05-.07-.09,0,0-.06,0,0,0-.06a.27.27,0,0,1-.14-.07l-.05,0c-.65.36-1.29.73-1.91,1.1l.05.17s.08,0,.1,0,.13,0,.16-.05l.14-.05c.08,0,0,0,.08-.05s0-.12,0-.13,0,0,.06,0h.15s0,0,0,0,.08-.06.08,0,0,0,0,0,0,0,0,0,.08,0,.07,0-.14,0-.16.05,0,0,0,0a.12.12,0,0,0-.05.07c0,.05-.09.05-.08.09s.14,0,.16,0a.06.06,0,0,0,.07,0s.06,0,.1,0,.08,0,.13,0,.12.09,0,.09,0,0-.06.07-.07.11,0,.1,0,0,.06,0S10.09,18.79,10.14,18.78Z"/><path class="cls-3" d="M36.77,24.29l.17-.12c.05,0,.11-.1.15-.1a1.13,1.13,0,0,1,.14,0c.05,0,.08,0,.12,0s.25,0,.32-.06a.37.37,0,0,1,.14-.07.31.31,0,0,0,.1,0s.1-.05.06-.1.07,0,.06-.09-.13,0,0-.05,0,0,0-.09-.13,0-.09-.08.12,0,.14,0,.09-.05,0-.06a0,0,0,0,1,0-.06s0,0-.07-.07a.12.12,0,0,0-.15,0s-.07,0-.11.06-.1,0,0-.07,0,0,0-.05,0-.1,0-.1-.18,0-.18,0-.09,0-.17,0-.16.06-.23.1-.06,0-.13.06-.1,0-.16.08-.13,0,0-.05,0,0,0,0l-.1,0c-.08,0-.11-.08,0-.07s0,0,.14,0,.13,0,.13,0,.1,0,.13,0,0-.09.17-.08h.09s.06,0,.08,0,.07,0,.07,0,.15,0,.18-.06.06,0,.07-.06-.09,0-.1,0,0-.08-.07-.07,0,.07-.09.06,0,0-.07,0,0-.08,0-.09-.07,0-.13.06-.07,0,0,0,.07,0,.06-.09-.05,0-.08,0,0,0-.06,0-.07,0-.05,0,.06,0,.05-.06,0-.06-.08-.07,0-.06-.09-.05,0-.05,0-.09-.12,0-.12-.06.08-.08,0-.1-.14,0-.14-.05a.1.1,0,0,1,.07,0s0-.07.11-.05,0,.09,0,.09,0,0,0-.05,0,0,.06-.07.1,0,.09-.1S37,22,37,21.89s-.17,0-.09,0,0,0,.08,0,.12,0,0-.09,0,0-.08,0,0,0,0,0,0-.06-.07-.06l-.06,0s-.1.05-.07,0,.07,0,.09-.05,0,0,0,0,.11,0,.09-.07-.25,0-.23,0h.12s0,0,.06-.05a0,0,0,0,0,0-.07c-.06,0,0-.07,0-.08a1.15,1.15,0,0,0-.19,0l.09,0s.06,0,.1,0a0,0,0,0,0,0,0s0,0,0-.1,0,0,0-.12V21c0-.08,0-.11-.1-.11s0,.1-.08.1a.44.44,0,0,0-.16.1s0,.06,0,.08,0,0,0,0,0,.05-.11.05,0,.07-.09.1,0,.14-.11.17-.06,0,0,0,0,0,.05,0,0,0-.05-.05a.06.06,0,0,0-.1,0,.23.23,0,0,1-.1.07c-.11,0-.11,0-.19.07s-.11.1-.11,0a.54.54,0,0,0,0-.08s0,0,0,0,0,.08-.06.09,0,0-.07.05a.13.13,0,0,1-.08,0,.31.31,0,0,0-.1.05s-.21,0-.08,0l.15-.05s.12,0,.14-.07.09,0,0-.13.11-.1-.18-.1c0,0,0,0-.12,0s-.07.07-.13,0,0,0,0,0,0-.1.07-.07,0,.06.06,0,0,0,.06,0,0,0,0,0-.07-.07,0-.08.06,0,0,0,.05-.07.05-.09,0,0,0-.06,0-.08,0-.08,0-.09,0-.11,0,0,0-.06.06,0,.13-.12,0,0,0,0,0,0-.11,0-.07,0-.08,0-.07,0-.11,0,0,0-.08-.06-.12.05-.13-.06-.06,0,0,0,0-.06,0-.06h-.07s-.06,0,0,0,0-.09-.05,0-.14,0,0,0,0-.07-.06-.09,0-.09-.14-.1-.06,0-.14.05-.15,0-.2,0-.09,0-.14,0-.12,0-.18,0l-.08,0H34a.46.46,0,0,0-.2,0,.2.2,0,0,0-.12.06s-.05,0-.05.07,0,.1,0,.14.09,0,.09,0-.08,0-.12.07l-.08.07h0a.33.33,0,0,1-.11.09s0,.06,0,.06.12,0,.08,0-.07,0-.08.08-.05,0,0,.09,0,.06,0,.06,0,.06,0,.08,0,.05,0,.05.09,0-.05,0,0,0-.09,0,0,.11-.09.1l-.14,0s-.18,0-.18.12,0,.08.08.17.14,0,.13.15h0s0,.14,0,.19,0,.21,0,.23,0,.06,0,.11,0,.06,0,0,0,0,0,0,0,.11,0,.12,0-.08-.11-.06,0,0,0,.07,0,.06-.14.11a1.34,1.34,0,0,0-.23.16.35.35,0,0,1-.14.06.16.16,0,0,0-.07,0,.46.46,0,0,1-.19.08l-.19.07c-.05.05-.08,0,0,.14a.38.38,0,0,1,0,.15.18.18,0,0,1,0,.06.47.47,0,0,1-.05.1s-.06.19-.07.22,0,.09,0,.11,0,.09.05.09.11,0,.07,0-.11,0-.15,0,0,0-.09.06-.11,0-.13.09.09,0,0,.1,0,0-.05,0-.07,0-.07,0,0,0-.06-.09-.05,0-.09,0,0,0-.05.05,0,.15-.09.11,0,0-.05,0a.12.12,0,0,0-.13,0l-.05,0c-.11,0-.07,0,0,0l.06,0s0,0,.06-.07,0-.14,0-.19-.12-.08-.19-.09-.2,0-.16,0,.15,0,.18,0,.09,0,.09-.07-.15-.08-.09-.29c0,0,.08-.12.1-.17s0,0,.05-.08,0-.05,0-.12.06-.06.08-.11.05-.06.07-.1.08-.1,0-.15l-.09,0c-.09,0,0,0-.13,0a.38.38,0,0,1-.18,0,1,1,0,0,0-.3,0s-.08,0-.09,0l-.07.06c.05-.05.07,0,.1-.11a.12.12,0,0,0-.1-.17s-.18,0-.18-.05,0,0-.1,0-.08,0-.08-.09-.07-.11-.1-.13l-.07,0c-.09,0,0-.07-.19-.07a.15.15,0,0,1-.11,0c0-.05-.07,0-.11-.07s-.26,0-.31,0,0,0-.05,0a.44.44,0,0,1-.12,0c-.12,0,0,0,0-.08s0-.13.06-.19a.36.36,0,0,0,0-.11c0-.09,0-.09,0-.15s0-.08,0-.08-.17,0-.25,0,0,0,0,0,0-.05,0-.07,0,0,0-.07.1-.12.12-.12,0,0,.05-.07a.54.54,0,0,1,.15-.22s0-.14.11-.15a.11.11,0,0,0,.09-.06c0-.07.06,0,.1-.06s.11-.05.05-.13,0-.06.06,0a.25.25,0,0,0,.15,0c.06,0,0,0,.11-.06s.05,0,.06,0,.08,0,.11-.07,0,0,.05,0,.09-.06.1,0,.05,0,.05,0S30,20,30,20a.11.11,0,0,1,.11,0s.08,0,0,0,0-.11.07-.05.06,0,.1,0,.15,0,.15,0,0,0,.07,0,0,0,.06,0,.11,0,.1-.12-.11-.08-.11-.12-.12-.06-.15,0-.08,0-.07,0-.08-.06-.13-.06-.12,0-.07-.05.08,0,.1,0,.11,0,.16.06.15,0,.16,0,.08.06.15.07.09.06.14,0,.08,0,.12-.06.06,0,.07-.09.11-.07.15,0,.12,0,.16,0,.11,0,.18,0l.15-.07s.06,0,.1-.05a.45.45,0,0,1,.14-.1c.05,0,0,0,.1-.06s.12-.07,0-.09,0,0-.1,0a.61.61,0,0,1-.19,0s-.18,0-.2-.08-.11,0-.11-.11.18,0,.2,0,.05,0,.08.05.11,0,.14.1S32,19,32,19s.11-.06.17-.06a.65.65,0,0,0,.23-.13s.14,0,.08-.09-.1,0-.09-.07.11-.07.14,0,.06,0,.1,0,0,0,.09,0,0,.09,0,.1,0,0,0,0,0,0,.07.06.05,0,0,0,0-.1.08,0,.08,0,.09-.05,0-.11,0-.1.05.1.13.1,0-.06.14-.06.07,0,.1,0l.09,0s.08,0,.12-.07.18,0,.18-.1.08,0,0-.11-.1,0-.05-.12.08,0,.06-.08-.12,0-.07-.08A.09.09,0,0,1,34,18s.08,0,.13,0,.13-.06.09-.07-.09,0-.05-.05l.06,0s.13,0,.06-.07-.26,0-.17-.09,0-.06,0-.06,0,0-.07,0l-.14,0s0,0-.06,0-.1-.05-.19,0-.08,0-.15.06-.1.1-.08.15.09,0,.09,0-.11,0-.06.06-.08,0-.11,0-.07-.07-.21.11,0,0-.07.07-.08,0-.12.1-.09,0-.13.05,0,0,0,0,.11-.2,0-.13,0,0-.06.07-.07.09,0,.09,0,.13-.13.1,0,0-.07,0,0,0-.06,0-.08-.09-.09-.13v-.1s.07-.05.07-.08.08-.08.11-.05,0,0,.07-.06,0-.05,0-.08a0,0,0,0,0,0-.06l-.08,0c0-.07,0-.08-.09-.09a.3.3,0,0,1-.09,0s0,0-.06.05-.06.1-.12.11a.17.17,0,0,0-.1.07s-.08.06-.07,0,0,0,.05-.11,0-.09,0-.1-.09-.05,0-.08,0,0,.08,0a0,0,0,0,0,0,0s-.06,0-.07,0-.06,0-.08,0,0,0-.09,0-.05-.05-.09-.05,0,0,0,0,0,0,0,0,.11,0,.11,0,0,0,0,0,0,0,.07,0a.24.24,0,0,0,.12,0c0-.08-.11-.06-.06-.12s-.07-.06-.08-.07a.07.07,0,0,1,.06-.08s0-.06,0-.06,0-.06,0-.1,0-.1-.06-.07H32s0-.13-.06-.13,0,0-.1.07-.12.09-.17.08a.07.07,0,0,0-.06.06s0,.09-.07.08,0-.09-.08,0a.17.17,0,0,0-.07,0c-.05,0,0,.05-.1.06s-.07.05,0,.08-.07.06-.09.08,0,0-.07,0-.08,0-.06.11.06,0,.1.09a0,0,0,0,0,.06,0s.06,0,.07,0,.06,0,.08,0,.08,0,.11,0h.06s0,0,0,0,0,.06-.1,0,0,0-.06,0a0,0,0,0,1-.05,0s0,.05,0,.06,0,.06,0,0,0,0,0,0h-.05c-.05,0,0,0-.06,0s.09.05.11,0,0,0,.06,0,0,0,0,0,0,0,0,0,0,0,0,0,0,.09-.06.09a.34.34,0,0,0-.14.05l0,0c-.1,0,0,.08-.13.08s0,0-.14,0,0,0-.1,0,0,0-.05.07,0,.07-.06.12,0,0-.06.05,0,0-.09,0,0,0,0-.05l.05,0s.06,0,.05-.06.1-.05.12-.08,0-.06-.06-.06,0,0-.06,0,0,0,0,0,.1-.05,0-.05,0,0-.07,0,0,0-.05,0,0,0-.06,0,0,0,0,0S30,17.93,30,18s0,0,0,.07.13,0,.18,0,.12,0,0,.06,0,0,0,0-.09,0-.12,0-.07,0-.05,0,0,0,0-.05-.08,0-.08,0,0,0-.08,0h-.14a.18.18,0,0,0-.1,0s-.12,0-.16,0-.28,0-.32,0l-.2,0s0,0-.07-.05,0-.11-.08-.1,0,.05-.1.05-.06,0-.08,0a.13.13,0,0,1-.09,0c-.05,0,0-.08,0-.09s0-.06-.08-.07a.06.06,0,0,0-.08,0s-.1,0-.12,0-.1,0-.11,0,0,0-.11,0,0,0-.11,0a.25.25,0,0,0-.17.05s0,0-.05.05-.05,0-.05.08,0,0,0,.09,0,.08,0,.08-.05,0-.08,0-.06,0-.08,0-.14.05-.12-.08.09,0,.11,0,0,0,0-.08-.12,0-.11-.06.08,0,0-.06-.1,0-.18,0,0-.06-.09-.06,0,0-.08,0-.05,0-.12,0h-.41s-.5,0-.5,0-.16,0-.06-.08.05-.05.07-.05.06,0,.14,0,.14,0,.14,0,.06,0,.05-.08-.07-.12-.11-.12h-.24a1.27,1.27,0,0,1-.34,0,.45.45,0,0,1-.1-.05c-.11-.11-.15-.05-.28-.08s-.09,0-.12-.06-.13-.08-.18-.08h-.22a.3.3,0,0,0-.16.05s-.07,0-.09.06l-.14,0h-.12c0-.06,0,0,0-.07s.13,0,.11,0-.08,0,0,0,.14-.05.07-.09-.07,0-.14,0-.08.07-.16.11-.07.05-.14.07-.2,0-.2-.06,0-.07,0-.13.06-.07,0-.1-.41.11-1,.23c-.25.05-.57-.06-.85.07-.06,0-.08,0-.13,0s-.17,0-.15.1-.07.1-.09.07,0-.11-.07-.11,0,0-.06,0,0,0,0,.06-.08.05-.1,0-.13-.06-.19-.05-.08,0-.19,0,0-.06-.11-.06,0-.06,0-.09-.29,0-.34-.06h0a.48.48,0,0,0-.15-.07c-.06,0-.05,0-.1-.06a1.17,1.17,0,0,0-.32,0s-.07,0-.09,0-.12,0-.19,0,0,0-.12,0l-.12,0c-.22,0-1.49-.25-1.52-.22s-.44-.19-.59-.1l-.12,0a.52.52,0,0,1-.21,0s-.08,0-.12,0h-.06c-.11,0-.1,0-.16,0s-.09,0-.13,0-.05,0-.07,0-.06,0-.08,0c-.28.12-.89,0-1.4.39l-.12,0H14.5a1.36,1.36,0,0,0-.2,0,2.19,2.19,0,0,1-.26,0,.22.22,0,0,0-.14.09l-.12,0s0,0-.08,0,0,.07,0,.07.07,0,.08.07a.25.25,0,0,0,.1.08c.05,0,0,0,.07.07s0,0,0,.08,0,0-.05.05,0,.05,0,.05a.21.21,0,0,0,.17.05c.07,0,0,0,0,0s0,0,0,0,0,.08,0,.06,0,0,.08,0,.05,0,.07,0,.05,0,.06,0,.14,0,.18,0,.05,0,.08,0h.07c.09,0,0,0,0,0s-.09,0-.12,0-.05,0-.06,0,0,0-.07,0h-.05c-.11,0,0-.05-.14,0s-.05,0,0,0,0,0,0,0,0-.07-.08-.07l-.06.06s0,0,0,0l0,0c-.07,0-.09,0-.14,0a.64.64,0,0,0-.19,0s0,0-.07,0-.07,0,0,0l.08,0c.11-.06,0-.09,0-.08s-.06,0-.12,0l-.11,0s-.09,0-.13,0-.16,0-.17,0,0,.08-.1.08l-.14,0a1.27,1.27,0,0,0-.23.08h-.08a.41.41,0,0,1-.12,0c-.05,0-.07,0-.12,0s0,.09,0,.12a.06.06,0,0,0,.07,0,.23.23,0,0,1,.14,0c0,.06-.15,0-.16,0s-.05,0-.05,0,0,.07,0,.08,0,.07.06.08.13,0,.15,0,.13,0,.2,0h.12s.08,0,.12,0,.1,0,.07,0,0,.06,0,0L13,19s0,0,.07,0,.1,0,.18-.05.14,0,.19,0,.11,0,.11,0a.06.06,0,0,1-.06,0l-.07,0c-.06.05,0,0-.08,0s-.07.07-.09.1,0,.06,0,.07,0,.1-.11.1h0c-.07,0-.09.05-.13.05a.42.42,0,0,0-.11,0s-.07,0-.13,0-.13,0-.16,0-.06,0-.14,0a.24.24,0,0,0-.09,0s0,0-.09,0-.07,0-.13,0,0,0-.14,0,.08-.1-.14-.06-.08.09-.14.09,0,0-.07,0-.08.05-.12.05-.14.06-.2.07c-.23,0,0,.28,0,.34s-.57.32-.57.36,0,0,0,.07,0,.08,0,.08c.34,0-.15.42.74.33,0,0,0,.06,0,.08s.09.05.1,0a.62.62,0,0,1,.19-.14c.12,0,0,0,0,0s.14,0,.15,0l.12,0s.28-.09.28-.08a.52.52,0,0,0-.19.08s-.22.07-.24.13l-.12.09c-.08,0-.15.13-.17.13l-.08.05a1.69,1.69,0,0,0-.27.12h0a1.22,1.22,0,0,0-.24.11s-.07,0-.1,0l-.13,0-.1,0a.4.4,0,0,0-.12,0,.76.76,0,0,0-.21.08s-.08,0-.12,0-.08,0-.08.1S10,22,10,22s0,0,.09,0,0,.05,0,.05.09-.08.14-.08l.26,0s.1,0,.1,0,.08,0,.08-.06,0,0,.07,0a1.15,1.15,0,0,0,.39-.14s.09,0,.11,0,.09,0,.12,0l.08,0s.09,0,.09,0,.11-.1.11-.1.14,0,.18-.05l.25-.08.13-.05c.1,0,.07-.06.21-.06a.59.59,0,0,0,.19-.05c.08-.08.07-.06.16-.1l.09,0c.05,0,.13-.05.12-.08s0-.05,0-.05h-.08s.08,0,.09-.05l.14-.17H13l-.25.1s-.16.05-.15,0,.07,0,.09-.05a.73.73,0,0,1,.31,0c.13-.06.18-.09.12,0a.75.75,0,0,0,.34,0s0,0,.08,0,.09,0,.11-.05.05,0,.09-.05.21-.06.28-.12l.07,0,.05,0a2.54,2.54,0,0,1,.44-.15c.08,0,0,0,.1-.05s0,0,0,0,.17,0,.17,0-.1,0-.08.05,0,0,.09.06-.11,0-.13,0a0,0,0,0,1-.07,0s-.14,0-.18,0h-.06c-.06.07-.14,0-.22.09s-.12.07-.14.1-.07,0-.11.06l-.1,0c0,.06,0,0-.06.05s0,.07,0,.06c.21-.12.16-.07.06,0s-.09,0-.11,0h-.08c-.24,0,0,.2.13.09a3,3,0,0,1,.45-.13c.05,0,.09,0,.1,0s0,0,.07-.05,0,0,.1,0,.16,0,.18,0,0,0,.09,0l.06-.07a.06.06,0,0,1,.05-.05c.07,0,0,0,.05-.05s.07,0,.06-.05.09-.05.05-.05.11-.07.34,0,.06.21.36.19c.08,0,0,.05,0,.05s.11,0,.11.07.14,0,.16,0h.16c.08,0,.09,0,.16,0a.85.85,0,0,1,.19.06.26.26,0,0,0,.19.05.29.29,0,0,1,.09,0c.1-.05.1,0,.17-.05s.09,0,.09,0-.07.05-.1.05,0,.06,0,.06-.05,0-.11,0,0,.05,0,.06l0,0c0,.06,0,0,.09.06s0,0,.1,0,.08,0,0,0a.07.07,0,0,0-.05.08s0,0,0,.06,0,.11,0,.11.06.05.09.07.08,0,.11,0h.08c.1,0,0-.08,0-.08s0-.11,0-.11,0,0,.09,0,0,0,0,.06,0,0,0,.06,0,0,.06.05,0,0,.08-.06.05-.11.07-.15,0-.06.05-.09,0,.11,0,.11a.47.47,0,0,0,0,.17s0,0,0,0,0,0,.05,0,0,0,0,0,0,.07,0,.05.05-.06.11-.06,0,0,0,0,0,0,0,0-.13,0-.13.07.09,0,.09,0-.06,0-.09,0,.06.13,0,.14-.08.05,0,.07,0,.05,0,.06,0,0,0,0,.05.06,0,.07,0,.05,0,.05,0,.06,0,.06,0,.05,0,.05,0,0,0,0,0,.06,0,.09-.06.05,0,.07,0,.05,0,.07,0,.1,0,.1,0-.07.1-.07,0,.09,0,.09,0,0-.07,0,0,.06,0,.07,0-.05.07-.06.1,0,.11,0h0l0,0c0,.05,0,0-.1,0l-.1.07s.06.41.07.42c-.15,0,0,.6,0,.61s0,.07,0,.08,0,0-.09,0-.06,0-.05.07.06.06.07.06,0,0,.15,0,0,0,.05,0,.06.06.06.08,0,0,0,.05S18,24,18,24a.12.12,0,0,0,.12,0c.07,0,0,.07.06.06s0,.06,0,.07-.06.05-.06.06,0,.08,0,.08h.07s0,0,.05,0,0,0,0,.05,0,.06,0,.08,0,0,0,0,0,0,.06,0,.06,0,0,.06,0,.08,0,.08,0,0,.09,0,0,.07,0,.07,0,0,0,0l7.79.17s.08,0,.08,0,0,0,0-.09,0,.05,0,.09-.07,0-.08,0l-7.79-.17c-.05.1,0,.07,0,.11s-.06,0-.06.05,0,0,0,.1,0,.06,0,.1a.27.27,0,0,1-.08.07s0,0-.05,0,0,0-.08.05-.09.08-.1.1-.08.07,0,0,.06,0,.06,0,0,0,.06,0,0-.05.09-.06.05-.09-.06-.06,0,0-.07,0,0,0-.09,0,0,0-.09,0-.1,0-.11,0-.13.06-.13.1a.13.13,0,0,0,0,.09.24.24,0,0,1,0,.12c-.05.06,0,.09-.05.11s0,.05,0,.06-.07.1-.06.12a.11.11,0,0,1,0,.08c0,.05-.09,0-.05.09s0,0,0,0a.6.6,0,0,0-.08.08.69.69,0,0,1-.1.19c-.07,0-.08.14-.14.19a2.13,2.13,0,0,0-.16.25l-.11.15a1.25,1.25,0,0,1-.09.12.44.44,0,0,1-.08.1s-.09.07-.09.09l-.14.19s0,0,0,.08a1.06,1.06,0,0,1,0,.19s0,.1,0,.1a1.91,1.91,0,0,1-.16.27c-.07.11-.05.06-.13.13s0,.14,0,.19a.39.39,0,0,1,0,.15l-.06.11s0,.09,0,.14c0,.5.1-.14.07,1,0,.1.07.16.07.19s.08.12.07.23,0,0,0,0,.07,0,0,.09,0,0,0,.06,0,.11,0,.13,0,0,.09,0,.07,0,.14,0,0,.05.09.07,0,.08.1.06,0-.06.09,0,0,.11,0,.14.05-.05.09,0,0,0,.05.09.07,0,0,.18a.15.15,0,0,1,0,.09.07.07,0,0,0,0,.05h0c0,.06,0,.07,0,.14s.07.62.07.63a.39.39,0,0,1,0,.15s0,.16,0,.18a.45.45,0,0,1,.07.07c.09.07.08,0,.09.11a.17.17,0,0,0,0,.06s0,0,0,0,.15.18.09.26a.36.36,0,0,0,0,.07c-.2.35,0,.34.08.42s.35.2.28.42v.05a.3.3,0,0,1,0,.16.53.53,0,0,1-.08.17s0,.1,0,.1,0,0,.06,0,.05.09.12.14,0,0,.05.06a.86.86,0,0,0,.14.13.21.21,0,0,1,.11.19s0,.06,0,.08a.05.05,0,0,0,.08,0l.09-.07c.05,0,0,0,.05-.07s0-.08,0-.09-.05-.06-.06-.1a.42.42,0,0,1,0-.1s-.06-.09-.09-.06h-.06s0,0,0-.05,0,0,0-.06a.54.54,0,0,1,0-.08c0-.07,0-.09,0-.15s0-.14,0-.17,0-.12,0-.16v-.15S18,33,18,33s0,0-.06,0,0,0,0-.07a3.38,3.38,0,0,0-.17-.6c-.06,0,0-.16-.1-.15s0-.1,0-.11-.1-.1-.1-.15-.08-.06-.07-.1,0-.28,0-.31,0-.11,0-.16,0-.09,0-.13l0-.14a.06.06,0,0,1,.07,0s0,.05.09.1.06,0,.08,0,.06.06.09.08h.07c.06,0,.07.11,0,.13s0,.08,0,.14,0,.09,0,.11,0,.07,0,.09a.72.72,0,0,0,.41.82c.09,0,0,.09,0,.19s.05,0,.09.11.07,0,.07.11,0,.08.06.07.2.65.22.69l.42.45c0,.07.08.08.09.13s0,0,0,.08.08.15.12.17.06.07.05.1a1.23,1.23,0,0,0,0,.2.93.93,0,0,1,0,.1s.07.07.05.13,0,0,0,.09-.14.11-.05.15,0,.05,0,.05l-.06,0h0c-.05,0-.06.09,0,.13s0,.12,0,.16,0,.11.11.17l.07,0s.12,0,.14.06.08.06.11.11a4.79,4.79,0,0,0,.92.66c.1,0,.18.08.28.12l.19.09c.09,0,.08,0,.16.09s.17.08.25.14a.33.33,0,0,0,.17,0,.16.16,0,0,1,.1,0c.05.06.14,0,.2,0l.17-.08a1.15,1.15,0,0,1,.14-.08.28.28,0,0,1,.22,0l.17.07c.16.1.09.05.19.2l.12.12.13.17a.12.12,0,0,0,.05,0v0l.12.1c.08,0,.1.18.19.14A2.84,2.84,0,0,1,24,38h0v0s0,0,0,0,0,.06.07.09.16,0,.21.09.12,0,.14,0a.37.37,0,0,0,.23,0l.06,0h0s.07,0,.07,0,0,0,0,.07h0s0,0,0,.08a2.07,2.07,0,0,1,.15.2.78.78,0,0,1,.1.15c0,.06.07.11.11.15s0,0,.06,0,0,0,.06.07l0,0h0s0,0,0,0,0,0,0,.11,0,.08,0,.15,0,0,0,.12.09.08.15.11.09,0,.09,0-.07-.08,0-.06a.14.14,0,0,1,.07.12c0,.07.1,0,.11.07a.08.08,0,0,0,.08.07s.08.06.12.08,0,.16,0,.18.09.14.09.07S26,40,26,40s.05.15.09.15h0s0,0,0,0,.07,0,.16,0,.06,0,.11,0,0,0,.08,0,.05.09.07.12.1,0,.1,0,.08.09.08.15,0,.05.09.06.09-.05.14-.09,0-.12,0-.2,0-.05,0-.08,0,0,.06,0,.07-.06.11-.07,0-.07.11-.12,0-.08.14-.06.11.13.14.14.09.09.14,0,.09.07,0,.1,0,.09,0,.15l0,.11a.17.17,0,0,0,.09.07s0,0,0,0,0-.08.1-.08,0,0,0-.1,0-.12,0-.13a.12.12,0,0,1,0-.1s0,0-.06-.09-.05-.09-.13-.14-.08-.1-.15-.1h-.11s-.06-.09-.19-.05-.12,0-.12.05,0,.11,0,.11-.08,0-.06,0,.06-.06-.06,0-.05,0-.06,0-.08,0-.15,0,0,.08-.16.08,0,0-.13-.06-.06,0-.1,0a.07.07,0,0,1-.09-.07s0-.08,0-.1l-.1-.08h0c0-.07-.15-.13-.18-.2a.44.44,0,0,1-.06-.16.22.22,0,0,0-.06-.1h0a.18.18,0,0,0,0-.1s0-.16,0-.19,0-.19.07-.27,0-.2,0-.22a.64.64,0,0,1,0-.2.84.84,0,0,1,.1-.29c.06-.09,0-.18.06-.28s0-.09,0-.09h0s0,0,0,0-.08-.07-.09-.07-.08-.09-.13-.14-.11,0-.18,0a.16.16,0,0,0-.16,0s-.08,0-.1,0-.17,0-.24,0a.5.5,0,0,1-.17,0c-.12,0-.11,0-.2,0h-.13a.51.51,0,0,0-.15,0h0v0s-.06,0-.08,0-.1-.07-.11-.07,0,0-.09,0v0s0,0,.09,0h0a.09.09,0,0,1,0-.06A.35.35,0,0,0,24.7,37l0-.07c.05-.08,0-.2.06-.3s0-.12.07-.15,0-.1,0-.13,0,0,0,0h0v0s0,0,0-.07.12-.07.11,0-.05,0,0,.07a0,0,0,0,1,0,.05c-.05,0,0,.16,0,0s0,0,0-.07a.79.79,0,0,1,0-.13s0,0,0-.06a.75.75,0,0,0,.06-.13c0-.06,0,0,0-.11s-.05-.06,0-.17,0-.06.05-.14.07,0,.11-.11.11-.1.11-.21,0-.1-.05-.13-.13,0-.16,0-.05,0-.05,0-.21,0-.22,0-.14.09-.3.08h-.08a.3.3,0,0,0-.28.17,1.43,1.43,0,0,1-.09.27.61.61,0,0,0-.07.17A1,1,0,0,1,24,36l-.09,0c-.06,0-.05.09-.06.13s-.05,0-.1.1-.09,0-.1-.06a.09.09,0,0,0-.13,0,.47.47,0,0,0-.21.07l-.2,0-.08,0c-.05,0-.19.13-.25.07s0,0,0-.06-.19-.09-.21-.11-.07,0-.09-.11a1,1,0,0,1-.07-.09c0-.05,0-.13-.05-.18a.21.21,0,0,1,0-.08s0-.14-.07-.16-.06-.15-.1-.23a.27.27,0,0,1,0-.13s.06-.1,0-.13-.1-.08-.09-.23v-.05a.93.93,0,0,0,.05-.29.46.46,0,0,0,0-.09c0-.06,0-.16,0-.22s0-.13,0-.13,0-.2,0-.22a.31.31,0,0,0,.09-.11s0-.1.07-.1,0,0,0,0-.1.09,0,.08,0,0,0-.05,0,0,0-.1.08-.06,0-.15l0,0,0,0h0s0-.05,0-.14c-.13-.32.47-.92.57-.93s.06,0,0,.06-.05,0,0,0a.06.06,0,0,0,.07,0c0-.05,0,0,.07,0s.07,0,.09,0c.23-.28,1.08-.63,1.26-.34,0,0,.1,0,.1.12s.37-.35.43-.31.38-.11,1.18-.09c.11,0,0,.08.12.07s0,.06.07.07,0,0,0,.05,0,.17.15.09,0,0,.07,0h0c.08,0,.27-.09.34,0s0,0,.06.06,0,.07,0,.11.08.08.1.12.11,0,.07.14,0,0,0,.07-.06.26-.06.27.13,0,0,.08,0,.34.1.52a.31.31,0,0,1,0,.17c0,.1.07,0,.09.1s0,0,0,.08-.05.12.05.12,0,0,.07,0,.05,0,.09,0,.05,0,0,0,0,.08-.11.09,0,.09.06,0l.05-.08s.14-.09.05-.08,0,0,0,0,0,0,0-.09,0,0,0-.09a1.89,1.89,0,0,0,.09-.21s0,0,0-.1a.63.63,0,0,0,0-.27s0-.14,0-.15,0-.12,0-.2,0,0,0-.06-.11-.25-.12-.39v-.07a1.85,1.85,0,0,0,0-.24s0-.05,0-.06a.61.61,0,0,1,.11-.28,1.07,1.07,0,0,1,.16-.25s0,0,.09-.09.11-.05.11-.07,0-.1.16-.1.06,0,.13-.06.06-.1.19-.12.1-.16.2-.21,0,0,.06,0,.08-.1.26-.09.12-.12.16-.13,0-.06.07-.07,0,0,.08,0h.11s0,0,.07,0l.06,0s.07-.05,0-.09-.12,0,0-.07,0-.06,0-.06,0-.11.06,0c.34.26.1-.89.43-1.42a.17.17,0,0,1,.14-.1c.07,0-.23.73-.13.91,0,0,.23-.21.24-.22a2.23,2.23,0,0,0,.15-.31c-.06-.34-.05-.29.06-.22s.06-.05.1-.07.05-.06.11-.09a.26.26,0,0,0,.1-.13.35.35,0,0,1,.08-.11s0-.06,0-.07-.06-.11,0-.13.05-.09.12-.09.06-.08.19-.07.1,0,.11-.06.68-.37.78-.44.06,0,.07-.1-.07-.09.09-.17l.06-.05c0-.07.1-.06.14-.15s.07,0,.09,0,.09,0,.12,0,0,0,.1,0,0,0,.07,0,.13,0,.12-.07-.05.05-.07,0,0,0,0-.09,0-.08.06,0,.06,0,.1,0,.08,0,.12,0a1,1,0,0,0,.18-.08l.08,0c.13,0,0,0,.1,0s0,0,0-.1v0h0s.09,0,.13,0,.08,0,.12,0,.11,0,.14,0a.79.79,0,0,0,.13,0c.06,0,.09,0,.14-.05s.09-.09.13-.08,0,.09-.07.09-.08.1,0,.1,0-.05.09,0,.06,0,.09,0,.12,0,.13,0-.17,0-.18.05,0,.05-.06,0,.06-.06-.1-.06-.09,0-.15.07-.06,0-.11.07-.05,0-.08.05-.06-.05-.13.08,0,0,0,0a.47.47,0,0,0-.08.15s0,0,0,.08,0,0,.06.12.11,0,.11-.05.1,0,.11,0,.11-.07.15-.12.08,0,.13-.09,0,0,0-.05.12-.09.11,0,.09,0,.1,0,0-.05,0-.05,0,0,.07,0,.12,0,.17,0,.12,0,.22-.08.06,0,.09,0,.21,0,.19-.07,0,0,0-.06,0,0,0-.05-.12,0-.12,0,0-.06,0-.06,0,.05,0,.05a.39.39,0,0,1-.15,0s0,0-.07,0-.1,0-.14,0-.14,0-.1-.06,0,0,0,0,0,0-.09,0,0-.06-.06-.08a.17.17,0,0,1,0-.18s0-.05,0-.05,0-.09,0-.12.08-.08.08-.1,0-.06,0-.08-.1.1-.21.06,0-.09-.15-.09c0,0-.07-.07,0-.07s.07,0,.09,0a.11.11,0,0,1,.12,0c0,.06.25,0,.3-.09a.15.15,0,0,0,.13-.11s0,0,0-.06-.06-.11-.1-.11a.17.17,0,0,0-.12,0h-.09a.29.29,0,0,0-.13,0,2.61,2.61,0,0,0-.32.06l-.17.06c-.05,0-.27.09-.31.12a.78.78,0,0,1-.32.15s-.11.13-.19.16l-.22.17s-.24.16-.17.1a.63.63,0,0,0,.19-.17s.19-.13.22-.17.05,0,.06-.05.08-.05.12-.09a1,1,0,0,1,.14-.15c.05,0,.08,0,.14-.09s0,0,.09-.05.1-.08.19-.08.2,0,.21,0a1,1,0,0,1,.22-.23c.13,0,.06-.06.24-.05a1.81,1.81,0,0,1,.22,0l.28,0s.31,0,.37,0,.32,0,.32.05.09,0,.13,0l.27,0c.16,0,.09,0,.19,0A.39.39,0,0,0,36.77,24.29ZM17.21,20.6v0s0-.05,0-.05,0,0,0-.05,0,.05,0,.05S17.21,20.58,17.21,20.6Zm0,.24s0,.05,0,.06,0,0,0-.06,0-.05,0,0S17.25,20.83,17.25,20.84Zm.72.91s.05-.08.05-.14.05-.14.06-.22,0-.06,0-.08,0,.06,0,.08-.06.13-.06.23S18,21.71,18,21.75Zm.1-.87v0a.11.11,0,0,0,0,0,.11.11,0,0,1,0,0Zm0,0a.06.06,0,0,1,0,0v0A.06.06,0,0,0,18.07,20.84Zm0,.35v-.05s0,0,0,0,0,0,0,0Zm.16.87s-.06.08-.08.1a.51.51,0,0,0-.14.18s0,0,0,0,0,0,0,0a.51.51,0,0,1,.14-.18s.06-.09.08-.1a0,0,0,0,0,0,0A0,0,0,0,1,18.25,22.06Zm-1.44-1.63v0h0v0c1.14-1.06,2.31-2.06,3.5-3C19.12,18.37,18,19.37,16.81,20.43Zm2.66,10.82Zm.7-.05,0,0,0,0h0Zm.76.85a.76.76,0,0,1-.08.11.76.76,0,0,0,.08-.11S21,32,21,31.93,21,32,20.93,32.05Zm.56-.11h0l0,0Zm.21.51,0-.05,0,.05v0Zm.07.22a.11.11,0,0,1,0-.09v0a.11.11,0,0,0,0,.09.08.08,0,0,1,0,0A.08.08,0,0,0,21.77,32.67Zm4.43,4.94,0,0,0,0h0Zm-.2.09.08,0-.08,0h0Zm-.25,0h0Zm0,1.44a.22.22,0,0,0,.16,0,.22.22,0,0,1-.16,0l0,0Zm-.29-.08h0Zm.11-1.15.07-.05a.15.15,0,0,0-.06.05Zm-.22.81c.1,0,.08.09.17.12s.05.08.09.12,0,.11,0,.15l0,0-.1,0S25.4,39,25.39,39s-.09-.06-.09-.12,0-.13,0-.14Zm-.1-.69s0-.07.07-.07-.06,0-.07.07,0,0,0,0S25.23,38.06,25.23,38Zm-.18.12a.11.11,0,0,0,0,0,.06.06,0,0,1,0,0v0Zm0,.13s0,0,0,0,0,0,0,0a.05.05,0,0,1,0,0A.05.05,0,0,0,25,38.29ZM24.65,38s-.09,0-.13,0S24.6,38,24.65,38Zm-.18-1.48h0Zm0,0v0h0Zm0,1.43c.06,0,0,0,.07.07s0,0-.07-.07l0,0Zm-.25,0c0-.08,0-.08.1-.1h0c-.07,0-.07,0-.1.1l0,0Zm0,0-.07.07ZM24,37l0,0Zm3.16-12s.09.05.1,0,.11,0,.16,0a.76.76,0,0,1,.16,0,.76.76,0,0,0-.16,0c-.05,0-.12-.08-.16,0s-.09,0-.1,0L27.05,25ZM27,25a.3.3,0,0,1-.11-.07A.3.3,0,0,0,27,25Zm-.71-.38a.06.06,0,0,1,.07,0,.31.31,0,0,1,0,.13v0a.31.31,0,0,0,0-.13A.06.06,0,0,0,26.32,24.59Zm.34.29c-.06,0,0-.07-.15-.06s-.12,0-.12,0h0s.11,0,.12,0,.09.06.15.06.05,0,.05,0S26.7,24.88,26.66,24.88Zm.05,0h0Zm.19,0a.39.39,0,0,0-.18,0A.37.37,0,0,1,26.9,24.89Zm1.63,1.25c-.07,0-.07.11-.12.13s0-.05-.09-.05-.05.05-.09.05a.46.46,0,0,0-.15.16,3,3,0,0,1-.17.28.18.18,0,0,0,0,.16.17.17,0,0,1,0,.1l0,.05-.09.15a.34.34,0,0,1-.08.09l-.06,0a1.92,1.92,0,0,1-.17.13s0,0-.11,0,0-.09-.06-.14a.64.64,0,0,1,.05-.23s0-.14,0-.14,0-.1.06-.1.09-.19.19-.27.1-.16.16-.22,0-.06.1-.12.1-.12,0-.07,0,0-.09,0,0,.08-.09.09-.14.12-.12.06.07,0,.09-.08.15-.12.18-.15.05,0,.07-.06.12-.08.15-.12.1-.07.1,0,0,.06.05.06a.11.11,0,0,1,.05,0c.05,0,0,0,.13,0h.07s0,0,.06,0,.14,0,.16,0,.14,0,.17,0,.1,0,.11,0a.06.06,0,0,0,0-.06s0-.07,0-.08,0-.08-.06-.05-.13,0-.14,0,.06-.08-.08-.09,0,0-.07,0a.92.92,0,0,0-.24,0,.33.33,0,0,1-.1.06h-.19c-.05,0,0-.06-.09-.11s-.07,0-.14,0,0,0,0-.06,0,0,.05,0,0,0,.12-.06.12-.05.08-.09-.13,0-.15,0,0,0-.12.05a1.23,1.23,0,0,1-.25.14.33.33,0,0,1-.2.05c-.05,0,0,0-.11,0s-.2.12-.19,0-.1,0-.11,0-.08,0-.11.05-.2.06-.08-.05l.19-.09a.64.64,0,0,0,.11-.06,3.11,3.11,0,0,1,.31-.14.46.46,0,0,0,.14-.07s0,0,0-.06h.08a.77.77,0,0,1,.17-.07c.13,0,.06-.15.15-.12s0,0,0,0,0,0,.07,0,0-.06.06-.09,0,0,.05,0,.05-.09.1-.1.06,0,.13,0,0,.16.06.16,0-.14.11-.13.11.1.14.15,0,.06,0,.11.05,0,.08,0,.08,0,.11,0,.08,0,0,.1,0,.06,0,.09,0,.06,0,.16.06,0,0,.07,0,.07,0,.11,0,0,0,.08l.16,0c.07.05.07,0,.11,0a1.37,1.37,0,0,0,.16,0,1.4,1.4,0,0,0,.28.06l.08,0c.06,0,0,0,.1,0s0,.09.05.12.06.12.06.14,0,0,0,.07.1,0,.1,0-.13,0-.11.08-.05.06-.06.07a.25.25,0,0,1-.13,0c0-.06-.09,0-.11,0,0-.19-.05,0,0-.19s-.12,0,0,.07-.05.13-.07.13,0,0,0,0-.07.11-.09.12-.06.16-.1.2,0,.13-.18.18-.11.08-.14.11l0,.06c-.07,0,0,.12-.07.14s-.09,0-.13,0a.6.6,0,0,1,.08-.08c.11,0,.05,0,.12-.1a.42.42,0,0,0,.06-.15c0-.11,0-.08,0-.13s0-.15,0-.16h-.08a.08.08,0,0,0-.06,0l-.12.1s-.06,0-.05-.06.08,0,.1-.07.06,0,.08-.05.09-.05.1-.12l0-.09h0a.25.25,0,0,1,0-.09c.05-.06,0-.16-.09-.17S28.87,26,28.8,26s-.1-.07-.18,0S28.66,26.13,28.53,26.14Zm1.52,1a1.33,1.33,0,0,1-.12.06s-.06,0-.08.05l-.06,0c-.09,0-.11.06-.17.07a.25.25,0,0,0-.14,0,.53.53,0,0,1-.12,0c-.07,0,0,0-.1.05l-.13,0a.94.94,0,0,1-.16,0c-.11.05-.13,0-.21,0a.18.18,0,0,1-.18-.07c0-.05,0-.06,0-.08l.07,0v0h0a.38.38,0,0,1,.15,0c.09,0,0-.07.11-.06h0a.31.31,0,0,0,.1-.05c.07-.08.06-.05.11-.08a.18.18,0,0,1,.09,0,.5.5,0,0,1,.17,0h.11a.2.2,0,0,1,.13-.06.38.38,0,0,1,.15,0h.21A.36.36,0,0,1,30.05,27.15Zm0-.11h0s0,0,0,0Zm1-.43a.35.35,0,0,1,0,.06s0,0,0,.1-.11.06-.13.09-.07,0-.09,0-.09,0-.14,0a.15.15,0,0,1-.13,0,.35.35,0,0,0-.17,0s-.05,0-.08,0l-.13,0-.05,0H30s-.08,0-.08,0-.08-.06,0-.1.06,0,.1-.05l0-.05a.17.17,0,0,1,.1,0c.07,0,.06,0,.12,0a.21.21,0,0,0,.13,0c.06,0,.1,0,.12,0s.21,0,.22-.05.1,0,.11,0,.07,0,.1,0h.1S31.05,26.6,31.05,26.61Zm.16-.12.06,0Zm.64-.18h-.29l-.07,0a.33.33,0,0,1-.13.07.33.33,0,0,0,.13-.07l.07,0Zm1.06-.18s-.06,0-.06.05-.14.05-.17.05-.11,0-.14.05-.1,0-.17,0h0c.07,0,.13,0,.17,0s.09-.05.14-.05.17,0,.17-.05,0,0,.06-.05A.37.37,0,0,0,33,26,.37.37,0,0,1,32.91,26.13Zm1,.17s0,0,0,0S33.89,26.29,33.89,26.3Zm0-.72s0-.1-.07-.1S33.83,25.56,33.84,25.58Zm0,.72s-.07,0-.07,0,0,0,0-.06,0,0,0,.06S33.82,26.32,33.84,26.3ZM33.72,26a.3.3,0,0,1,0-.13A.3.3,0,0,0,33.72,26Zm-.11-.5c.06,0,.06,0,.1,0s0,0,0,0,0,0,0,0,0,0-.1,0-.08,0-.09-.05S33.56,25.52,33.61,25.52Zm-.21-.06c0-.05.12,0,.12,0h0s-.09-.06-.12,0l0,0Zm-.21.26c.05-.11.09-.08.13-.16l0,0,0,0c0,.08-.08.05-.13.16a1.53,1.53,0,0,1-.14.17A1.53,1.53,0,0,0,33.19,25.72Z"/><polygon class="cls-3" points="18.39 24.57 18.39 24.57 18.39 24.57 18.39 24.57"/><path class="cls-3" d="M36,25.94c-.05,0,0,0-.07,0s-.11,0-.07-.05,0,0,.06-.07a.12.12,0,0,1,0-.09s0,0,0-.09,0,0-.05,0h0c-.07,0-.08.11-.15.15s0,.05-.07.08a.74.74,0,0,0-.13.12c0,.05,0,.11,0,.14h.17s.06,0,.09,0,.06,0,.07,0,.09,0,.09-.06S36.09,25.94,36,25.94Z"/><path class="cls-3" d="M35.89,24.78s0,0,0,0-.1,0-.12,0a.18.18,0,0,0-.17-.1.35.35,0,0,0-.12-.05s-.11-.06-.18-.05l-.05,0s.05.05.08.06,0,0,0,.05.07,0,.07.07.06.07.09.07l.08,0,.15,0S35.92,24.87,35.89,24.78Z"/><path class="cls-3" d="M38.3,25.31s0,0,0,0l-.1.08s0,0,0,0-.09.13-.11.05.06-.08,0-.15,0-.08.06-.06.08,0,.08,0l.05,0s0,0,0-.06-.08,0-.09,0-.1,0-.13,0,0,0,0,0,0,0,0-.1,0,0,.07,0,0,0,0-.05.06-.05,0-.09a.14.14,0,0,0-.09,0s-.1,0-.1,0-.08,0-.09,0,0,0-.07,0,0,0,0,0,0,0-.08,0,0,0,0-.1,0,0,0,0a.33.33,0,0,1-.1,0,.06.06,0,0,1,0-.1s.06,0,.05-.06-.06,0-.08,0,0,0,0,0,0,0-.07.06l0,0,0,.05c-.06,0-.06,0-.05-.07a.54.54,0,0,1,.09-.12s.07-.05.09-.08.11-.06.11-.11,0-.06.05-.06,0,0,.06,0,0,0,0-.05,0-.07,0-.08,0,0,.07,0,0,0,0,0a.38.38,0,0,0-.15,0s0,0-.07,0-.08,0-.08,0l-.12.11s-.06.06-.1.08a.15.15,0,0,0-.06,0,.48.48,0,0,1-.08.1.05.05,0,0,0,0,.05c0,.05,0,0-.06.06s-.07.1-.12.13,0,.06,0,.08a.18.18,0,0,0-.1.07s0,0,0,0v.07a0,0,0,0,1-.05,0s0,0,0,0,0,.05,0,.06,0,0-.09,0,0,0-.06,0-.07,0-.07.05,0,0,.05,0,0,0,0,0,.08,0,.08,0-.11.08-.13.09l-.1.06c-.07,0-.11.17,0,.17s0,0,.09,0a.25.25,0,0,1,.15,0h.19l.06,0a.61.61,0,0,0,.19,0s0,0,.07,0,.09,0,.12-.06.08,0,.08,0-.06,0-.1.05,0,0,0,0,0,0,.07,0,.11,0,.12,0a.2.2,0,0,1,.07-.06h.06s0,.06,0,.06-.07,0-.13.07,0,0,0,0l0,0c-.05,0-.08.1,0,.09h.06a.11.11,0,0,0,.09-.07s0,0,0-.07.11,0,.14-.07.09-.05.1-.12a.06.06,0,0,1,.07-.06s0,.07,0,.1,0,.1,0,.14l-.08.09c0,.05,0,.08.06.08s0,0,0,0,0-.07,0-.05,0,.06,0,.07,0,0,0,.06,0,.06,0,0,0,0,0,0,0,0,.07,0,.09-.15.09-.15a.37.37,0,0,1,.07-.1s0-.08,0-.08,0,0-.08.06,0-.06,0-.09A.32.32,0,0,1,38.3,25.31Z"/><path class="cls-3" d="M17.68,24l-.07,0s-.18-.13-.17-.07a.45.45,0,0,1,0,.11c0,.05-.07-.06-.09,0s0,0-.05.06-.08,0-.05.07,0-.07.11,0,.08,0,.06,0,0,.09.06.08.05,0,.06,0,.07,0,.06.05-.08,0-.09,0-.06,0-.05.07.06.05.08,0,0,0,.07,0,0,.11,0,.08,0,.05,0,0,0,0,.09,0,.07,0,0,0-.09,0-.07.05.07,0,.09,0,0,0,0,.08.08,0,.11,0,.07,0,.11.06.08,0,.11,0,.13-.07,0-.14,0,0,0-.07,0,0,0-.1-.21,0-.15-.18-.07-.08-.06-.18.05,0,0-.09h0s-.19,0-.05-.05,0-.06-.08,0S17.76,24,17.68,24Z"/></g><path class="cls-4" d="M24.46,47.65A21.25,21.25,0,1,1,45.7,26.41,21.27,21.27,0,0,1,24.46,47.65Zm0-42.15a20.91,20.91,0,1,0,20.9,20.91A20.93,20.93,0,0,0,24.46,5.5Z"/></svg>