<svg id="Layer_1" data-name="Layer 1" xmlns="http://www.w3.org/2000/svg" viewBox="0 0 48.91 52.81"><polygon points="23.46 3.77 23.46 3.79 23.43 28.27 17.27 14.63 23.43 3.73 23.46 3.77"/><polygon points="29.59 14.63 23.43 28.27 23.46 3.79 23.46 3.77 29.59 14.63"/><polygon points="4.68 12.5 4.69 12.52 23.43 28.27 9.03 24.22 4.63 12.49 4.68 12.5"/><polygon points="16.94 14.79 23.43 28.27 4.69 12.52 4.68 12.5 16.94 14.79"/><polygon points="42.21 12.54 42.2 12.56 23.43 28.27 29.92 14.79 42.23 12.49 42.21 12.54"/><polygon points="37.83 24.22 23.43 28.27 42.2 12.56 42.21 12.54 37.83 24.22"/><polygon points="6.54 31.23 6.55 31.23 23.43 28.27 14.78 34.17 6.51 31.25 6.54 31.23"/><polygon points="13.28 25.68 23.43 28.27 6.55 31.23 6.54 31.23 13.28 25.68"/><polygon points="40.31 31.27 40.3 31.26 23.43 28.27 33.58 25.68 40.35 31.25 40.31 31.27"/><polygon points="32.08 34.17 23.43 28.27 40.3 31.26 40.31 31.27 32.08 34.17"/><polygon points="24.93 35.67 21.93 35.67 23.43 28.27 24.93 35.67"/><path d="M11.66,39.85h1L13.75,43h0l1.08-3.13h1v4h-.66V40.76h0L14,43.85h-.57l-1.11-3.09h0v3.09h-.67Z"/><path d="M17.73,39.85h.74l1.54,4h-.75l-.37-1.06h-1.6l-.38,1.06h-.72Zm-.25,2.41H18.7l-.6-1.72h0Z"/><path d="M20.4,39.85h1.65c1.24,0,1.77.9,1.77,2s-.53,2-1.77,2H20.4Zm.7,3.43h.68c1.1,0,1.34-.63,1.34-1.43s-.24-1.43-1.34-1.43H21.1Z"/><path d="M24.44,39.85h2.88v.6H25.14v1h2v.57h-2v1.17h2.22v.61H24.44Z"/><path d="M29.53,39.85h.7v4h-.7Z"/><path d="M31.06,39.85h.74l1.83,2.94h0V39.85h.67v4h-.74l-1.82-2.94h0v2.94h-.67Z"/><path d="M14.24,46.9a.72.72,0,0,0-.8-.62c-.67,0-.92.59-.92,1.19s.25,1.18.92,1.18a.74.74,0,0,0,.8-.74h1a1.68,1.68,0,0,1-1.82,1.63,2.08,2.08,0,0,1,0-4.15,1.71,1.71,0,0,1,1.82,1.51Z"/><path d="M16.9,45.48H18l1.49,4H18.37l-.25-.71H16.73l-.25.71H15.42ZM17,48h.91l-.45-1.39h0Z"/><path d="M19.73,45.48h1.06l1.38,2.45h0V45.48h1v4H22.1L20.72,47h0v2.47h-1Z"/><path d="M24.94,45.48h1l1.49,4H26.4l-.24-.71H24.77l-.25.71H23.46ZM25,48h.9l-.44-1.39h0Z"/><path d="M27.78,45.48h1.71a2,2,0,0,1,0,4H27.78Zm1,3.08h.49c.78,0,1.09-.32,1.09-1.12a1,1,0,0,0-1.09-1.07h-.49Z"/><path d="M33.08,45.48h1.05l1.49,4H34.54l-.24-.71H32.91l-.25.71H31.59ZM33.15,48h.9l-.44-1.39h0Z"/></svg>