<svg id="Layer_1" data-name="Layer 1" xmlns="http://www.w3.org/2000/svg" viewBox="0 0 60.13 52.81"><defs><style>.cls-1{stroke:#231f20;stroke-miterlimit:10;stroke-width:0.67px;}.cls-2{font-size:6.79px;font-family:FuturaPT-Bold, Futura PT;font-weight:700;letter-spacing:-0.03em;}</style></defs><path d="M31.39,16.1a6.7,6.7,0,0,1,3.81,6,.33.33,0,1,0,.66,0,7.36,7.36,0,0,0-4.19-6.62.35.35,0,0,0-.14,0,.34.34,0,0,0-.3.19.31.31,0,0,0,0,.25A.35.35,0,0,0,31.39,16.1Z"/><path d="M22.39,26.94a.32.32,0,0,0,.19-.17.31.31,0,0,0,0-.25,13.62,13.62,0,0,1-.72-4.4,6.66,6.66,0,0,1,6.66-6.66,6.42,6.42,0,0,1,1.32.13.31.31,0,0,0,.25-.05.28.28,0,0,0,.14-.21.34.34,0,0,0,0-.24.35.35,0,0,0-.21-.15,7.94,7.94,0,0,0-1.46-.14,7.33,7.33,0,0,0-7.33,7.32A14.37,14.37,0,0,0,22,26.73.34.34,0,0,0,22.39,26.94Z"/><path d="M27.53,34a.3.3,0,0,0,.18.06.35.35,0,0,0,.28-.14.38.38,0,0,0,.05-.25.34.34,0,0,0-.14-.21,13.75,13.75,0,0,1-4.75-5.56.34.34,0,0,0-.3-.19.35.35,0,0,0-.14,0,.32.32,0,0,0-.17.19.31.31,0,0,0,0,.25A14.33,14.33,0,0,0,27.53,34Z"/><path d="M37.7,29a.33.33,0,0,0-.38-.48,6.64,6.64,0,0,1-8.45-6.42.33.33,0,1,0-.66,0,7.32,7.32,0,0,0,9.29,7.06A.35.35,0,0,0,37.7,29Z"/><path d="M26,10.49a12.07,12.07,0,0,1,2.55-.28,11.88,11.88,0,0,1,7.82,2.94.37.37,0,0,0,.22.08.33.33,0,0,0,.25-.11.33.33,0,0,0,0-.47,12.55,12.55,0,0,0-8.26-3.1,12.74,12.74,0,0,0-2.69.29.32.32,0,0,0-.21.15.31.31,0,0,0,0,.25A.33.33,0,0,0,26,10.49Z"/><path d="M22.14,13.81a.33.33,0,0,0,.46.07,10.16,10.16,0,0,1,15,3.66.32.32,0,0,0,.29.18.42.42,0,0,0,.15,0,.33.33,0,0,0,.15-.44,10.82,10.82,0,0,0-16-3.89A.32.32,0,0,0,22.14,13.81Z"/><path d="M38.86,18.88a.3.3,0,0,0-.16-.19.32.32,0,0,0-.25,0,.35.35,0,0,0-.22.42,10.06,10.06,0,0,1,.47,3,3.17,3.17,0,1,1-6.33,0,3.79,3.79,0,0,0-.75-2.27.34.34,0,0,0-.27-.13.36.36,0,0,0-.2.06.33.33,0,0,0-.06.46,3.17,3.17,0,0,1,.61,1.88,3.83,3.83,0,1,0,7.66,0A10.8,10.8,0,0,0,38.86,18.88Z"/><path d="M30,19.32a.31.31,0,0,0,.25,0,.29.29,0,0,0,.2-.16.31.31,0,0,0,0-.25.32.32,0,0,0-.16-.2,3.93,3.93,0,0,0-1.78-.43,3.83,3.83,0,0,0-3.83,3.82,10.77,10.77,0,0,0,6,9.67A.33.33,0,1,0,31,31.2a10.14,10.14,0,0,1-5.59-9.08A3.17,3.17,0,0,1,28.54,19,3.13,3.13,0,0,1,30,19.32Z"/><path d="M34.1,32.85a.33.33,0,0,0,.37-.29.31.31,0,0,0-.07-.24.36.36,0,0,0-.22-.13,10.57,10.57,0,0,1-2-.47.2.2,0,0,0-.11,0,.33.33,0,0,0-.11.64A11.12,11.12,0,0,0,34.1,32.85Z"/><path d="M31.93,33.83a.39.39,0,0,0,0-.26.33.33,0,0,0-.19-.16,11.91,11.91,0,0,1-8.1-11.29,4.93,4.93,0,0,1,.77-2.64.33.33,0,0,0-.1-.45.29.29,0,0,0-.18-.05.33.33,0,0,0-.28.15,5.55,5.55,0,0,0-.87,3A12.56,12.56,0,0,0,31.51,34,.34.34,0,0,0,31.93,33.83Z"/><path d="M33.45,22.12a2.08,2.08,0,1,0,4.16,0,9.08,9.08,0,0,0-9.07-9.07,8.93,8.93,0,0,0-1.27.09.33.33,0,0,0-.28.37.33.33,0,0,0,.37.28,9.36,9.36,0,0,1,1.18-.08A8.42,8.42,0,0,1,37,22.12a1.42,1.42,0,1,1-2.84,0,5.58,5.58,0,0,0-5.57-5.57,5.49,5.49,0,0,0-3.46,1.2A.36.36,0,0,0,25,18a.37.37,0,0,0,.07.25.34.34,0,0,0,.47.05,4.91,4.91,0,0,1,8,3.85Z"/><path d="M20.36,19a.27.27,0,0,0,.12,0,.33.33,0,0,0,.31-.2A8.38,8.38,0,0,1,26,14.1a.35.35,0,0,0,.19-.17.31.31,0,0,0,0-.25.3.3,0,0,0-.16-.19.28.28,0,0,0-.15,0h-.1a9.08,9.08,0,0,0-5.64,5.13A.33.33,0,0,0,20.36,19Z"/><path d="M38.71,26.31a.38.38,0,0,0-.21-.14.31.31,0,0,0-.25,0,4.91,4.91,0,0,1-7.63-4.1A2.09,2.09,0,0,0,28.54,20a2.17,2.17,0,0,0-.62.1.33.33,0,0,0-.22.41.37.37,0,0,0,.17.2.35.35,0,0,0,.25,0A1.4,1.4,0,0,1,30,22.12a5.58,5.58,0,0,0,5.57,5.58,5.52,5.52,0,0,0,3.08-.93A.33.33,0,0,0,38.71,26.31Z"/><path d="M27,21.24a.18.18,0,0,0-.1,0,.4.4,0,0,0-.15,0,.35.35,0,0,0-.17.19,2.25,2.25,0,0,0-.11.68,9,9,0,0,0,1.92,5.58.32.32,0,0,0,.26.13.37.37,0,0,0,.2-.07.34.34,0,0,0,.06-.47,8.27,8.27,0,0,1-1.78-5.17,1.44,1.44,0,0,1,.08-.46A.32.32,0,0,0,27,21.24Z"/><path d="M36,31.18a.34.34,0,0,0,.32-.35.37.37,0,0,0-.12-.23.3.3,0,0,0-.23-.08h-.45a8.35,8.35,0,0,1-5.66-2.19.35.35,0,0,0-.22-.08.29.29,0,0,0-.24.11.33.33,0,0,0-.09.23.3.3,0,0,0,.11.23,9,9,0,0,0,6.1,2.36Z"/><path class="cls-1" d="M29.76,5A16.88,16.88,0,1,0,46.64,21.84,16.9,16.9,0,0,0,29.76,5ZM46.3,21.84a16.5,16.5,0,0,1-4.73,11.57L18.18,10A16.53,16.53,0,0,1,46.3,21.84Zm-33.09,0A16.46,16.46,0,0,1,18,10.27L41.33,33.65A16.53,16.53,0,0,1,13.21,21.84Z"/><text class="cls-2" transform="translate(5.35 46.09)">NON-MARRING</text></svg>