<svg id="Layer_1" data-name="Layer 1" xmlns="http://www.w3.org/2000/svg" xmlns:xlink="http://www.w3.org/1999/xlink" viewBox="0 0 99.66 52.81"><defs><style>.cls-1{fill:none;}.cls-2{clip-path:url(#clip-path);}.cls-3{fill:#fff;}</style><clipPath id="clip-path"><rect class="cls-1" x="15.13" y="6.54" width="69.4" height="39.72"/></clipPath></defs><g id="ultrafresh"><g class="cls-2"><g class="cls-2"><path class="cls-3" d="M83.62,26.41c0,11-15.24,19.86-34,19.86s-34-8.89-34-19.86S30.8,6.54,49.59,6.54s34,8.9,34,19.87"/><path d="M30.64,27.76a3.24,3.24,0,0,1-.14.94,2.34,2.34,0,0,1-.4.77,1.9,1.9,0,0,1-1.56.72,2.34,2.34,0,0,1-.71-.1,1.38,1.38,0,0,1-.57-.34,1.32,1.32,0,0,1-.39-.57,2.17,2.17,0,0,1-.15-.86V24.18h-.48v4.18a2.64,2.64,0,0,0,.17,1,2,2,0,0,0,.48.73,1.81,1.81,0,0,0,.73.44,2.73,2.73,0,0,0,.92.15h0a2.26,2.26,0,0,0,2.1-1.15v1h.48V24.18h-.48Z"/><polygon points="32.38 21.8 32.25 21.8 32.25 30.54 32.74 30.54 32.74 21.8 32.61 21.8 32.38 21.8"/><path d="M35.22,22.25h-.48v1.93H33.62v.48h1.12v4.61a1.07,1.07,0,0,0,1.12,1.27h0l.39,0,.21,0h.11V30L36.4,30l-.16,0h-.32l-.27,0a.39.39,0,0,1-.2-.08.67.67,0,0,1-.16-.24,1.41,1.41,0,0,1-.07-.49h0V24.66H36.6v-.48H35.22Z"/><path d="M40.18,24a2.75,2.75,0,0,0-.9.13,2.39,2.39,0,0,0-.75.37,2,2,0,0,0-.51.57l-.05.1v-1h-.49v6.36H38V27a3.34,3.34,0,0,1,.14-.94,2.38,2.38,0,0,1,.41-.79,1.92,1.92,0,0,1,.71-.54,2.09,2.09,0,0,1,.86-.17h.31V24h-.22"/><path d="M45.84,30.07h0l-.18,0a.24.24,0,0,1-.13-.08s0-.07,0-.18V25.91a2.13,2.13,0,0,0-.19-.89,1.64,1.64,0,0,0-.48-.59,1.76,1.76,0,0,0-.68-.31,3.44,3.44,0,0,0-.8-.09,3,3,0,0,0-1,.17,2.13,2.13,0,0,0-.76.45,2.06,2.06,0,0,0-.47.69,2.64,2.64,0,0,0-.19.84v.14h.49V26.2A1.73,1.73,0,0,1,41.89,25a2.05,2.05,0,0,1,1.41-.44,2.26,2.26,0,0,1,.92.15,1.29,1.29,0,0,1,.49.37,1.13,1.13,0,0,1,.21.49,3.65,3.65,0,0,1,0,.55.75.75,0,0,1-.11.46.7.7,0,0,1-.36.23,3.92,3.92,0,0,1-.72.11L42.69,27a5.2,5.2,0,0,0-.78.1,1.92,1.92,0,0,0-.72.29,1.5,1.5,0,0,0-.52.59,2,2,0,0,0-.2,1,1.54,1.54,0,0,0,.61,1.33,2.53,2.53,0,0,0,1.56.44,3.28,3.28,0,0,0,.91-.13,3,3,0,0,0,.76-.36,2.45,2.45,0,0,0,.55-.51l.1-.15v.3a.63.63,0,0,0,.26.57.93.93,0,0,0,.52.15h.48V30h-.14l-.24,0m-4,0a1.38,1.38,0,0,1-.51-.3,1,1,0,0,1-.27-.4A1.36,1.36,0,0,1,41,28.9a1.5,1.5,0,0,1,.15-.73,1,1,0,0,1,.37-.43,1.4,1.4,0,0,1,.56-.22c.22,0,.44-.07.68-.09l.72,0c.26,0,.49,0,.71-.06a3.29,3.29,0,0,0,.6-.15.76.76,0,0,0,.22-.11V28a2.4,2.4,0,0,1-.15.84,2,2,0,0,1-.45.71,2.35,2.35,0,0,1-.74.5,2.43,2.43,0,0,1-1,.19,2.5,2.5,0,0,1-.79-.11"/><path d="M50.53,21.81h-.32a1.89,1.89,0,0,0-.79.14,1.15,1.15,0,0,0-.51.41,1.72,1.72,0,0,0-.25.62,4.38,4.38,0,0,0-.06.75v.43h-1V25h1v5.51h1V25h1.21v-.88H49.6v-.41c0-.16,0-.32,0-.46a1,1,0,0,1,.08-.32.41.41,0,0,1,.19-.2.83.83,0,0,1,.42-.08h.24l.28,0,.15,0v-.9h-.11l-.33,0"/><path d="M54.6,24.07a2.34,2.34,0,0,0-1.37.39,2.38,2.38,0,0,0-.72.76V24.15h-.93v6.39h1v-3.4a2.34,2.34,0,0,1,.16-.85,2.05,2.05,0,0,1,.44-.67,2.25,2.25,0,0,1,.68-.43,2.22,2.22,0,0,1,.75-.13h.26v-1H54.6"/><path d="M59.8,28.36a2.16,2.16,0,0,1-.61,1.08,1.73,1.73,0,0,1-1.2.4,1.7,1.7,0,0,1-.85-.21,2.08,2.08,0,0,1-.6-.54,2.28,2.28,0,0,1-.34-.74,3.29,3.29,0,0,1-.1-.68h4.71v-.12c0-.06,0-.13,0-.19a5.25,5.25,0,0,0-.13-1.11,3.39,3.39,0,0,0-.49-1.15,2.57,2.57,0,0,0-.89-.81A2.63,2.63,0,0,0,58,24a2.72,2.72,0,0,0-1.31.3,2.62,2.62,0,0,0-.91.77,3.36,3.36,0,0,0-.51,1.08,4.6,4.6,0,0,0-.17,1.22,4.88,4.88,0,0,0,.17,1.28,3.21,3.21,0,0,0,.51,1.07,2.35,2.35,0,0,0,.91.74A3,3,0,0,0,58,30.7h0a2.69,2.69,0,0,0,1.88-.6,3.17,3.17,0,0,0,.92-1.68l0-.15h-1Zm0-1.57h-3.7a2.88,2.88,0,0,1,.17-.64,2.29,2.29,0,0,1,.38-.67,1.73,1.73,0,0,1,.57-.46,1.64,1.64,0,0,1,.76-.17,1.66,1.66,0,0,1,.75.17,2,2,0,0,1,.57.46,1.92,1.92,0,0,1,.36.66,2.36,2.36,0,0,1,.14.65"/><path d="M66.16,27.45a2.3,2.3,0,0,0-.59-.35,3.9,3.9,0,0,0-.67-.18l-1-.22-.4-.12a1.76,1.76,0,0,1-.39-.19,1,1,0,0,1-.28-.25.58.58,0,0,1-.1-.35.84.84,0,0,1,.11-.44,1,1,0,0,1,.3-.28,1.61,1.61,0,0,1,.43-.17,2.81,2.81,0,0,1,.49,0,2.12,2.12,0,0,1,.57.08,1.16,1.16,0,0,1,.46.22,1.08,1.08,0,0,1,.32.38,1.44,1.44,0,0,1,.13.55v.12h1v-.13a2.19,2.19,0,0,0-.21-.92,2,2,0,0,0-1.26-1,3.26,3.26,0,0,0-.9-.13,4,4,0,0,0-.84.1,2.83,2.83,0,0,0-.78.31A1.79,1.79,0,0,0,62,25a1.62,1.62,0,0,0-.23.86,1.74,1.74,0,0,0,.14.72,1.46,1.46,0,0,0,.4.49,2.66,2.66,0,0,0,.57.33,6.39,6.39,0,0,0,.7.22l1,.22a4.34,4.34,0,0,1,.48.14,2,2,0,0,1,.41.19,1.15,1.15,0,0,1,.27.27.87.87,0,0,1,0,.86,1.19,1.19,0,0,1-.37.33,1.67,1.67,0,0,1-.5.19,2.62,2.62,0,0,1-.54.06A1.87,1.87,0,0,1,63,29.47a1.35,1.35,0,0,1-.51-1V28.3h-1v.14a2.3,2.3,0,0,0,.81,1.73,3,3,0,0,0,1.83.53,4,4,0,0,0,.9-.1,2.41,2.41,0,0,0,.83-.33,1.87,1.87,0,0,0,.61-.61,1.59,1.59,0,0,0,.25-.91,1.67,1.67,0,0,0-.17-.76,1.74,1.74,0,0,0-.43-.54"/><path d="M73,25.45a2,2,0,0,0-.4-.8,1.87,1.87,0,0,0-.74-.5A3.15,3.15,0,0,0,70.73,24a2.34,2.34,0,0,0-1.26.36,2.26,2.26,0,0,0-.6.55V21.8h-1v8.74h1V26.83A2.52,2.52,0,0,1,69,26a1.75,1.75,0,0,1,.35-.63,1.72,1.72,0,0,1,.55-.41,1.81,1.81,0,0,1,.76-.15,1.75,1.75,0,0,1,.7.13,1.17,1.17,0,0,1,.43.36,1.32,1.32,0,0,1,.23.54,3.08,3.08,0,0,1,.07.7v4h1V26.46a4.46,4.46,0,0,0-.11-1"/><path d="M47.56,27.17A.57.57,0,1,1,47,26.6a.56.56,0,0,1,.57.57"/><path d="M52.64,9.57c-12,0-22.33,4.34-26.83,10.56,4.86-4.8,13.63-8,23.64-8,15.29,0,27.68,7.47,27.68,16.67,0,6.7-6.55,12.47-16,15.13,12-2.19,20.76-8.88,20.76-16.81,0-9.69-13.09-17.55-29.24-17.55"/><path d="M46.53,43.4c12,0,22.33-4.35,26.83-10.56-4.86,4.79-13.63,8-23.64,8C34.43,40.84,22,33.37,22,24.16c0-6.69,6.55-12.47,16-15.12-12,2.19-20.76,8.88-20.76,16.81,0,9.69,13.09,17.55,29.24,17.55"/><path d="M49.09,32.66v.23h0a.59.59,0,0,1,.24-.21.68.68,0,0,1,.32-.07.78.78,0,0,1,.64.3.86.86,0,0,1,.15.32,1.52,1.52,0,0,1,.05.38,1.34,1.34,0,0,1-.05.35.81.81,0,0,1-.15.31.75.75,0,0,1-.26.21.78.78,0,0,1-.35.08.68.68,0,0,1-.32-.07.61.61,0,0,1-.24-.21h0v.88H48.6v-2.5Zm.66,1.47a.44.44,0,0,0,.14-.13,1.07,1.07,0,0,0,.07-.19,1.5,1.5,0,0,0,0-.22,1.64,1.64,0,0,0,0-.22.64.64,0,0,0-.08-.19.47.47,0,0,0-.14-.14.39.39,0,0,0-.2,0,.41.41,0,0,0-.21,0,.38.38,0,0,0-.14.14.4.4,0,0,0-.07.19.82.82,0,0,0,0,.44.62.62,0,0,0,.07.19.44.44,0,0,0,.14.13.47.47,0,0,0,.42,0"/><path d="M51.6,32.66V33h0a.65.65,0,0,1,.09-.16.53.53,0,0,1,.14-.12.65.65,0,0,1,.17-.08.58.58,0,0,1,.19,0,.23.23,0,0,1,.11,0v.47h-.18a.54.54,0,0,0-.24.05.4.4,0,0,0-.16.13.49.49,0,0,0-.08.18.93.93,0,0,0,0,.24v.83h-.5V32.66Z"/><path d="M52.78,33.18a.89.89,0,0,1,.19-.31.77.77,0,0,1,.3-.19,1,1,0,0,1,.4-.07,1,1,0,0,1,.39.07.89.89,0,0,1,.31.19,1,1,0,0,1,.26.72,1,1,0,0,1-.07.4,1.08,1.08,0,0,1-.19.31.89.89,0,0,1-.31.19,1,1,0,0,1-.39.07,1,1,0,0,1-.4-.07.77.77,0,0,1-.3-.19.89.89,0,0,1-.19-.31,1,1,0,0,1-.07-.4,1.07,1.07,0,0,1,.07-.41m.46.62a.54.54,0,0,0,.07.19.38.38,0,0,0,.14.14.48.48,0,0,0,.22,0,.46.46,0,0,0,.21,0A.32.32,0,0,0,54,34a.54.54,0,0,0,.08-.19,1.17,1.17,0,0,0,0-.43.54.54,0,0,0-.08-.19.38.38,0,0,0-.14-.14.46.46,0,0,0-.21,0,.48.48,0,0,0-.22,0,.47.47,0,0,0-.14.14.54.54,0,0,0-.07.19.78.78,0,0,0,0,.22.75.75,0,0,0,0,.21"/><path d="M56.3,32.66V33h-.38v.92a.25.25,0,0,0,0,.17s.08,0,.17,0h.16v.39l-.15,0h-.37a.84.84,0,0,1-.19-.07.33.33,0,0,1-.13-.13.49.49,0,0,1-.05-.23V33h-.3v-.34h.3V32.1h.51v.56Z"/><path d="M57.41,34.07a.45.45,0,0,0,.33.11A.45.45,0,0,0,58,34.1a.3.3,0,0,0,.14-.16h.45a.92.92,0,0,1-.33.48,1,1,0,0,1-.54.14,1,1,0,0,1-.4-.07.84.84,0,0,1-.29-.2.71.71,0,0,1-.19-.31,1.12,1.12,0,0,1,0-.78.89.89,0,0,1,.19-.31,1,1,0,0,1,.3-.21,1,1,0,0,1,.39-.07.88.88,0,0,1,.41.09.71.71,0,0,1,.29.25.86.86,0,0,1,.16.35,1.12,1.12,0,0,1,0,.41H57.28a.54.54,0,0,0,.13.36m.57-1a.38.38,0,0,0-.28-.1.59.59,0,0,0-.2,0,.35.35,0,0,0-.13.11.75.75,0,0,0-.07.12.69.69,0,0,0,0,.13h.83a.6.6,0,0,0-.13-.3"/><path d="M60.13,33a.35.35,0,0,0-.21.06.35.35,0,0,0-.13.14.64.64,0,0,0-.08.19,1.65,1.65,0,0,0,0,.21,1.49,1.49,0,0,0,0,.21,1.07,1.07,0,0,0,.07.19.86.86,0,0,0,.13.14.46.46,0,0,0,.21,0,.37.37,0,0,0,.28-.1.56.56,0,0,0,.12-.28H61a.86.86,0,0,1-.28.57,1.07,1.07,0,0,1-1,.12.79.79,0,0,1-.3-.2.91.91,0,0,1-.19-.3,1.12,1.12,0,0,1-.07-.38,1.09,1.09,0,0,1,.07-.4.92.92,0,0,1,.18-.32.81.81,0,0,1,.3-.21,1,1,0,0,1,.4-.07,1.12,1.12,0,0,1,.32,0,.84.84,0,0,1,.27.13.7.7,0,0,1,.2.22.75.75,0,0,1,.08.31h-.5a.34.34,0,0,0-.37-.32"/><path d="M62.64,32.66V33h-.37v.92a.25.25,0,0,0,0,.17s.08,0,.17,0h.16v.39l-.14,0h-.38a.84.84,0,0,1-.19-.07.33.33,0,0,1-.13-.13.5.5,0,0,1,0-.23V33h-.31v-.34h.31V32.1h.51v.56Z"/><path d="M63.22,32h.51v.42h-.51Zm.51,2.56h-.51V32.66h.51Z"/><path d="M64.46,33.18a.89.89,0,0,1,.19-.31,1,1,0,0,1,.3-.19,1,1,0,0,1,.4-.07,1,1,0,0,1,.39.07.78.78,0,0,1,.5.5,1.07,1.07,0,0,1,.07.41,1,1,0,0,1-.07.4.78.78,0,0,1-.5.5,1,1,0,0,1-.39.07,1,1,0,0,1-.4-.07,1,1,0,0,1-.3-.19.89.89,0,0,1-.19-.31,1,1,0,0,1-.07-.4,1.07,1.07,0,0,1,.07-.41m.46.62A.84.84,0,0,0,65,34a.38.38,0,0,0,.14.14.48.48,0,0,0,.22,0,.43.43,0,0,0,.21,0A.32.32,0,0,0,65.7,34a.54.54,0,0,0,.08-.19,1.17,1.17,0,0,0,0-.43.54.54,0,0,0-.08-.19.38.38,0,0,0-.14-.14.43.43,0,0,0-.21,0,.48.48,0,0,0-.22,0,.47.47,0,0,0-.14.14.84.84,0,0,0-.07.19,1.17,1.17,0,0,0,0,.43"/><path d="M67.44,32.66v.26h0a.6.6,0,0,1,.26-.24.67.67,0,0,1,.31-.07,1.06,1.06,0,0,1,.34,0,.53.53,0,0,1,.2.16.53.53,0,0,1,.11.24,1.48,1.48,0,0,1,0,.31v1.14h-.51v-1a.66.66,0,0,0-.07-.35.29.29,0,0,0-.26-.11.35.35,0,0,0-.3.12.73.73,0,0,0-.09.41v1H67V32.66Z"/><path d="M30.55,32.93v-.27h.31v-.28A.46.46,0,0,1,31,32a.57.57,0,0,1,.39-.12h.09l.1,0v.27l-.08,0H31.4a.39.39,0,0,0-.17,0,.21.21,0,0,0-.06.17v.26h.36v.27h-.36v1.58h-.31V32.93Z"/><path d="M32.17,32.66v.39h0a.75.75,0,0,1,.27-.33.62.62,0,0,1,.41-.1v.32a.72.72,0,0,0-.31.05.41.41,0,0,0-.21.15.55.55,0,0,0-.11.23,1,1,0,0,0,0,.32v.82h-.31V32.66Z"/><path d="M34.44,34.4a1,1,0,0,1-.91.08.8.8,0,0,1-.28-.2,1,1,0,0,1-.17-.31,2.28,2.28,0,0,1-.06-.39,1,1,0,0,1,.07-.39.83.83,0,0,1,.18-.3.86.86,0,0,1,.27-.2.84.84,0,0,1,.35-.07.71.71,0,0,1,.41.1.84.84,0,0,1,.27.26,1,1,0,0,1,.13.34,1.14,1.14,0,0,1,0,.36H33.35a.58.58,0,0,0,0,.23.59.59,0,0,0,.11.19.62.62,0,0,0,.18.14.67.67,0,0,0,.26,0,.53.53,0,0,0,.32-.09.41.41,0,0,0,.16-.28h.31a.87.87,0,0,1-.27.48m-.08-1.2a.36.36,0,0,0-.11-.16.42.42,0,0,0-.16-.11.54.54,0,0,0-.21,0,.54.54,0,0,0-.22,0,.36.36,0,0,0-.16.11.5.5,0,0,0-.11.17.65.65,0,0,0,0,.2h1.06a.54.54,0,0,0,0-.21"/><path d="M35.38,34.1a.38.38,0,0,0,.11.11.44.44,0,0,0,.16.06l.18,0H36l.15,0a.31.31,0,0,0,.11-.09.2.2,0,0,0,0-.14.2.2,0,0,0-.09-.18.9.9,0,0,0-.22-.1l-.3-.07a1.38,1.38,0,0,1-.29-.08.6.6,0,0,1-.22-.16.39.39,0,0,1-.09-.28.48.48,0,0,1,.06-.24.61.61,0,0,1,.16-.16.85.85,0,0,1,.22-.09.77.77,0,0,1,.25,0,1.29,1.29,0,0,1,.29,0,.64.64,0,0,1,.24.1.52.52,0,0,1,.16.17.77.77,0,0,1,.07.29h-.3a.33.33,0,0,0,0-.15.47.47,0,0,0-.1-.1l-.14-.05-.14,0h-.14l-.13,0a.22.22,0,0,0-.09.07.16.16,0,0,0,0,.12.16.16,0,0,0,.06.13.28.28,0,0,0,.14.09l.19.06.22,0,.22.07a.56.56,0,0,1,.19.09.4.4,0,0,1,.14.15.38.38,0,0,1,.05.22.49.49,0,0,1-.07.28.39.39,0,0,1-.18.18.77.77,0,0,1-.25.1l-.29,0a1.36,1.36,0,0,1-.29,0,.71.71,0,0,1-.25-.11.45.45,0,0,1-.17-.19.65.65,0,0,1-.07-.29h.3a.42.42,0,0,0,.05.17"/><path d="M37.34,32v1h0a.3.3,0,0,1,.1-.14.4.4,0,0,1,.15-.1.52.52,0,0,1,.16-.06l.17,0a.87.87,0,0,1,.31,0,.6.6,0,0,1,.2.14.55.55,0,0,1,.1.22,1.12,1.12,0,0,1,0,.27v1.22h-.3V33.26a.35.35,0,0,0-.38-.38.6.6,0,0,0-.24,0,.43.43,0,0,0-.17.12.4.4,0,0,0-.1.18.61.61,0,0,0,0,.24v1H37V32Z"/><path d="M39.42,32.66V33h0a.65.65,0,0,1,.61-.33.67.67,0,0,1,.3.05.48.48,0,0,1,.2.14.53.53,0,0,1,.11.21,1.12,1.12,0,0,1,0,.27v1.22h-.31V33.26a.33.33,0,0,0-.1-.27.38.38,0,0,0-.28-.11.6.6,0,0,0-.24,0,.46.46,0,0,0-.27.3.93.93,0,0,0,0,.24v1h-.31V32.66Z"/><path d="M42.54,34.4a1,1,0,0,1-.91.08.8.8,0,0,1-.28-.2,1,1,0,0,1-.17-.31,2.28,2.28,0,0,1-.06-.39,1,1,0,0,1,.07-.39.83.83,0,0,1,.18-.3.86.86,0,0,1,.27-.2.84.84,0,0,1,.35-.07.71.71,0,0,1,.41.1.84.84,0,0,1,.27.26,1,1,0,0,1,.13.34,1.14,1.14,0,0,1,0,.36H41.45a.58.58,0,0,0,0,.23.59.59,0,0,0,.11.19.62.62,0,0,0,.18.14.67.67,0,0,0,.26,0,.53.53,0,0,0,.32-.09.41.41,0,0,0,.16-.28h.31a.87.87,0,0,1-.27.48m-.08-1.2a.36.36,0,0,0-.11-.16.42.42,0,0,0-.16-.11.54.54,0,0,0-.21,0,.54.54,0,0,0-.22,0,.36.36,0,0,0-.16.11.5.5,0,0,0-.11.17.65.65,0,0,0,0,.2h1.06a.54.54,0,0,0,0-.21"/><path d="M43.48,34.1a.38.38,0,0,0,.11.11.44.44,0,0,0,.16.06l.18,0h.15l.15,0a.31.31,0,0,0,.11-.09.2.2,0,0,0,0-.14.2.2,0,0,0-.09-.18.9.9,0,0,0-.22-.1l-.3-.07a1.38,1.38,0,0,1-.29-.08.6.6,0,0,1-.22-.16.39.39,0,0,1-.09-.28.48.48,0,0,1,.06-.24.61.61,0,0,1,.16-.16.85.85,0,0,1,.22-.09.77.77,0,0,1,.25,0,1.29,1.29,0,0,1,.29,0,.64.64,0,0,1,.24.1.52.52,0,0,1,.16.17.77.77,0,0,1,.07.29h-.3a.33.33,0,0,0,0-.15.47.47,0,0,0-.1-.1L44,32.9l-.14,0h-.14l-.13,0a.22.22,0,0,0-.09.07.16.16,0,0,0,0,.12.16.16,0,0,0,.06.13.28.28,0,0,0,.14.09l.19.06.22,0,.22.07a.56.56,0,0,1,.19.09.4.4,0,0,1,.14.15.38.38,0,0,1,.05.22.49.49,0,0,1-.07.28.39.39,0,0,1-.18.18.77.77,0,0,1-.25.1l-.29,0a1.36,1.36,0,0,1-.29,0,.71.71,0,0,1-.25-.11.45.45,0,0,1-.17-.19.65.65,0,0,1-.07-.29h.3a.42.42,0,0,0,0,.17"/><path d="M45.37,34.1a.38.38,0,0,0,.11.11.44.44,0,0,0,.16.06l.18,0H46l.15,0a.31.31,0,0,0,.11-.09.2.2,0,0,0,0-.14.2.2,0,0,0-.09-.18.9.9,0,0,0-.22-.1l-.3-.07a1.38,1.38,0,0,1-.29-.08.6.6,0,0,1-.22-.16.39.39,0,0,1-.09-.28.48.48,0,0,1,.06-.24.61.61,0,0,1,.16-.16.79.79,0,0,1,.23-.09.67.67,0,0,1,.24,0,1.29,1.29,0,0,1,.29,0,.64.64,0,0,1,.24.1.52.52,0,0,1,.16.17.77.77,0,0,1,.07.29h-.3a.33.33,0,0,0-.05-.15.47.47,0,0,0-.1-.1l-.13-.05-.15,0h-.14l-.13,0a.22.22,0,0,0-.09.07.16.16,0,0,0,0,.12.16.16,0,0,0,.06.13.28.28,0,0,0,.14.09l.19.06.22,0,.22.07a.72.72,0,0,1,.2.09.47.47,0,0,1,.13.15.38.38,0,0,1,.05.22.49.49,0,0,1-.07.28.39.39,0,0,1-.18.18.69.69,0,0,1-.25.1l-.29,0a1.36,1.36,0,0,1-.29,0,.71.71,0,0,1-.25-.11.45.45,0,0,1-.17-.19.65.65,0,0,1-.07-.29h.3a.42.42,0,0,0,0,.17"/><path d="M31.09,18.56v.24h0a.51.51,0,0,1,.24-.22.64.64,0,0,1,.31-.07.89.89,0,0,1,.38.08.92.92,0,0,1,.26.22.86.86,0,0,1,.15.32,1.2,1.2,0,0,1,.05.38,1.12,1.12,0,0,1-.05.36.85.85,0,0,1-.15.3.72.72,0,0,1-.25.21.81.81,0,0,1-.68,0,.64.64,0,0,1-.24-.2h0v.87h-.51v-2.5ZM31.75,20a.35.35,0,0,0,.14-.13.54.54,0,0,0,.07-.19.78.78,0,0,0,0-.22.86.86,0,0,0,0-.22.46.46,0,0,0-.08-.19.4.4,0,0,0-.13-.13.4.4,0,0,0-.42,0,.44.44,0,0,0-.14.13.62.62,0,0,0-.07.19,1.64,1.64,0,0,0,0,.22,1.5,1.5,0,0,0,0,.22.54.54,0,0,0,.08.19.35.35,0,0,0,.14.13.39.39,0,0,0,.2,0,.41.41,0,0,0,.21,0"/><path d="M33.58,18.56v.34h0a1.4,1.4,0,0,1,.1-.16.81.81,0,0,1,.14-.12.53.53,0,0,1,.17-.08.58.58,0,0,1,.19,0l.11,0V19h-.18a.54.54,0,0,0-.24.05.34.34,0,0,0-.16.13.37.37,0,0,0-.08.19.8.8,0,0,0,0,.23v.83h-.51V18.56Z"/><path d="M34.73,19.09a.86.86,0,0,1,.19-.31.92.92,0,0,1,.31-.2.94.94,0,0,1,.39-.07,1,1,0,0,1,.4.07.79.79,0,0,1,.3.2.74.74,0,0,1,.19.31,1.18,1.18,0,0,1,0,.8.89.89,0,0,1-.19.31.77.77,0,0,1-.3.19,1,1,0,0,1-.4.07.94.94,0,0,1-.39-.07.89.89,0,0,1-.31-.19,1.08,1.08,0,0,1-.19-.31,1.18,1.18,0,0,1,0-.8m.46.62a.64.64,0,0,0,.08.19.35.35,0,0,0,.14.13.41.41,0,0,0,.21,0,.48.48,0,0,0,.22,0A.44.44,0,0,0,36,19.9a.62.62,0,0,0,.07-.19,1.22,1.22,0,0,0,0-.44.62.62,0,0,0-.07-.19.35.35,0,0,0-.14-.13.38.38,0,0,0-.22-.06.33.33,0,0,0-.21.06.29.29,0,0,0-.14.13.64.64,0,0,0-.08.19,1.22,1.22,0,0,0,0,.44"/><path d="M38.23,18.56v.34h-.38v.92a.23.23,0,0,0,0,.17s.08,0,.17,0h.16v.39l-.15,0H37.7a.48.48,0,0,1-.18-.07.27.27,0,0,1-.13-.13.49.49,0,0,1,0-.23V18.9H37v-.34h.31V18h.51v.56Z"/><path d="M39.31,20a.49.49,0,0,0,.33.11.43.43,0,0,0,.27-.08.32.32,0,0,0,.13-.16h.45a.87.87,0,0,1-.33.48,1,1,0,0,1-.54.14,1,1,0,0,1-.39-.07.79.79,0,0,1-.3-.2.81.81,0,0,1-.19-.31,1.12,1.12,0,0,1,0-.78.92.92,0,0,1,.2-.31.81.81,0,0,1,.3-.21.92.92,0,0,1,.38-.07.86.86,0,0,1,.41.09.71.71,0,0,1,.29.25,1,1,0,0,1,.17.35,1.39,1.39,0,0,1,0,.41H39.18a.5.5,0,0,0,.13.36m.58-1a.41.41,0,0,0-.28-.1.65.65,0,0,0-.21,0,.43.43,0,0,0-.12.11.24.24,0,0,0-.07.13.53.53,0,0,0,0,.12H40a.59.59,0,0,0-.12-.3"/><path d="M42,18.89a.32.32,0,0,0-.2.06.35.35,0,0,0-.13.14.7.7,0,0,0-.08.2,1.06,1.06,0,0,0,0,.41,1.07,1.07,0,0,0,.07.19.44.44,0,0,0,.13.14.42.42,0,0,0,.2,0,.38.38,0,0,0,.29-.1.56.56,0,0,0,.12-.28h.49a.83.83,0,0,1-.29.57.9.9,0,0,1-.6.19,1,1,0,0,1-.39-.07.81.81,0,0,1-.29-.19,1,1,0,0,1-.19-.3,1,1,0,0,1-.07-.39,1.34,1.34,0,0,1,.06-.4,1.13,1.13,0,0,1,.19-.32.79.79,0,0,1,.3-.2.84.84,0,0,1,.4-.08,1.17,1.17,0,0,1,.32,0,.84.84,0,0,1,.27.13.79.79,0,0,1,.19.22.75.75,0,0,1,.09.31h-.5a.34.34,0,0,0-.38-.32"/><path d="M44.49,18.56v.34h-.37v.92c0,.09,0,.14,0,.17a.25.25,0,0,0,.17,0h.16v.39l-.14,0H44a.62.62,0,0,1-.19-.07.3.3,0,0,1-.12-.13.39.39,0,0,1,0-.23V18.9H43.3v-.34h.31V18h.51v.56Z"/><path d="M45,17.85h.51v.42H45Zm.51,2.56H45V18.56h.51Z"/><path d="M46.26,19.09a.86.86,0,0,1,.19-.31.92.92,0,0,1,.31-.2.94.94,0,0,1,.39-.07,1,1,0,0,1,.4.07.79.79,0,0,1,.3.2.74.74,0,0,1,.19.31,1.18,1.18,0,0,1,0,.8.89.89,0,0,1-.19.31.77.77,0,0,1-.3.19,1,1,0,0,1-.4.07.94.94,0,0,1-.39-.07.89.89,0,0,1-.31-.19,1.08,1.08,0,0,1-.19-.31,1.18,1.18,0,0,1,0-.8m.46.62a.64.64,0,0,0,.08.19.35.35,0,0,0,.14.13.41.41,0,0,0,.21,0,.48.48,0,0,0,.22,0,.44.44,0,0,0,.14-.13.62.62,0,0,0,.07-.19,1.22,1.22,0,0,0,0-.44.62.62,0,0,0-.07-.19.35.35,0,0,0-.14-.13.38.38,0,0,0-.22-.06.33.33,0,0,0-.21.06.29.29,0,0,0-.14.13.64.64,0,0,0-.08.19,1.22,1.22,0,0,0,0,.44"/><path d="M49.22,18.56v.26h0a.64.64,0,0,1,.25-.24.74.74,0,0,1,.32-.07,1.06,1.06,0,0,1,.34,0,.53.53,0,0,1,.2.16.53.53,0,0,1,.11.24,1.48,1.48,0,0,1,0,.31v1.14H50v-1A.77.77,0,0,0,49.9,19a.3.3,0,0,0-.26-.11.35.35,0,0,0-.3.12.73.73,0,0,0-.09.41v1h-.51V18.56Z"/><path d="M52.3,18.83v-.27h.31v-.28a.46.46,0,0,1,.13-.34.57.57,0,0,1,.39-.12h.09l.1,0v.27l-.08,0h-.09a.29.29,0,0,0-.17.05s-.06.08-.06.16v.26h.36v.27h-.36v1.59h-.31V18.83Z"/><path d="M54.12,18.56V19h0a.75.75,0,0,1,.27-.33.6.6,0,0,1,.41-.1v.32a.91.91,0,0,0-.31.05.41.41,0,0,0-.21.15.71.71,0,0,0-.12.23,1.51,1.51,0,0,0,0,.32v.82h-.31V18.56Z"/><path d="M56.76,20.45a.29.29,0,0,1-.19-.06.29.29,0,0,1-.07-.22.77.77,0,0,1-.29.22,1,1,0,0,1-.36.06.9.9,0,0,1-.24,0,.72.72,0,0,1-.2-.09.51.51,0,0,1-.13-.16.6.6,0,0,1-.05-.24.5.5,0,0,1,.06-.26.36.36,0,0,1,.14-.16.47.47,0,0,1,.2-.1l.23-.05.24,0,.2,0a.3.3,0,0,0,.14-.06.2.2,0,0,0,.05-.14.38.38,0,0,0,0-.16.31.31,0,0,0-.23-.13h-.15a.63.63,0,0,0-.32.07.31.31,0,0,0-.14.28H55.3a.62.62,0,0,1,.08-.29.55.55,0,0,1,.17-.2.82.82,0,0,1,.25-.1,1.36,1.36,0,0,1,.29,0h.25a.72.72,0,0,1,.22.08.5.5,0,0,1,.17.15.54.54,0,0,1,.06.27V20a.67.67,0,0,0,0,.16.08.08,0,0,0,.08.05l.1,0v.24a.48.48,0,0,1-.22,0m-.43-.93-.2,0-.2,0-.19.05a.45.45,0,0,0-.13.1.29.29,0,0,0,0,.19.21.21,0,0,0,0,.12.18.18,0,0,0,.08.09l.11,0,.13,0a1,1,0,0,0,.26,0,.54.54,0,0,0,.18-.11.41.41,0,0,0,.1-.13.39.39,0,0,0,0-.14v-.31a.34.34,0,0,1-.15.06"/><path d="M57.89,17.79l.37.51H58L57.71,18l-.25.34h-.27l.36-.51Zm-.32.77h.31v1.85h-.31Z"/><path d="M59.75,18.88a.47.47,0,0,0-.3-.09.58.58,0,0,0-.28.06A.46.46,0,0,0,59,19a.69.69,0,0,0-.09.23,1.24,1.24,0,0,0,0,.27,1,1,0,0,0,0,.25A.73.73,0,0,0,59,20a.61.61,0,0,0,.17.15.49.49,0,0,0,.25.06.48.48,0,0,0,.35-.12.52.52,0,0,0,.16-.33h.31a.84.84,0,0,1-.26.53.8.8,0,0,1-.56.18,1.06,1.06,0,0,1-.37-.06.68.68,0,0,1-.27-.2.74.74,0,0,1-.17-.3,1.12,1.12,0,0,1-.06-.38,1.23,1.23,0,0,1,.06-.39.88.88,0,0,1,.16-.32.86.86,0,0,1,.28-.21.89.89,0,0,1,.38-.07,1.45,1.45,0,0,1,.3,0,.9.9,0,0,1,.24.12.55.55,0,0,1,.17.2.62.62,0,0,1,.09.28H59.9a.46.46,0,0,0-.15-.27"/><path d="M61.17,17.85v1h0a.36.36,0,0,1,.1-.14.71.71,0,0,1,.14-.1l.17-.06h.17a.69.69,0,0,1,.31.05.48.48,0,0,1,.2.14.51.51,0,0,1,.1.21,1.12,1.12,0,0,1,0,.27v1.23h-.3V19.16a.35.35,0,0,0-.38-.37.61.61,0,0,0-.24,0,.45.45,0,0,0-.27.31.56.56,0,0,0,0,.23v1.05h-.3V17.85Z"/><path d="M64.47,20.3a.86.86,0,0,1-.52.15.94.94,0,0,1-.39-.07.68.68,0,0,1-.27-.2.78.78,0,0,1-.17-.31,1.3,1.3,0,0,1,0-.78.83.83,0,0,1,.18-.3.8.8,0,0,1,.28-.2.81.81,0,0,1,.35-.07.76.76,0,0,1,.41.1.72.72,0,0,1,.26.26,1,1,0,0,1,.14.34,2.38,2.38,0,0,1,0,.36H63.38a.85.85,0,0,0,0,.23.44.44,0,0,0,.1.19.45.45,0,0,0,.19.14.67.67,0,0,0,.26.05.5.5,0,0,0,.31-.09.42.42,0,0,0,.17-.27h.3a.77.77,0,0,1-.27.47m-.07-1.2a.64.64,0,0,0-.11-.16.45.45,0,0,0-.17-.11.57.57,0,0,0-.42,0,.39.39,0,0,0-.17.11.48.48,0,0,0-.1.17.46.46,0,0,0,0,.2h1.06a.78.78,0,0,0,0-.21"/><path d="M66.63,20.42v-.3h0a.55.55,0,0,1-.25.25.68.68,0,0,1-.35.09.87.87,0,0,1-.31-.05.6.6,0,0,1-.2-.14.51.51,0,0,1-.1-.21,1.27,1.27,0,0,1,0-.28V18.56h.3v1.26a.41.41,0,0,0,.1.27.37.37,0,0,0,.28.1.86.86,0,0,0,.24,0,.37.37,0,0,0,.17-.13.4.4,0,0,0,.1-.18.59.59,0,0,0,0-.23V18.56h.3v1.86Z"/><path d="M67.94,18.56V19h0a.83.83,0,0,1,.27-.33.62.62,0,0,1,.41-.1v.32a1,1,0,0,0-.31.05.41.41,0,0,0-.21.15.55.55,0,0,0-.11.23,1,1,0,0,0,0,.32v.82h-.3V18.56Z"/></g></g></g></svg>