<svg width="100%" height="100%" viewBox="0 0 110 44" fill="none" xmlns="http://www.w3.org/2000/svg">
<g clip-path="url(#clip0)">
<path d="M9.02844 1.55908C8.49759 1.55908 7.61285 1.73231 6.19727 2.07877V10.3937C7.4359 10.7402 8.49759 10.9134 9.02844 10.9134C10.2671 10.9134 10.9749 10.2205 10.9749 9.0079V3.46459C10.9749 2.252 10.2671 1.55908 9.02844 1.55908ZM9.38233 8.83467C9.38233 9.35436 9.02843 9.52759 8.67454 9.52759C8.32064 9.52759 7.96675 9.35436 7.61285 9.35436V3.29137C7.96675 3.11814 8.32064 3.11814 8.67454 3.11814C9.02843 3.11814 9.38233 3.29137 9.38233 3.81105V8.83467Z" fill="#2B2E35"/>
<path d="M27.0761 0C25.4836 0 24.4219 0.692913 24.4219 2.25197V10.2205C24.4219 11.9528 25.3066 12.6457 27.0761 12.4724C28.6686 12.4724 29.5534 11.7795 29.5534 10.0472V2.4252C29.7303 0.692913 28.8456 0.173228 27.0761 0ZM27.9608 10.0472C27.9608 10.5669 27.7839 10.7402 27.253 10.7402C26.5452 10.7402 26.3683 10.5669 26.3683 10.0472V2.4252C26.3683 1.90551 26.5452 1.73228 27.253 1.73228C27.7839 1.73228 27.9608 2.07874 27.9608 2.4252V10.0472Z" fill="#2B2E35"/>
<path d="M45.8335 6.23627C45.8335 7.44887 44.7718 8.48824 42.6484 9.35439V3.11816C44.7718 3.98431 45.8335 5.02368 45.8335 6.23627Z" fill="#2B2E35"/>
<path d="M0.357422 6.23627C0.357422 7.44887 1.41911 8.48824 3.54249 9.35439V3.11816C1.41911 3.98431 0.357422 5.02368 0.357422 6.23627Z" fill="#2B2E35"/>
<path d="M15.398 9.70078C15.398 10.2205 15.221 10.5669 14.6902 10.3937C13.9824 10.3937 13.8054 10.0472 13.8054 9.52755V0.519675C13.4515 0.519675 12.5668 0.692903 12.2129 0.692903V9.87401C12.2129 11.2598 12.9207 11.9527 14.6902 12.126C16.2827 12.2992 17.1674 11.6063 17.1674 9.87401V0.173218C16.8135 0.173218 15.7519 0.346446 15.398 0.346446V9.70078Z" fill="#2B2E35"/>
<path d="M34.5097 6.75588L32.5632 0.519664C32.0324 0.519664 31.3246 0.346436 30.9707 0.346436V11.9527C31.3246 11.9527 32.2093 11.7795 32.5632 11.7795L32.3863 4.85037L34.5097 11.4331C34.8636 11.4331 35.5714 11.2598 35.9252 11.2598V1.03935C35.5714 1.03935 34.6866 0.866121 34.3327 0.692892L34.5097 6.75588Z" fill="#2B2E35"/>
<path d="M20.8835 0C20.5296 0 19.4679 0 18.4062 0.173228V12.2992C18.7601 12.2992 19.6449 12.2992 20.1757 12.2992V8.31496H20.8835C22.653 8.31496 23.5377 7.44882 23.5377 5.88976V2.25197C23.5377 0.866142 22.653 0 20.8835 0ZM21.7683 5.71654C21.7683 6.23622 21.5913 6.58268 20.8835 6.58268H20.3527V1.73228C20.7066 1.73228 20.7066 1.73228 20.8835 1.73228C21.5913 1.73228 21.7683 2.07874 21.7683 2.59843V5.71654Z" fill="#2B2E35"/>
<path d="M36.8086 2.94492C37.1625 2.94492 37.6933 3.11815 38.0472 3.11815V10.9134C38.5781 10.7402 39.2859 10.567 39.6398 10.3937V3.4646C40.1706 3.63783 40.5245 3.63783 40.8784 3.81106V2.42523C39.6398 2.07878 38.4011 1.73232 36.8086 1.38586V2.94492Z" fill="#2B2E35"/>
<path d="M44.4164 10.0473H44.0625V9.87402H44.7703V10.0473H44.4164L44.5933 10.9134H44.4164V10.0473ZM44.9472 9.87402H45.1242L45.4781 10.3937L45.832 10.0473H46.0089V10.9134H45.832V10.2205L45.4781 10.5669L45.1242 10.2205V10.9134H44.9472V9.87402Z" fill="#2B2E35"/>
<path d="M43.7109 42.7875C42.1183 43.4804 39.818 44.0001 37.3407 44.0001C31.5014 44.0001 27.4316 40.3623 27.4316 34.4725C27.4316 28.756 31.1475 24.9449 36.456 24.9449C41.2336 24.9449 44.4187 28.2363 44.4187 33.0867C44.4187 34.126 44.4187 34.9922 44.2417 35.8583H32.7401C33.2709 38.63 34.8635 40.0158 37.8716 40.0158C39.6411 40.0158 41.4105 39.6694 43.0031 38.9764L43.7109 42.7875ZM32.5631 32.7402H39.4641V32.3938C39.4641 30.4883 38.4024 28.9292 36.456 28.9292C34.3326 28.9292 32.917 30.315 32.5631 32.7402Z" fill="black"/>
<path d="M55.565 39.6693C57.6884 35.6851 59.1039 31.5276 59.4578 25.4646H64.4124C63.7046 32.567 62.1121 37.2441 58.3961 43.6536H52.9108C49.0179 37.2441 47.4254 32.567 46.8945 25.4646H51.6721C52.026 31.5276 53.4416 35.5118 55.565 39.6693Z" fill="black"/>
<path d="M72.5522 36.8977C72.5522 38.8032 73.083 39.8426 74.4986 39.8426C74.8525 39.8426 75.2064 39.8426 75.5603 39.6693L75.9142 43.4804C75.2064 43.6536 74.1447 43.8268 73.4369 43.8268C69.1902 43.8268 67.5977 41.2284 67.5977 36.8977V17.8426L72.5522 17.4961V36.8977Z" fill="black"/>
<path d="M85.2932 44.0001C80.3386 44.0001 77.8613 41.5749 77.8613 38.4568C77.8613 34.9922 80.8695 32.9135 85.1162 32.9135C86.1779 32.9135 87.4165 33.0867 88.3013 33.2599V32.3938C88.3013 30.1418 87.0626 29.2757 84.5854 29.2757C82.9928 29.2757 81.2233 29.4489 79.8078 30.1418L78.923 25.9843C80.5156 25.2914 82.9928 24.9449 85.2932 24.9449C90.6016 24.9449 93.2558 27.7166 93.2558 32.567V42.441C91.6633 43.1339 88.8321 44.0001 85.2932 44.0001ZM88.3013 40.0158V36.2048C87.4165 36.0316 86.5318 35.8583 85.6471 35.8583C84.0545 35.8583 82.6389 36.5512 82.6389 38.1103C82.6389 39.6694 83.7006 40.3623 85.6471 40.3623C86.8857 40.5355 87.7704 40.189 88.3013 40.0158Z" fill="black"/>
<path d="M105.465 24.9449C106.704 24.9449 107.943 25.1182 108.65 25.2914L107.943 29.2757C107.412 29.1024 106.527 28.9292 105.819 28.9292C104.404 28.9292 103.519 29.1024 102.811 29.4489V43.3072H97.6797V26.3308C99.8031 25.6379 102.811 24.9449 105.465 24.9449Z" fill="black"/>
<path d="M107.766 40.882C108.651 40.882 109.359 41.5749 109.359 42.441C109.359 43.4804 108.651 44.0001 107.766 44.0001C106.705 44.0001 106.174 43.4804 106.174 42.441C106.174 41.4016 106.882 40.882 107.766 40.882ZM107.766 41.2284C107.059 41.2284 106.528 41.7481 106.528 42.441C106.528 43.3072 107.059 43.6536 107.766 43.6536C108.474 43.6536 109.005 43.1339 109.005 42.441C109.005 41.5749 108.651 41.2284 107.766 41.2284ZM107.236 41.5749H107.766C108.12 41.5749 108.474 41.7481 108.474 42.0946C108.474 42.2678 108.297 42.441 108.12 42.6142C108.297 42.7875 108.297 42.9607 108.474 43.3072H108.12C107.943 43.1339 107.766 42.9607 107.766 42.7875H107.589V43.3072H107.236V41.5749ZM107.589 41.9213V42.441H107.766C107.943 42.441 108.12 42.441 108.12 42.2678C108.12 42.0946 107.943 42.0946 107.766 42.0946H107.589V41.9213Z" fill="black"/>
<path d="M6.19727 18.7086H11.3288V41.5748V43.4803H6.19727V18.7086Z" fill="black"/>
<path d="M26.7246 18.7086H20.5314L11.3301 30.1417L22.3009 43.4803H28.3171L17.5233 30.1417L26.7246 18.7086Z" fill="#F9C20A"/>
</g>
<defs>
<clipPath id="clip0">
<rect width="109" height="44" fill="white" transform="translate(0.357422)"/>
</clipPath>
</defs>
</svg>
