<svg id="Layer_1" data-name="Layer 1" xmlns="http://www.w3.org/2000/svg" viewBox="0 0 48.91 52.81"><defs><style>.cls-1{font-size:19.46px;}.cls-1,.cls-2{font-family:FuturaPT-Bold, Futura PT;font-weight:700;}.cls-2{font-size:6.62px;}</style></defs><text class="cls-1" transform="translate(32.37 22.9)">1</text><path d="M39.07,34.45,25,10.16a1.23,1.23,0,0,0-2.34,0l-14,24.29c-.65,1.12-.12,2,1.17,2H37.9C39.19,36.48,39.71,35.57,39.07,34.45Zm-27.87,0,12.67-22,12.67,22Z"/><polygon points="20.25 33.45 19.14 33.45 16.77 28.33 19.02 30.14 18 25.46 20.25 28.22 20.21 20.27 23.03 27.55 23.52 24.91 24.38 27.43 26.72 21.1 25.86 28.33 27.37 26.68 26.88 28.92 30.98 25.74 27.13 32.38 29.63 31.95 27.58 33.45 25.65 33.45 26.84 30.61 24.67 31.91 24.71 29.51 23.85 30.97 23.73 29.83 23.03 31.56 21.8 28.92 21.35 31.95 20.04 30.54 20.25 33.45"/><text class="cls-2" transform="translate(23.11 49.98)"> </text><text class="cls-2" transform="translate(6.89 43.14)">ARC FLASH</text></svg>