<svg width="185" height="29" viewBox="0 0 185 29" fill="none" xmlns="http://www.w3.org/2000/svg">
<g clip-path="url(#clip0)">
<path d="M37.7067 16.6494C37.5029 15.1482 36.4838 14.4659 34.3098 14.4659C32.4074 14.4659 31.1845 15.08 31.1845 16.0353C31.1845 16.5129 31.5242 16.9224 32.0677 17.1271C32.5433 17.3318 32.951 17.4 34.9892 17.7412C38.1823 18.2188 38.6579 18.3553 39.3373 18.8329C40.0846 19.3788 40.4923 20.2659 40.4923 21.2894C40.4923 23.7459 38.3861 25.1106 34.5136 25.1106C30.641 25.1106 28.7387 23.8141 28.3311 20.9482H30.7769C30.9128 22.4494 32.2716 23.2682 34.5815 23.2682C36.8235 23.2682 38.1144 22.6541 38.1144 21.4941C38.1144 21.0165 37.8426 20.6071 37.367 20.4024C36.8915 20.1976 36.8915 20.1977 34.4456 19.7882C32.1357 19.4471 31.5242 19.3106 30.7769 18.9694C29.6219 18.4918 28.8746 17.4682 28.8746 16.1718C28.8746 13.8518 30.9128 12.4871 34.4456 12.4871C37.9785 12.4871 39.7449 13.7835 40.0846 16.5129H37.7067V16.6494Z" fill="#F68A33"/>
<path d="M54.0124 24.8379H51.7024V23.132C50.1398 24.6332 48.9848 25.1108 47.0825 25.1108C45.5878 25.1108 44.297 24.7014 43.4138 23.8826C42.5985 23.132 42.2588 22.245 42.2588 20.4708V12.8967H44.5687V20.3344C44.5687 21.4944 44.7726 21.972 45.384 22.5179C45.9275 22.9273 46.6069 23.2003 47.4902 23.2003C49.8001 23.2003 51.6345 21.6991 51.6345 19.8567V12.8967H53.9444V24.8379H54.0124Z" fill="#F68A33"/>
<path d="M56.6621 12.8966H58.9721V14.466C60.5347 13.1013 61.8935 12.5554 63.6599 12.5554C67.2607 12.5554 69.9104 15.2166 69.9104 18.8331C69.9104 22.4495 67.2607 25.1107 63.6599 25.1107C61.8255 25.1107 60.5347 24.5648 58.9721 23.2001V29.0001H56.6621V12.8966ZM58.7682 18.8331C58.7682 21.426 60.5347 23.2001 63.1164 23.2001C65.766 23.2001 67.5325 21.4942 67.5325 18.9013C67.5325 16.3766 65.766 14.6025 63.1843 14.6025C60.5347 14.6025 58.7682 16.3084 58.7682 18.8331Z" fill="#F68A33"/>
<path d="M73.5789 19.5835C73.8507 21.9035 75.5492 23.3365 78.1309 23.3365C79.9653 23.3365 81.2561 22.5859 81.8676 21.1529H84.3813C83.2264 23.8824 81.0523 25.1788 77.9271 25.1788C73.9866 25.1788 71.3369 22.6541 71.3369 18.9694C71.3369 15.2165 74.0545 12.6235 77.995 12.6235C80.8485 12.6235 83.0905 13.92 84.0416 16.1718C84.4493 17.1953 84.6531 18.0824 84.6531 19.5835H73.5789ZM82.2073 17.7412C81.6638 15.6259 80.1011 14.4659 77.9271 14.4659C75.753 14.4659 74.1904 15.6259 73.6469 17.7412H82.2073Z" fill="#F68A33"/>
<path d="M88.933 12.8965V14.6706C90.3597 13.0329 91.175 12.6235 92.8735 12.6235C93.3491 12.6235 93.6208 12.6235 94.3002 12.76V15.08C93.6208 14.9435 93.2811 14.8753 92.7376 14.8753C91.5147 14.8753 90.4956 15.2847 89.7483 16.0353C89.0689 16.7177 88.933 17.2635 88.933 18.2871V24.8377H86.623V12.8965H88.933Z" fill="#F68A33"/>
<path d="M95.6592 8.66602H97.9691V11.1225H95.6592V8.66602ZM95.6592 12.8966H97.9691V24.8378H95.6592V12.8966Z" fill="#F68A33"/>
<path d="M113.799 18.9695C113.799 22.5178 110.878 25.1107 106.869 25.1107C102.793 25.1107 99.9395 22.5178 99.9395 18.8331C99.9395 15.1484 102.793 12.5554 106.937 12.5554C111.014 12.6237 113.799 15.2166 113.799 18.9695ZM102.385 18.8331C102.385 21.4942 104.22 23.2684 106.869 23.2684C109.519 23.2684 111.353 21.4942 111.353 18.9695C111.353 16.2401 109.587 14.466 106.869 14.466C104.22 14.466 102.385 16.1719 102.385 18.8331Z" fill="#F68A33"/>
<path d="M118.148 12.8965V14.6706C119.575 13.0329 120.39 12.6235 122.088 12.6235C122.564 12.6235 122.836 12.6235 123.515 12.76V15.08C122.836 14.9435 122.496 14.8753 121.952 14.8753C120.73 14.8753 119.71 15.2847 118.963 16.0353C118.284 16.7177 118.148 17.2635 118.148 18.2871V24.8377H115.838V12.8965H118.148Z" fill="#F68A33"/>
<path d="M137.306 12.8966V22.8589C137.306 25.2472 137.035 26.339 136.083 27.2942C134.928 28.4542 133.23 29.0001 130.784 29.0001C126.912 29.0001 124.941 27.8401 124.669 25.3154H127.251C127.455 26.6119 128.542 27.1578 130.784 27.1578C133.773 27.1578 135.064 26.066 135.064 23.4731V22.7907C133.434 24.2237 132.143 24.7695 130.308 24.7695C126.572 24.7695 124.126 22.3131 124.126 18.6966C124.126 15.0119 126.708 12.5554 130.512 12.5554C132.347 12.5554 133.705 13.1013 135.132 14.3978V12.8966H137.306ZM126.436 18.6966C126.436 21.1531 128.202 22.7907 130.852 22.7907C133.434 22.7907 135.2 21.1531 135.2 18.7648C135.2 16.2401 133.502 14.5342 130.852 14.5342C128.202 14.6025 126.436 16.1719 126.436 18.6966Z" fill="#6D6C6F"/>
<path d="M142.538 24.8378H140.228V8.66602H142.538V24.8378Z" fill="#6D6C6F"/>
<path d="M158.368 18.9695C158.368 22.5178 155.446 25.1107 151.438 25.1107C147.361 25.1107 144.508 22.5178 144.508 18.8331C144.508 15.1484 147.361 12.5554 151.506 12.5554C155.582 12.6237 158.368 15.2166 158.368 18.9695ZM146.954 18.8331C146.954 21.4942 148.788 23.2684 151.438 23.2684C154.087 23.2684 155.922 21.4942 155.922 18.9695C155.922 16.2401 154.155 14.466 151.438 14.466C148.72 14.466 146.954 16.1719 146.954 18.8331Z" fill="#6D6C6F"/>
<path d="M166.113 24.8379H163.735L158.3 12.8967H161.085L164.958 22.1767L168.966 12.8967H171.616L166.113 24.8379Z" fill="#6D6C6F"/>
<path d="M173.994 19.5835C174.266 21.9035 175.964 23.3365 178.546 23.3365C180.38 23.3365 181.671 22.5859 182.283 21.1529H184.796C183.641 23.8824 181.467 25.1788 178.342 25.1788C174.402 25.1788 171.752 22.6541 171.752 18.9694C171.752 15.2165 174.47 12.6235 178.41 12.6235C181.264 12.6235 183.506 13.92 184.457 16.1718C184.864 17.1953 185.068 18.0824 185.068 19.5835H173.994ZM182.622 17.7412C182.079 15.6259 180.516 14.4659 178.342 14.4659C176.168 14.4659 174.605 15.6259 174.062 17.7412H182.622Z" fill="#6D6C6F"/>
<path d="M13.3843 0L10.5987 6.89177L7.88115 5.45882L8.56055 12.2824L5.29944 9.82588L4.62004 12.0776L0.203957 11.3271L1.49481 15.6941C1.49481 15.6941 1.08717 15.8988 -0.135742 16.7859C3.73682 19.9247 6.99793 22.5176 6.99793 22.5176L5.50326 25.52L12.2293 24.36L13.3163 25.9976L13.3843 0ZM12.0255 22.9953L7.94909 23.7459L8.69643 22.1765C8.69643 22.1765 5.29944 19.4471 2.24215 16.8541L3.19331 16.3082L2.24215 12.9647L5.63914 13.5788L6.11472 12.0776L10.327 15.2165L9.51171 7.84706L11.1423 8.73412L12.0255 7.02824V22.9953Z" fill="#F68A33"/>
<path d="M14.7432 13.0329H15.7623V4.0941C15.4226 3.88939 15.0829 3.68469 14.7432 3.47998V13.0329Z" fill="#6D6C6F"/>
<path d="M16.7139 13.5787H17.733V5.25401C17.3933 5.0493 17.0536 4.8446 16.7139 4.63989V13.5787Z" fill="#6D6C6F"/>
<path d="M23.7114 12.3505C23.5076 12.3505 23.3717 12.2823 23.1679 12.2823C22.2846 12.2823 21.8091 12.6917 20.2464 13.5788V9.00699C20.2464 9.00699 20.4503 6.82346 18.8877 5.86816V13.5788V15.967C18.8877 15.967 21.4694 14.4658 21.7411 14.3293C22.6923 13.7835 22.8961 13.647 23.1679 13.647C23.2358 13.647 23.3717 13.647 23.5076 13.647C24.0511 13.7152 24.3228 13.9199 24.5267 14.1929C23.3717 15.0117 22.964 15.8988 22.4885 16.9223C22.2167 17.5364 21.877 18.2188 21.3335 19.1058C20.8579 19.447 18.0724 21.6988 18.0724 21.6988H16.0342L19.9747 24.9058L19.2273 22.4493C19.2273 22.4493 22.2167 20.0611 22.2846 20.0611C24.2549 17.1952 23.6434 16.1035 26.1572 14.807C26.2251 14.8752 26.0213 12.6235 23.7114 12.3505Z" fill="#6D6C6F"/>
</g>
<defs>
<clipPath id="clip0">
<rect width="185" height="29" fill="white"/>
</clipPath>
</defs>
</svg>
