<?xml version="1.0" encoding="UTF-8"?>
<svg width="95px" height="64px" viewBox="0 0 95 64" version="1.1" xmlns="http://www.w3.org/2000/svg" xmlns:xlink="http://www.w3.org/1999/xlink">
    <!-- Generator: Sketch 46.2 (44496) - http://www.bohemiancoding.com/sketch -->
    <title>Logo</title>
    <desc>Created with Sketch.</desc>
    <defs>
        <polygon id="path-1" points="0.0184466019 0.278331697 0.0184466019 7.89227058 7.33990291 7.89227058 7.33990291 0.278331697 0.0184466019 0.278331697"></polygon>
    </defs>
    <g id="Homepage" stroke="none" stroke-width="1" fill="none" fill-rule="evenodd">
        <g transform="translate(-111.000000, -33.000000)" id="Group-63">
            <g>
                <g id="Header">
                    <g id="Logo">
                        <g transform="translate(111.000000, 33.000000)">
                            <g id="Group-3" transform="translate(0.000000, 53.680472)">
                                <mask id="mask-2" fill="white">
                                    <use xlink:href="#path-1"></use>
                                </mask>
                                <g id="Clip-2"></g>
                                <path d="M5.65419094,2.72839533 C5.53736246,1.81893022 4.91294498,1.40779366 3.61860841,1.40779366 C2.48506472,1.40779366 1.72967638,1.7894525 1.72967638,2.3762142 C1.72967638,2.65485619 1.94734628,2.91891446 2.26708738,3.03651504 C2.55762136,3.15380532 2.81956311,3.19755645 4.01182848,3.38869617 C5.95886731,3.69650558 6.2211165,3.75515072 6.64262136,4.06327043 C7.09302589,4.40086785 7.33990291,4.9140904 7.33990291,5.55949723 C7.33990291,7.07061804 6.07569579,7.89227058 3.74957929,7.89227058 C1.42407767,7.89227058 0.275776699,7.11467947 0,5.35408409 L1.46773463,5.35408409 C1.56980583,6.27844321 2.36885113,6.76280863 3.76433657,6.76280863 C5.13092233,6.76280863 5.88631068,6.38114978 5.88631068,5.70626523 C5.88631068,5.41303953 5.72674757,5.16356496 5.45066343,5.04627468 C5.17427184,4.9289844 5.17427184,4.9289844 3.67702265,4.69409355 C2.2962945,4.4740967 1.93289644,4.38597384 1.45328479,4.19514442 C0.755695793,3.91650243 0.3197411,3.2707853 0.3197411,2.50808819 C0.3197411,1.11456796 1.56980583,0.278331697 3.69177994,0.278331697 C5.81375405,0.278331697 6.90425566,1.05561252 7.07857605,2.72839533 L5.65419094,2.72839533" id="Fill-1" fill="#FF8535" mask="url(#mask-2)"></path>
                            </g>
                            <path d="M15.4954531,61.3819134 L14.0855178,61.3819134 L14.0855178,60.355158 C13.1551942,61.2646231 12.4576052,61.5727428 11.2948544,61.5727428 C10.3937379,61.5727428 9.60883495,61.3083742 9.0711165,60.8246294 C8.57644013,60.3843254 8.38797735,59.8270414 8.38797735,58.7562246 L8.38797735,54.1496333 L9.79760518,54.1496333 L9.79760518,58.6532078 C9.79760518,59.3721537 9.91381877,59.6656897 10.2919741,59.9738094 C10.6117152,60.2375574 11.0476699,60.3694314 11.5709385,60.3694314 C12.9519741,60.3694314 14.0855178,59.4599663 14.0855178,58.3596718 L14.0855178,54.1496333 L15.4954531,54.1496333 L15.4954531,61.3819134" id="Fill-4" fill="#FF8535"></path>
                            <path d="M18.3454531,57.7291589 C18.3454531,59.3135086 19.3919903,60.3697417 20.976246,60.3697417 C22.5611165,60.3697417 23.6365534,59.3280923 23.6365534,57.7583264 C23.6365534,56.2180381 22.5611165,55.161805 20.9913107,55.161805 C19.4356472,55.161805 18.3454531,56.2180381 18.3454531,57.7291589 M17.0667961,54.1496333 L18.4761165,54.1496333 L18.4761165,55.1177436 C19.4356472,54.2815073 20.2205502,53.9588039 21.3110518,53.9588039 C23.4911327,53.9588039 25.0901456,55.5726313 25.0901456,57.7732204 C25.0901456,59.9589154 23.4911327,61.5727428 21.3110518,61.5727428 C20.2205502,61.5727428 19.4215049,61.2497291 18.4761165,60.4138031 L18.4761165,63.9197896 L17.0667961,63.9197896 L17.0667961,54.1496333" id="Fill-5" fill="#FF8535"></path>
                            <path d="M32.5041424,57.0691684 C32.1844013,55.7926281 31.2399353,55.0736822 29.9314563,55.0736822 C28.608835,55.0736822 27.6785113,55.7926281 27.3440129,57.0691684 L32.5041424,57.0691684 L32.5041424,57.0691684 Z M27.300356,58.1837363 C27.4457767,59.5775669 28.4926214,60.4432809 30.0476699,60.4432809 C31.1667638,60.4432809 31.922767,60.0029769 32.2858576,59.1226792 L33.8126214,59.1226792 C33.1005825,60.765674 31.8213107,61.5727428 29.916699,61.5727428 C27.5330906,61.5727428 25.9340777,60.061622 25.9340777,57.8023878 C25.9340777,55.5285699 27.5767476,53.9588039 29.9459061,53.9588039 C31.6611327,53.9588039 33.0421683,54.7658728 33.5943366,56.1156419 C33.841521,56.731571 33.9432848,57.2891652 33.9432848,58.1837363 L27.300356,58.1837363 L27.300356,58.1837363 Z" id="Fill-6" fill="#FF8535"></path>
                            <path d="M36.575,54.1496333 L36.575,55.2204502 C37.432767,54.2231725 37.9415858,53.9588039 38.944466,53.9588039 C39.2208576,53.9588039 39.4096278,53.9733876 39.8166828,54.0320328 L39.8166828,55.4550307 C39.4096278,55.3526344 39.1916505,55.3231567 38.8719094,55.3231567 C38.1448058,55.3231567 37.5345307,55.5726313 37.0838188,56.0417924 C36.691521,56.452929 36.575,56.7753221 36.575,57.4210392 L36.575,61.3819134 L35.1656796,61.3819134 L35.1656796,54.1496333 L36.575,54.1496333" id="Fill-7" fill="#FF8535"></path>
                            <path d="M40.6311003,61.3819134 L42.0407282,61.3819134 L42.0407282,54.1496333 L40.6311003,54.1496333 L40.6311003,61.3819134 Z M40.6311003,53.107984 L42.0407282,53.107984 L42.0407282,51.5968631 L40.6311003,51.5968631 L40.6311003,53.107984 Z" id="Fill-8" fill="#FF8535"></path>
                            <path d="M44.7016505,57.7583264 C44.7016505,59.3721537 45.7915372,60.4432809 47.4194498,60.4432809 C49.0181553,60.4432809 50.1375566,59.35757 50.1375566,57.8169715 C50.1375566,56.1739767 49.0618123,55.0882659 47.4483495,55.0882659 C45.7915372,55.0882659 44.7016505,56.1448093 44.7016505,57.7583264 M51.5911489,57.8318655 C51.5911489,60.0029769 49.8322654,61.5727428 47.4194498,61.5727428 C44.9629773,61.5727428 43.2477508,60.0029769 43.2477508,57.7583264 C43.2477508,55.5139862 44.9629773,53.9588039 47.4634142,53.9588039 C49.9054369,53.9588039 51.5911489,55.5431536 51.5911489,57.8318655" id="Fill-9" fill="#FF8535"></path>
                            <path d="M54.2228641,54.1496333 L54.2228641,55.2204502 C55.0806311,54.2231725 55.5894498,53.9588039 56.5920227,53.9588039 C56.8684142,53.9588039 57.0574919,53.9733876 57.4645469,54.0320328 L57.4645469,55.4550307 C57.0574919,55.3526344 56.8395146,55.3231567 56.519466,55.3231567 C55.7926699,55.3231567 55.1820874,55.5726313 54.7316828,56.0417924 C54.3393851,56.452929 54.2228641,56.7753221 54.2228641,57.4210392 L54.2228641,61.3819134 L52.8132362,61.3819134 L52.8132362,54.1496333 L54.2228641,54.1496333" id="Fill-10" fill="#FF8535"></path>
                            <path d="M59.2240453,57.6705138 C59.2240453,59.1667406 60.2850324,60.1643286 61.8695955,60.1643286 C63.4249515,60.1643286 64.5003883,59.1667406 64.5003883,57.7142649 C64.5003883,56.1739767 63.468301,55.161805 61.8840453,55.161805 C60.2705825,55.161805 59.2240453,56.144499 59.2240453,57.6705138 M65.7796602,54.1496333 L65.7796602,60.20839 C65.7796602,61.6605554 65.6050324,62.3059622 65.023657,62.8927239 C64.3408252,63.5825025 63.2936731,63.9200999 61.8406958,63.9200999 C59.5004369,63.9200999 58.308479,63.2011539 58.1630583,61.6900331 L59.7328641,61.6900331 C59.8635275,62.4676242 60.5033172,62.8049113 61.8548382,62.8049113 C63.6570712,62.8049113 64.4422816,62.1300268 64.4422816,60.5751548 L64.4422816,60.1792226 C63.468301,61.0446263 62.6978479,61.3670194 61.5643042,61.3670194 C59.3255016,61.3670194 57.81411,59.8856866 57.81411,57.6854078 C57.81411,55.4699247 59.369466,53.9588039 61.6657605,53.9588039 C62.7851618,53.9588039 63.6137217,54.2960911 64.4422816,55.0587882 L64.4422816,54.1496333 L65.7796602,54.1496333" id="Fill-11" fill="#4E4F4F"></path>
                            <polygon id="Fill-12" fill="#4E4F4F" points="67.5105663 61.3819134 68.9198867 61.3819134 68.9198867 51.5968631 67.5105663 51.5968631"></polygon>
                            <path d="M71.5805016,57.7583264 C71.5805016,59.3721537 72.6700809,60.4432809 74.298301,60.4432809 C75.8970065,60.4432809 77.0164078,59.35757 77.0164078,57.8169715 C77.0164078,56.1739767 75.9406634,55.0882659 74.3272006,55.0882659 C72.6700809,55.0882659 71.5805016,56.1448093 71.5805016,57.7583264 M78.47,57.8318655 C78.47,60.0029769 76.7111165,61.5727428 74.298301,61.5727428 C71.8418285,61.5727428 70.1262945,60.0029769 70.1262945,57.7583264 C70.1262945,55.5139862 71.8418285,53.9588039 74.3422654,53.9588039 C76.7839806,53.9588039 78.47,55.5431536 78.47,57.8318655" id="Fill-13" fill="#4E4F4F"></path>
                            <polyline id="Fill-14" fill="#4E4F4F" points="83.1665049 61.3819134 81.7418123 61.3819134 78.4715372 54.1496333 80.1431068 54.1496333 82.4978155 59.7683963 84.9253883 54.1496333 86.509644 54.1496333 83.1665049 61.3819134"></polyline>
                            <path d="M93.124288,57.0691684 C92.8045469,55.7926281 91.8600809,55.0736822 90.5516019,55.0736822 C89.2289806,55.0736822 88.298657,55.7926281 87.9641586,57.0691684 L93.124288,57.0691684 L93.124288,57.0691684 Z M87.9205016,58.1837363 C88.0656149,59.5775669 89.112767,60.4432809 90.6678155,60.4432809 C91.7869094,60.4432809 92.5429126,60.0029769 92.9060032,59.1226792 L94.432767,59.1226792 C93.7207282,60.765674 92.4414563,61.5727428 90.5368447,61.5727428 C88.1532362,61.5727428 86.5542233,60.061622 86.5542233,57.8023878 C86.5542233,55.5285699 88.1968932,53.9588039 90.5660518,53.9588039 C92.2812783,53.9588039 93.6623139,54.7658728 94.2144822,56.1156419 C94.4616667,56.731571 94.5634304,57.2891652 94.5634304,58.1837363 L87.9205016,58.1837363 L87.9205016,58.1837363 Z" id="Fill-15" fill="#4E4F4F"></path>
                            <path d="M45.1243851,41.7423076 L37.7863269,43.0408785 L39.1756634,40.1865047 C39.1756634,40.1865047 33.0652265,35.2820334 27.4872816,30.5485328 C27.5401618,30.5150213 29.2467799,29.509676 29.2467799,29.509676 L27.4636084,23.6284062 L33.6232362,24.7181509 L34.4355016,21.9478661 L42.0167476,27.6528902 L40.6332524,14.2867629 L43.5505825,15.8729743 L45.1243851,12.8336667 L45.1243851,41.7423076 L45.1243851,41.7423076 Z M47.5768608,0.115118238 L42.589822,12.5388895 L37.7116181,9.88682593 L38.9958091,22.2919797 L33.0818285,17.8411549 L31.8920227,21.8985298 L23.948301,20.4935287 L26.3328317,28.3594245 C26.3328317,28.3594245 25.6589159,28.7562877 23.4490129,30.3421888 C30.2056958,36.1536429 36.1033819,40.8840406 36.1033819,40.8840406 L33.4572168,46.3200417 L45.6356634,44.1647552 L47.5731715,47.1171812 L47.5768608,0.115118238 L47.5768608,0.115118238 Z" id="Fill-16" fill="#FF8535"></path>
                            <path d="M49.9690777,23.6938778 L51.8085113,23.6938778 L51.8085113,7.51061174 C51.1902427,7.13857193 50.5710518,6.76498067 49.9690777,6.40131874 L49.9690777,23.6938778" id="Fill-17" fill="#4E4F4F"></path>
                            <path d="M53.5627832,24.7460771 L55.4022168,24.7460771 L55.4022168,9.64976304 C54.8297573,9.31464795 54.2084142,8.94695223 53.5627832,8.56188017 L53.5627832,24.7460771" id="Fill-18" fill="#4E4F4F"></path>
                            <path d="M66.1412136,22.5020472 C65.7898058,22.4573652 65.4795955,22.4340933 65.194288,22.4340933 C63.6164887,22.4340933 62.7986893,23.1409379 59.9428479,24.8053428 L59.9428479,16.5686484 C59.9428479,16.5686484 60.2585922,12.6667297 57.4968285,10.85897 L57.4903722,24.8053428 L57.4903722,29.0929542 C57.4903722,29.0929542 62.1825728,26.3502854 62.5957767,26.1023623 C64.2836408,25.0895701 64.6288997,24.9096009 65.194288,24.9096009 C65.3692233,24.9096009 65.5785922,24.9254257 65.8337702,24.9576961 C66.771165,25.0774687 67.3445469,25.4917082 67.6953398,25.958387 C65.5767476,27.4831606 64.8536408,29.0914027 64.0419903,30.8969904 C63.5417799,32.0096966 62.9788511,33.2620341 61.9027994,34.8578646 C61.0727023,35.4691393 56.0435437,39.5504067 56.0435437,39.5504067 L52.3892718,39.5504067 L59.5419417,45.3807886 L58.2220874,40.9647164 C58.2220874,40.9647164 63.5666828,36.6203217 63.6899676,36.6010836 C67.2876699,31.4437245 66.0864887,29.3945578 70.6637055,27.0437875 C70.6563269,27.0366508 70.3328964,23.0366799 66.1412136,22.5020472" id="Fill-19" fill="#4E4F4F"></path>
                            <path d="M93.6721521,52.6462698 C93.8390939,52.6462698 93.9882039,52.6344787 93.9882039,52.4327891 C93.9882039,52.2705065 93.8421683,52.2404082 93.7050485,52.2404082 L93.4369579,52.2404082 L93.4369579,52.6462698 L93.6721521,52.6462698 L93.6721521,52.6462698 Z M93.4369579,53.383523 L93.2398867,53.383523 L93.2398867,52.0716095 L93.7348706,52.0716095 C94.041699,52.0716095 94.1938835,52.1861072 94.1938835,52.4445802 C94.1938835,52.679471 94.0478479,52.7818673 93.8569256,52.8060701 L94.2264725,53.383523 L94.0060356,53.383523 L93.6632362,52.8147583 L93.4369579,52.8147583 L93.4369579,53.383523 L93.4369579,53.383523 Z M93.6752265,53.6755076 C94.1849676,53.6755076 94.587411,53.2721283 94.587411,52.7247736 C94.587411,52.1861072 94.1849676,51.7799353 93.6752265,51.7799353 C93.1593366,51.7799353 92.7568932,52.1861072 92.7568932,52.7247736 C92.7568932,53.2721283 93.1593366,53.6755076 93.6752265,53.6755076 L93.6752265,53.6755076 Z M92.5303074,52.7247736 C92.5303074,52.0716095 93.0554207,51.590347 93.6752265,51.590347 C94.2891909,51.590347 94.8136893,52.0716095 94.8136893,52.7247736 C94.8136893,53.383523 94.2891909,53.8647855 93.6752265,53.8647855 C93.0554207,53.8647855 92.5303074,53.383523 92.5303074,52.7247736 L92.5303074,52.7247736 Z" id="Fill-20" fill="#4E4F4F"></path>
                        </g>
                    </g>
                </g>
            </g>
        </g>
    </g>
</svg>