<svg width="199" height="133" viewBox="0 0 199 133" fill="none" xmlns="http://www.w3.org/2000/svg">
<g clip-path="url(#clip0)">
<path d="M11.8409 117.316C11.5801 115.434 10.276 114.545 7.56356 114.545C5.16409 114.545 3.59921 115.329 3.59921 116.584C3.59921 117.159 4.06868 117.734 4.74679 117.943C5.37274 118.205 5.89436 118.257 8.39817 118.675C12.4668 119.303 13.0406 119.459 13.9274 120.087C14.8663 120.766 15.3879 121.864 15.3879 123.224C15.3879 126.36 12.7277 128.086 7.87654 128.086C2.97326 128.086 0.573788 126.465 0 122.805H3.07759C3.28624 124.74 4.95544 125.733 7.87654 125.733C10.7455 125.733 12.3104 124.949 12.3104 123.537C12.3104 122.91 11.9974 122.387 11.3714 122.178C10.7976 121.917 10.7976 121.917 7.66789 121.446C4.74679 120.976 4.01651 120.819 3.02543 120.401C1.56488 119.825 0.62595 118.466 0.62595 116.898C0.62595 113.97 3.23408 112.245 7.72005 112.245C12.206 112.245 14.449 113.866 14.8142 117.368H11.8409V117.316Z" fill="white"/>
<path d="M32.4952 127.667H29.522V125.524C27.5919 127.406 26.0792 128.086 23.6798 128.086C21.8019 128.086 20.1327 127.511 19.0373 126.517C17.994 125.576 17.6289 124.426 17.6289 122.23V112.611H20.6022V122.021C20.6022 123.537 20.863 124.112 21.6454 124.792C22.3235 125.367 23.2103 125.629 24.3057 125.629C27.2268 125.629 29.5741 123.746 29.5741 121.446V112.663H32.5474V127.667H32.4952Z" fill="white"/>
<path d="M35.8379 112.611H38.8112V114.65C40.8455 112.925 42.4625 112.245 44.7577 112.245C49.348 112.245 52.6864 115.591 52.6864 120.191C52.6864 124.74 49.348 128.086 44.7577 128.086C42.4625 128.086 40.7933 127.406 38.8112 125.681V133H35.8379V112.611ZM38.4982 120.087C38.4982 123.38 40.689 125.576 44.0274 125.576C47.3658 125.576 49.6088 123.38 49.6088 120.139C49.6088 116.95 47.3658 114.702 44.0796 114.702C40.7933 114.702 38.4982 116.95 38.4982 120.087Z" fill="white"/>
<path d="M57.2732 121.028C57.5862 123.956 59.777 125.733 63.0633 125.733C65.4106 125.733 66.9755 124.792 67.7579 122.962H70.9398C69.4271 126.413 66.7668 128.086 62.7503 128.086C57.7427 128.086 54.4043 124.949 54.4043 120.244C54.4043 115.486 57.847 112.245 62.8025 112.245C66.4017 112.245 69.3228 113.918 70.4703 116.741C70.992 118.048 71.2006 119.198 71.2006 121.028H57.2732V121.028ZM68.2274 118.675C67.5492 116.009 65.5671 114.493 62.8025 114.493C60.0378 114.493 58.0557 116.009 57.3776 118.675H68.2274Z" fill="white"/>
<path d="M76.7838 112.611V114.859C78.6095 112.768 79.6528 112.245 81.7393 112.245C82.313 112.245 82.7303 112.297 83.5649 112.402V115.382C82.7303 115.173 82.2609 115.12 81.5828 115.12C80.07 115.12 78.766 115.643 77.8271 116.636C76.9925 117.473 76.7838 118.153 76.7838 119.512V127.772H73.8105V112.715H76.7838V112.611Z" fill="white"/>
<path d="M85.2852 107.278H88.2584V110.415H85.2852V107.278ZM85.2852 112.611H88.2584V127.667H85.2852V112.611Z" fill="white"/>
<path d="M108.29 120.296C108.29 124.844 104.587 128.086 99.527 128.086C94.3629 128.086 90.7637 124.792 90.7637 120.139C90.7637 115.486 94.3629 112.245 99.6313 112.245C104.743 112.245 108.29 115.539 108.29 120.296ZM93.8413 120.139C93.8413 123.485 96.1364 125.733 99.527 125.733C102.865 125.733 105.213 123.485 105.213 120.244C105.213 116.793 102.97 114.545 99.5791 114.545C96.0842 114.597 93.8413 116.793 93.8413 120.139Z" fill="white"/>
<path d="M113.819 112.611V114.859C115.645 112.768 116.688 112.245 118.774 112.245C119.348 112.245 119.765 112.297 120.6 112.402V115.382C119.765 115.173 119.296 115.12 118.618 115.12C117.105 115.12 115.801 115.643 114.862 116.636C114.028 117.473 113.819 118.153 113.819 119.512V127.772H110.846V112.715H113.819V112.611Z" fill="white"/>
<path d="M138.074 112.611V125.263C138.074 128.295 137.709 129.654 136.509 130.857C135.101 132.268 132.858 133 129.833 133C124.929 133 122.425 131.484 122.113 128.347H125.399C125.66 129.968 127.016 130.647 129.833 130.647C133.64 130.647 135.257 129.236 135.257 125.995V125.158C133.223 126.988 131.606 127.615 129.207 127.615C124.512 127.615 121.33 124.531 121.33 119.93C121.33 115.329 124.616 112.14 129.415 112.14C131.763 112.14 133.484 112.82 135.257 114.441V112.559H138.074V112.611ZM124.303 119.93C124.303 123.067 126.546 125.106 129.833 125.106C133.119 125.106 135.362 123.015 135.362 119.982C135.362 116.793 133.171 114.65 129.885 114.65C126.494 114.702 124.303 116.793 124.303 119.93Z" fill="white"/>
<path d="M144.647 127.667H141.674V107.278H144.647V127.667Z" fill="white"/>
<path d="M164.679 120.296C164.679 124.844 160.975 128.086 155.916 128.086C150.752 128.086 147.152 124.792 147.152 120.139C147.152 115.486 150.752 112.245 156.02 112.245C161.132 112.245 164.679 115.539 164.679 120.296ZM150.23 120.139C150.23 123.485 152.525 125.733 155.916 125.733C159.254 125.733 161.601 123.485 161.601 120.244C161.601 116.793 159.358 114.545 155.968 114.545C152.525 114.597 150.23 116.793 150.23 120.139Z" fill="white"/>
<path d="M174.538 127.667H171.565L164.68 112.611H168.175L173.13 124.322L178.242 112.611H181.58L174.538 127.667Z" fill="white"/>
<path d="M184.5 121.028C184.813 123.956 187.004 125.733 190.29 125.733C192.637 125.733 194.202 124.792 194.984 122.962H198.166C196.654 126.413 193.993 128.086 189.977 128.086C184.969 128.086 181.631 124.949 181.631 120.244C181.631 115.486 185.074 112.245 190.029 112.245C193.628 112.245 196.549 113.918 197.697 116.741C198.219 118.048 198.427 119.198 198.427 121.028H184.5V121.028ZM195.454 118.675C194.776 116.009 192.794 114.493 190.029 114.493C187.264 114.493 185.282 116.009 184.604 118.675H195.454Z" fill="white"/>
<path d="M99.8373 0L89.3526 25.8785L79.1288 20.3892L81.8412 46.2677L69.4266 37.0142L66.9228 45.4835L50.2308 42.5558L55.2383 58.9717C55.2383 58.9717 53.83 59.8082 49.1875 63.1018C63.3757 75.2307 75.7382 85.0594 75.7382 85.0594L70.209 96.4041L95.7686 91.908L99.8373 98.0771V0ZM94.7254 86.7323L79.3374 89.4509L82.2585 83.491C82.2585 83.491 69.4265 73.2441 57.7421 63.4155C57.8465 63.3632 61.4457 61.272 61.4457 61.272L57.69 49.0385L70.6263 51.2866L72.3476 45.5358L88.2572 57.4033L85.3361 29.5381L91.4391 32.8318L94.7254 26.5059V86.7323Z" fill="white"/>
<path d="M104.846 49.1429H108.706V15.4224C107.402 14.6382 106.098 13.854 104.846 13.1221V49.1429Z" fill="white"/>
<path d="M112.408 51.3387H116.268V19.8662C115.069 19.1866 113.764 18.4024 112.408 17.6182V51.3387Z" fill="white"/>
<path d="M138.802 46.6336C138.071 46.529 137.393 46.4768 136.819 46.4768C133.533 46.4768 131.812 47.9406 125.813 51.4433V34.2955C125.813 34.2955 126.491 26.1399 120.701 22.3757V51.4433V60.3832C120.701 60.3832 130.56 54.6847 131.394 54.1619C134.941 52.0707 135.672 51.6525 136.872 51.6525C137.237 51.6525 137.654 51.7047 138.228 51.757C140.21 52.0184 141.41 52.8549 142.14 53.8482C137.706 57.0373 136.193 60.3832 134.472 64.1474C133.429 66.4477 132.229 69.0617 129.986 72.4076C128.265 73.6623 117.676 82.1839 117.676 82.1839H110.008L125.031 94.3128L122.266 85.1116C122.266 85.1116 133.481 76.0672 133.742 76.0149C141.305 65.2452 138.749 61.0106 148.399 56.0963C148.295 56.0963 147.617 47.7838 138.802 46.6336Z" fill="white"/>
<path d="M194.199 109.631C194.199 108.272 195.295 107.278 196.599 107.278C197.903 107.278 198.998 108.272 198.998 109.631C198.998 110.99 197.903 111.984 196.599 111.984C195.295 112.036 194.199 111.042 194.199 109.631ZM196.599 111.618C197.694 111.618 198.529 110.781 198.529 109.631C198.529 108.533 197.694 107.644 196.599 107.644C195.503 107.644 194.669 108.481 194.669 109.631C194.669 110.781 195.503 111.618 196.599 111.618ZM196.077 111.042H195.66V108.324H196.703C197.329 108.324 197.642 108.585 197.642 109.108C197.642 109.579 197.329 109.788 196.912 109.84L197.694 111.042H197.225L196.494 109.84H196.025V111.042H196.077ZM196.599 109.474C196.964 109.474 197.277 109.474 197.277 109.004C197.277 108.69 196.964 108.585 196.703 108.585H196.129V109.422H196.599V109.474Z" fill="white"/>
</g>
<defs>
<clipPath id="clip0">
<rect width="199" height="133" fill="white"/>
</clipPath>
</defs>
</svg>
