<svg id="Layer_1" data-name="Layer 1" xmlns="http://www.w3.org/2000/svg" viewBox="0 0 48.91 52.81"><defs><style>.cls-1{font-size:6.9px;}.cls-1,.cls-3{font-family:FuturaPT-Bold, Futura PT;}.cls-1,.cls-2,.cls-3{font-weight:700;}.cls-2{font-size:19px;font-family:FuturaPTCond-Bold, Futura PT Cond;}.cls-3{font-size:6.33px;}</style></defs><text class="cls-1" transform="translate(18.03 47.01)">CUT</text><path d="M24,39.87A22.39,22.39,0,0,1,11.94,28.3,21.58,21.58,0,0,1,10,21V6.26H38.88V21a18.18,18.18,0,0,1-2.67,8.93,24.88,24.88,0,0,1-11.45,10l-.37.17ZM11.89,20.92V21a3.15,3.15,0,0,0,0,.37,13.32,13.32,0,0,0,.21,1.43,21.13,21.13,0,0,0,1.5,4.72A20.38,20.38,0,0,0,24.35,38a23,23,0,0,0,10.26-9A16.48,16.48,0,0,0,37,21V8.12H11.89Z"/><text class="cls-2" transform="translate(20.47 30.2)">8</text><text class="cls-3" transform="translate(16.77 15.2)">ANSI</text></svg>