<svg xmlns="http://www.w3.org/2000/svg" viewBox="0 0 800 697.69" fill="#939396"><path d="m797.56,670.39L415.77,9.1c-3.25-5.63-9.26-9.1-15.77-9.1s-12.52,3.47-15.77,9.1L2.44,670.39c-3.25,5.63-3.25,12.57,0,18.21s9.26,9.1,15.77,9.1h763.59c6.51,0,12.52-3.47,15.77-9.1s3.25-12.57,0-18.21Zm-747.82-9.1L400,54.62l350.26,606.67H49.74Z" stroke-width="0"/><path d="m368.64,272.71l13.15,231.83c.51,9.14,7.82,16.64,17.17,17.17,10.06.57,18.67-7.12,19.24-17.17l13.15-231.83c.06-1.16.07-2.37,0-3.56-.98-17.32-15.82-30.56-33.13-29.58s-30.56,15.81-29.58,33.13Z" stroke-width="0"/><path d="m400,561.52c-4.79,0-9.5,1.94-12.87,5.34-3.4,3.37-5.34,8.07-5.34,12.87s1.94,9.5,5.34,12.87c3.37,3.4,8.07,5.34,12.87,5.34s9.5-1.94,12.87-5.34c3.4-3.37,5.34-8.07,5.34-12.87s-1.94-9.5-5.34-12.87c-3.37-3.4-8.07-5.34-12.87-5.34Z" stroke-width="0"/></svg>