<?xml version="1.0" encoding="UTF-8"?><svg xmlns="http://www.w3.org/2000/svg" viewBox="0 0 453.01 423.71" fill="#000"><path d="m34.33,41.04h-17.58l-3.35,7.95H0L18.43.42h13.81l18.42,48.57h-13.4s-2.93-7.95-2.93-7.95Zm-3.35-9.22l-5.44-15.49-5.44,15.49h10.88Z" fill-rule="evenodd" stroke-width="0"/><polygon points="52.75 49.41 52.75 .84 65.31 .84 88.76 30.57 88.76 .84 101.32 .84 101.32 49.41 88.76 49.41 65.31 19.68 65.31 49.41 52.75 49.41" fill-rule="evenodd" stroke-width="0"/><path d="m110.95,34.76c2.51,2.51,6.7,5.02,10.89,5.02,2.51,0,4.18-.84,5.02-1.68.84-.83,1.26-1.67,1.26-2.93,0-.84-.42-2.09-1.26-2.93-1.25-1.25-2.93-1.68-6.28-2.51l-3.35-.84c-2.09-.84-5.03-1.67-7.12-3.76-2.51-2.52-2.93-6.29-2.93-8.38,0-5.86,2.51-9.63,4.61-11.73,2.51-2.51,6.7-4.6,12.56-4.6,4.6,0,10.46,1.68,15.07,3.77l-5.02,9.63c-3.77-2.94-6.7-3.35-8.38-3.35-1.26,0-2.93.41-4.19,1.25-.84.84-1.25,1.68-1.25,2.51s0,1.68.83,2.1c.42.42,1.26,1.25,4.19,2.09l3.77,1.26c2.93.84,6.28,2.09,8.79,4.6s2.93,5.45,2.93,8.8c0,4.6-1.25,8.79-4.6,12.14-4.19,4.19-9.21,5.02-14.24,5.02-2.93,0-5.86-.41-9.63-1.67-.84-.42-3.76-1.68-7.53-3.77l5.86-10.04h0Z" fill-rule="evenodd" stroke-width="0"/><polygon points="145.7 49.41 158.26 49.41 158.26 .84 145.7 .84 145.7 49.41" fill-rule="evenodd" stroke-width="0"/><polygon points="167.47 49.83 161.61 49.83 181.71 .01 187.57 .01 167.47 49.83" fill-rule="evenodd" stroke-width="0"/><polygon points="193.85 49.41 206.41 49.41 206.41 .84 193.85 .84 193.85 49.41" fill-rule="evenodd" stroke-width="0"/><path d="m217.71,34.76c2.51,2.51,6.7,5.02,11.31,5.02,2.51,0,4.18-.84,5.02-1.68.84-.83,1.26-1.67,1.26-2.93,0-.84-.42-2.09-1.26-2.93-1.25-1.25-2.93-1.68-6.28-2.51l-3.35-.84c-2.09-.84-5.02-1.67-7.11-3.76-2.52-2.52-2.94-6.29-2.94-8.38,0-5.86,2.52-9.63,4.61-11.73,2.51-2.51,6.7-4.6,12.56-4.6,4.6,0,10.46,1.68,15.07,3.77l-5.02,9.63c-3.77-2.94-6.7-3.35-8.38-3.35-1.25,0-2.93.41-4.19,1.25-.83.84-1.25,1.68-1.25,2.51s0,1.68.84,2.1c.41.42,1.25,1.25,4.18,2.09l3.77,1.26c2.93.84,6.28,2.09,8.79,4.6s2.93,5.45,2.93,8.8c0,4.6-1.25,8.79-4.6,12.14-4.19,4.19-9.21,5.02-14.24,5.02-2.93,0-5.86-.41-9.63-1.67-.83-.42-3.76-1.68-7.11-3.77l5.02-10.04h0Z" fill-rule="evenodd" stroke-width="0"/><polygon points="281.77 11.73 266.7 11.73 266.7 19.68 280.93 19.68 280.93 30.15 266.7 30.15 266.7 38.52 281.77 38.52 281.77 49.41 254.14 49.41 254.14 .84 281.77 .84 281.77 11.73" fill-rule="evenodd" stroke-width="0"/><path d="m317.36,41.04h-17.58l-3.35,7.95h-13.4L301.45.42h13.81l18.43,48.57h-13.4l-2.93-7.95h0Zm-3.35-9.22l-5.45-15.49-5.44,15.49h10.89Z" fill-rule="evenodd" stroke-width="0"/><polygon points="357.97 11.73 350.85 11.73 350.85 .84 370.53 .84 370.53 49.41 357.97 49.41 357.97 11.73" fill-rule="evenodd" stroke-width="0"/><path d="m408.63,44.8c-3.77,3.77-8.79,5.45-13.4,5.45s-9.63-1.68-13.4-5.45c-4.18-4.18-7.11-11.3-7.11-19.67s2.93-15.5,7.11-19.68c3.77-3.77,8.8-5.45,13.4-5.45s9.63,1.68,13.4,5.45c4.19,4.18,7.12,11.3,7.12,19.68s-2.93,15.49-7.12,19.67h0Zm-17.16-32.23c-2.52,2.09-4.19,7.95-4.19,12.56,0,3.76,1.25,10.04,4.19,12.55.83.84,2.51,1.68,3.76,1.68s2.93-.84,3.77-1.68c2.51-2.51,4.19-8.37,4.19-12.55s-1.68-10.47-4.19-12.56c-.84-.84-2.51-1.68-3.77-1.68-1.25.42-2.93.84-3.76,1.68Z" fill-rule="evenodd" stroke-width="0"/><path d="m449.24,11.73h-16.75l-.84,5.44c1.68-.42,3.35-.42,3.77-.42,6.28,0,10.47,2.51,12.98,4.61,2.09,2.09,4.61,5.86,4.61,11.3,0,5.86-2.52,9.63-4.61,12.14-4.6,4.61-10.46,5.45-15.07,5.45-7.54,0-12.56-1.68-16.33-4.19l2.09-11.73c2.51,2.52,5.03,3.35,5.86,3.77,2.1.84,5.03,1.68,7.12,1.68,2.51,0,5.02-.84,6.28-2.51,1.26-1.26,1.68-2.94,1.68-5.03,0-2.51-1.26-4.19-2.51-5.02-2.52-2.52-7.12-2.52-8.8-2.52-3.35,0-6.28.84-8.79,2.1l4.19-25.96h25.12v10.89h0Z" fill-rule="evenodd" stroke-width="0"/><path d="m327.41,88.76l62.38,192.18-163.7,118.9-163.71-118.9,62.38-192.18s202.65,0,202.65,0Zm14.65-20.09H111.37l-71.18,219.39,186.73,135.65,186.73-135.65-71.59-219.39Z" fill-rule="evenodd" stroke-width="0"/><polygon points="299.13 221.5 320.14 221.5 331.06 242.4 341.66 221.5 362.41 221.5 343.25 254.4 364.22 289.42 342.78 289.42 330.68 267.61 318.5 289.42 297.24 289.42 318.49 254.02 299.13 221.5" stroke-width="0"/><polygon points="88.26 221.11 109.27 221.11 120.19 242.01 130.79 221.11 151.54 221.11 132.38 254.01 153.35 289.03 131.91 289.03 119.81 267.22 107.63 289.03 86.37 289.03 107.62 253.63 88.26 221.11" stroke-width="0"/><path d="m208.92,165.02h-21.58l-3.1,11.2h-19.44l23.2-67.92h20.85l23.1,67.92h-19.95l-3.08-11.2Zm-4.03-14.7l-6.73-24.41-6.76,24.41h13.49,0Zm80.42,25.9h-51.4c.59-5.58,2.38-10.85,5.37-15.76,2.98-4.94,8.58-10.76,16.79-17.46,5.02-4.11,8.23-7.23,9.65-9.36,1.41-2.13,2.11-4.16,2.11-6.07,0-2.07-.69-3.84-2.08-5.31-1.39-1.47-3.14-2.2-5.25-2.2s-3.97.76-5.37,2.28c-1.39,1.53-2.32,4.2-2.79,8.06l-17.14-1.53c.68-5.33,1.91-9.47,3.71-12.46,1.79-2.99,4.32-5.27,7.57-6.86,3.27-1.6,7.79-2.39,13.56-2.39s10.71.76,14.06,2.28c3.35,1.5,5.99,3.82,7.89,6.95,1.93,3.15,2.89,6.66,2.89,10.55,0,4.12-1.11,8.08-3.3,11.86-2.2,3.76-6.2,7.9-12.01,12.41-3.44,2.62-5.75,4.47-6.92,5.51-1.16,1.06-2.52,2.42-4.1,4.13h26.76v15.37h0Z" stroke-width="0"/></svg>