<?xml version="1.0" encoding="UTF-8"?><svg id="a" xmlns="http://www.w3.org/2000/svg" viewBox="0 0 376 376"><path d="m161.37,288.21c-5.38,1.94-8.35,2.56-11.69,2.56-9.04,0-15.83-3.58-20.11-7.79-5.07-5.07-7.88-12.16-7.88-18.94,0-7.4,3.2-14.43,7.88-19.18,4.6-4.67,11.53-8.1,19.64-8.1,2.49,0,6.55.39,12.16,2.66v16.13c-4.36-5.38-9.51-5.7-11.77-5.7-3.9,0-6.85,1.18-9.35,3.44-3.2,2.95-4.53,7.01-4.53,10.67s1.49,7.56,4.21,10.14c2.27,2.09,5.85,3.58,9.67,3.58,2.03,0,7.01-.24,11.77-5.45v15.98Z" stroke-width="0"/><path d="m183.48,237.61v30.79c0,2.19.08,5.53,2.65,8.03,1.56,1.48,4.06,2.49,6.39,2.49s4.76-.93,6.24-2.26c3.12-2.73,3.04-6.54,3.04-9.42v-29.63h13.48v29.85c0,5.46-.23,11.16-5.84,16.85-4.37,4.44-9.83,6.46-17.15,6.46-8.18,0-14.03-2.8-17.22-6.24-4.53-4.9-5.07-11.52-5.07-17.07v-29.85h13.48Z" stroke-width="0"/><polygon points="245.91 249.07 245.91 289.61 232.42 289.61 232.42 249.07 221.35 249.07 221.35 237.61 256.97 237.61 256.97 249.07 245.91 249.07" stroke-width="0"/><path d="m351.53,163.56c1.64,11.1,2.14,22.43,1.51,33.64-2.45,44.1-21.93,84.58-54.84,114.02-32.93,29.45-75.41,44.32-119.4,41.82-44.09-2.45-84.58-21.93-114.01-54.84-29.44-32.9-44.3-75.31-41.83-119.39,2.45-44.1,21.93-84.58,54.85-114.02,32.91-29.44,75.28-44.35,119.38-41.83,38.33,2.14,73.62,17.13,101.51,42.46l-34.65-4.81,19.71,26.04,53.89,7.46,7.46-53.89-19.72-26.04-5.52,40C287.31,21.96,244.82,2.89,198.47.3c-50.07-2.79-98.33,14.09-135.79,47.57C25.26,81.35,3.1,127.4.3,177.53c-2.8,50.15,14.1,98.38,47.57,135.8,33.48,37.43,79.53,59.58,129.66,62.37,9.94.56,19.8.33,29.52-.64,39.31-3.91,76.27-20.1,106.27-46.93,37.44-33.48,59.58-79.53,62.38-129.66.72-12.73.14-25.61-1.73-38.24l-22.44,3.33h0Z" stroke-width="0"/><path d="m103.79,186.69c-3.94,0-7.22-1.37-9.26-3.55-2.16-2.18-3.53-5.72-3.68-9.13h-24.1c1.1,11.71,6.67,19.48,11.31,23.7,7.9,7.35,17.3,9.4,26.01,9.4,13.47,0,22.19-4.78,27.1-9.67,3.81-3.82,8.03-10.22,8.03-19.89,0-5.17-1.23-9.53-3.81-13.33-1.91-2.73-5.17-6.27-10.76-8.32,3.26-1.63,5.3-3.94,6.95-6.94,2.03-3.67,2.71-7.21,2.71-11.17,0-6.93-2.86-13.07-7.35-17.56-6.81-6.67-15.8-8.04-22.6-8.04-8.72,0-17.3,1.92-23.97,8.85-4.09,4.09-8.3,11.31-8.84,20.84h21.91c0-2.86,1.09-6.12,3.13-8.03,1.37-1.37,3.68-2.31,6.54-2.31,2.59,0,5.17.94,6.69,2.44,1.34,1.37,2.44,4.09,2.44,6.54,0,2.04-.82,4.49-2.99,6.4-1.92,1.63-4.91,2.99-9.68,2.31v15.94c1.22-.42,2.46-.55,3.95-.55,2.87,0,6.41.68,8.72,2.59,1.63,1.36,3.54,4.09,3.54,8.03,0,2.73-.68,5.17-2.73,7.49-1.76,1.91-4.62,3.96-9.26,3.96h0Z" stroke-width="0"/><path d="m184.45,114.24l-20.29,26.69c-7.22,9.53-13.47,21.51-13.47,33.9,0,9.81,3.94,16.75,8.3,21.25,5.04,5.18,14.17,11.03,29.82,11.03,8.71,0,20.02-1.78,29-10.76,7.09-7.09,9.4-15.25,9.4-23.7,0-7.75-2.18-15.25-8.58-21.64-5.99-6-13.76-8.71-20.56-8.71-4.49,0-9,1.21-12.67,2.86l25.87-30.92h-26.82,0Zm3.94,45.89h0c2.73,0,6.82.67,10.5,4.22,3.26,3.13,4.22,6.67,4.22,9.53,0,4.09-1.65,7.76-4.22,10.34-2.05,2.05-5.46,4.23-10.5,4.23-2.99,0-7.2-.95-10.74-4.62-2.6-2.73-3.96-6.54-3.96-10.37,0-3.12,1.63-6.8,4.49-9.38,2.73-2.46,6.69-3.95,10.21-3.95Z" stroke-width="0"/><path d="m250.31,122.54c-8.17,8.03-13.49,21.11-13.49,37.19s5.32,29,13.49,37.03c7.07,6.94,16.2,10.35,25.05,10.35s17.98-3.41,25.06-10.35c8.17-8.03,13.47-21.1,13.47-37.03s-5.3-29.16-13.47-37.19c-7.08-6.94-16.21-10.34-25.06-10.34s-17.98,3.4-25.05,10.34Zm40.17,37.45h0c0,7.77-2.86,19.2-7.91,23.55-1.76,1.65-4.49,2.86-7.21,2.86s-5.44-1.21-7.22-2.86c-5.3-4.62-7.9-16.46-7.9-23.68,0-8.45,3.01-19.48,7.9-23.7,1.78-1.63,4.51-2.86,7.22-2.86s5.45,1.23,7.21,2.86c4.78,4.22,7.91,15.8,7.91,23.83Z" stroke-width="0"/><path d="m333.8,111.51c-5.67,5.55-6.91,11.71-6.91,16.32,0,8.01,3.68,13.41,6.91,16.64,3.41,3.39,9.1,6.92,17.1,6.92,6.16,0,11.71-2.16,16.47-6.92,5.7-5.7,6.94-12.01,6.94-16.64,0-6.76-2.94-12.61-6.94-16.47-4.16-4.01-10.31-6.77-16.92-6.77-5.7,0-11.72,2.17-16.65,6.92Zm27.87,16.47h0c0,6.02-4.61,10.79-11.07,10.79s-11.1-4.77-11.1-10.79,4.63-10.77,11.1-10.77,11.07,4.77,11.07,10.77Z" stroke-width="0"/></svg>