<svg id="Layer_1" data-name="Layer 1" xmlns="http://www.w3.org/2000/svg" viewBox="0 0 80 52.81"><defs><style>.cls-1{font-size:6.48px;font-family:HelveticaNeueLTStd-Bd, Helvetica Neue LT Std;}</style></defs><text class="cls-1" transform="translate(17.37 46.06)">0X3XD</text><path d="M59.19,16.33A1.24,1.24,0,1,1,58,15.1a1.24,1.24,0,0,1,1.24,1.23"/><polygon points="59.11 23.02 59.11 18.45 55.47 18.45 55.47 19.21 56.71 19.21 56.71 23.02 55.47 23.02 55.47 23.78 60.37 23.78 60.37 23.02 59.11 23.02"/><path d="M62.65,27.55a7.91,7.91,0,0,1-2.61-1,7.74,7.74,0,0,0-3.83-1.25h0a6.09,6.09,0,0,0-3.06.89V13.15a6.39,6.39,0,0,1,3.57-1.22,5.24,5.24,0,0,1,2.88.87,5.52,5.52,0,0,0,3,1h0ZM49.18,25.32a7.74,7.74,0,0,0-3.83,1.25,7.88,7.88,0,0,1-2.6,1V13.8h0a5.5,5.5,0,0,0,3-1,5.26,5.26,0,0,1,2.88-.87,6.07,6.07,0,0,1,2.68.68c.33.17.6.34.79.46l.1.08V26.21a6.11,6.11,0,0,0-3.06-.89M63,12.86a1.62,1.62,0,0,1-.38,0A4.78,4.78,0,0,1,60.09,12a6.24,6.24,0,0,0-3.37-1,7.18,7.18,0,0,0-4,1.34,7.25,7.25,0,0,0-4-1.34,6.18,6.18,0,0,0-3.36,1,4.83,4.83,0,0,1-2.53.87l-.3,0-.07,0h0l-.56-.15V28.49h.47a7.55,7.55,0,0,0,3.49-1.15,6.87,6.87,0,0,1,3.38-1.13,5.46,5.46,0,0,1,3.06,1.05l.2.13.26.19.26-.19.19-.13a5.46,5.46,0,0,1,3.06-1.05,6.87,6.87,0,0,1,3.38,1.13,7.55,7.55,0,0,0,3.49,1.15h0l.44,0V12.71Z"/><polygon points="18.76 5.46 18.76 10.03 21.88 10.03 21.88 9.27 19.73 9.27 19.73 8.04 21.68 8.04 21.68 7.3 19.73 7.3 19.73 6.21 21.81 6.21 21.81 5.46 18.76 5.46"/><polygon points="25.73 5.46 25.73 9.06 24.02 5.46 22.6 5.46 22.6 10.03 23.52 10.03 23.52 6.24 25.29 10.03 26.64 10.03 26.64 5.46 25.73 5.46"/><path d="M28.16,8.83a.54.54,0,0,0,.57.59.55.55,0,0,0,.56-.6c0-.65-.62-.65-1.08-.65V7.43c.44,0,1.09,0,1.09-.66a.5.5,0,0,0-.54-.52.52.52,0,0,0-.54.55h-1a1.19,1.19,0,0,1,.25-.75,1.57,1.57,0,0,1,1.23-.48c1.12,0,1.48.72,1.48,1.19a1,1,0,0,1-.84,1A1.49,1.49,0,0,1,29.9,8a1,1,0,0,1,.36.78,1.44,1.44,0,0,1-1.6,1.31,1.83,1.83,0,0,1-1.06-.3,1.26,1.26,0,0,1-.4-1Z"/><path d="M32.94,6.79a.55.55,0,0,0-.59-.55.54.54,0,0,0-.57.55.55.55,0,0,0,.57.57.56.56,0,0,0,.59-.57m0,2a.63.63,0,1,0-.62.66A.62.62,0,0,0,33,8.76m-2.14-2c0-.54.45-1.23,1.53-1.23.88,0,1.49.5,1.49,1.19a1,1,0,0,1-.86,1,1.16,1.16,0,0,1,.71.45,1.13,1.13,0,0,1,.2.66c0,.81-.75,1.28-1.62,1.28a1.37,1.37,0,0,1-1.51-1.28,1,1,0,0,1,.32-.77,1.34,1.34,0,0,1,.58-.33,1,1,0,0,1-.84-.94"/><path d="M36.45,6.79a.55.55,0,0,0-.59-.55.54.54,0,0,0-.57.55.55.55,0,0,0,.57.57.56.56,0,0,0,.59-.57m0,2a.63.63,0,1,0-.62.66.62.62,0,0,0,.62-.66m-2.13-2c0-.54.44-1.23,1.52-1.23.88,0,1.49.5,1.49,1.19a1,1,0,0,1-.86,1,1.16,1.16,0,0,1,.71.45,1.13,1.13,0,0,1,.2.66c0,.81-.75,1.28-1.62,1.28a1.37,1.37,0,0,1-1.51-1.28,1,1,0,0,1,.32-.77,1.34,1.34,0,0,1,.58-.33,1,1,0,0,1-.83-.94"/><path d="M27.23,25.48H23v-5.3h1.79a1.58,1.58,0,0,0,.84-.26,1.63,1.63,0,0,0,.63-1.41V16.6a.35.35,0,0,1,0-.14l0,0a.4.4,0,0,1,.18,0h.72Zm9.4-4.21V20.15H28.28V15.36H26.53a1.45,1.45,0,0,0-.68.15,1.15,1.15,0,0,0-.52.62,1.33,1.33,0,0,0-.09.48v1.9c0,.43-.11.5-.19.56a.45.45,0,0,1-.24.07H22v7.38h6.28V23.63h8.36V22.51H28.28V21.27Z"/><rect x="19.74" y="27.21" width="10.89" height="1.99"/><path d="M16.84,23.37q0,.11,0,.33c0,.28.08.7.18,1.22a18.17,18.17,0,0,0,1.28,4,17.51,17.51,0,0,0,9.28,9,19.69,19.69,0,0,0,8.86-7.77,14.36,14.36,0,0,0,2.07-6.87V12.22H16.84V23.37M27.39,39.12a18.76,18.76,0,0,1-10.11-9.68,18.23,18.23,0,0,1-1.6-6.13h0V11.07h24V23.32a15.45,15.45,0,0,1-2.23,7.45,21,21,0,0,1-9.6,8.35l-.23.1Z"/><path d="M61.1,31.62a4.63,4.63,0,0,1,.65,0V29.4a6.81,6.81,0,0,0-.78,0A6.63,6.63,0,1,0,61,42.6a6.79,6.79,0,0,0,.78,0V40.47a4.62,4.62,0,0,1-.65.05,4.43,4.43,0,0,1-4.32-3.36h3.48V35H56.78a4.43,4.43,0,0,1,4.32-3.36"/><path d="M50.39,40.52a4.46,4.46,0,0,1,0-8.91,4.77,4.77,0,0,1,.66.05V29.4a6.81,6.81,0,0,0-.78,0,6.63,6.63,0,1,0,0,13.25,6.79,6.79,0,0,0,.78,0V40.47a3.6,3.6,0,0,1-.66.05"/></svg>